ISO-10303-21;
HEADER;
/* Generated by software containing ST-Developer
 * from STEP Tools, Inc. (www.steptools.com) 
 */
/* OPTION: using custom renumber hook */

FILE_DESCRIPTION(
/* description */ ('STEP AP242 Edition 2',
'CAx-IF Rec.Pracs.---Representation and Presentation of Product Manufa
cturing Information (PMI)---4.0---2014-10-13',
'CAx-IF Rec.Pracs.---3D Tessellated Geometry---0.4---2014-09-14','2;1',
'CAx-IF Rec.Pracs.---User Defined Attributes---1.5---2016-08-15'),
/* implementation_level */ '2;1');

FILE_NAME(
/* name */ 'Long bar - Bar L',
/* time_stamp */ '2026-09-19T20:02:18Z',
/* author */ (''),
/* organization */ (''),
/* preprocessor_version */ 'ST-DEVELOPER v20',
/* originating_system */ 'ONSHAPE BY PTC INC, 1.221',
/* authorisation */ '  ');

FILE_SCHEMA (('AP242_MANAGED_MODEL_BASED_3D_ENGINEERING_MIM_LF { 1 0 10303 442 3 1 4 }'));
ENDSEC;

DATA;
#10=SHAPE_REPRESENTATION_RELATIONSHIP('','',#1107,#11);
#11=ADVANCED_BREP_SHAPE_REPRESENTATION('',(#1105),#1825);
#12=ELLIPSE('',#1121,0.00200274469199584,0.002);
#13=ELLIPSE('',#1122,0.00200274469199584,0.002);
#14=ELLIPSE('',#1123,0.00200274469199584,0.002);
#15=ELLIPSE('',#1124,0.00200274469199584,0.002);
#16=ELLIPSE('',#1125,0.00200274469199584,0.002);
#17=ELLIPSE('',#1126,0.00201965514503723,0.002);
#18=ELLIPSE('',#1127,0.00201965514503723,0.002);
#19=ELLIPSE('',#1128,0.00200274469199584,0.002);
#20=ELLIPSE('',#1129,0.00200274469199584,0.002);
#21=ELLIPSE('',#1130,0.00200274469199584,0.002);
#22=ELLIPSE('',#1131,0.00200274469199584,0.002);
#23=ELLIPSE('',#1132,0.00200274469199584,0.002);
#24=ELLIPSE('',#1142,0.0020076396750867,0.002);
#25=ELLIPSE('',#1143,0.0020076396750867,0.002);
#26=CYLINDRICAL_SURFACE('',#1113,0.00165);
#27=CYLINDRICAL_SURFACE('',#1118,0.00165);
#28=CYLINDRICAL_SURFACE('',#1163,0.002);
#29=CYLINDRICAL_SURFACE('',#1164,0.002);
#30=CYLINDRICAL_SURFACE('',#1165,0.002);
#31=CYLINDRICAL_SURFACE('',#1166,0.002);
#32=CYLINDRICAL_SURFACE('',#1167,0.002);
#33=CYLINDRICAL_SURFACE('',#1168,0.002);
#34=CYLINDRICAL_SURFACE('',#1169,0.002);
#35=CYLINDRICAL_SURFACE('',#1170,0.002);
#36=CYLINDRICAL_SURFACE('',#1171,0.002);
#37=CYLINDRICAL_SURFACE('',#1172,0.002);
#38=CYLINDRICAL_SURFACE('',#1173,0.002);
#39=CYLINDRICAL_SURFACE('',#1174,0.002);
#40=CYLINDRICAL_SURFACE('',#1183,0.00225);
#41=CYLINDRICAL_SURFACE('',#1187,0.00225);
#42=CYLINDRICAL_SURFACE('',#1191,0.00165);
#43=CYLINDRICAL_SURFACE('',#1194,0.00165);
#44=CIRCLE('',#1110,0.00165);
#45=CIRCLE('',#1112,0.00165);
#46=CIRCLE('',#1115,0.00165);
#47=CIRCLE('',#1117,0.00165);
#48=CIRCLE('',#1120,0.00225);
#49=CIRCLE('',#1133,0.00225);
#50=CIRCLE('',#1137,0.002);
#51=CIRCLE('',#1138,0.002);
#52=CIRCLE('',#1139,0.002);
#53=CIRCLE('',#1140,0.002);
#54=CIRCLE('',#1141,0.002);
#55=CIRCLE('',#1144,0.002);
#56=CIRCLE('',#1145,0.002);
#57=CIRCLE('',#1146,0.002);
#58=CIRCLE('',#1147,0.002);
#59=CIRCLE('',#1148,0.002);
#60=CIRCLE('',#1184,0.00225);
#61=CIRCLE('',#1186,0.00165);
#62=CIRCLE('',#1188,0.00225);
#63=CIRCLE('',#1190,0.00165);
#64=CIRCLE('',#1192,0.00165);
#65=CIRCLE('',#1195,0.00165);
#66=ORIENTED_EDGE('',*,*,#370,.T.);
#67=ORIENTED_EDGE('',*,*,#371,.T.);
#68=ORIENTED_EDGE('',*,*,#372,.F.);
#69=ORIENTED_EDGE('',*,*,#373,.F.);
#70=ORIENTED_EDGE('',*,*,#374,.T.);
#71=ORIENTED_EDGE('',*,*,#375,.T.);
#72=ORIENTED_EDGE('',*,*,#376,.T.);
#73=ORIENTED_EDGE('',*,*,#377,.F.);
#74=ORIENTED_EDGE('',*,*,#378,.F.);
#75=ORIENTED_EDGE('',*,*,#379,.T.);
#76=ORIENTED_EDGE('',*,*,#380,.T.);
#77=ORIENTED_EDGE('',*,*,#381,.T.);
#78=ORIENTED_EDGE('',*,*,#382,.T.);
#79=ORIENTED_EDGE('',*,*,#383,.F.);
#80=ORIENTED_EDGE('',*,*,#384,.F.);
#81=ORIENTED_EDGE('',*,*,#385,.T.);
#82=ORIENTED_EDGE('',*,*,#386,.T.);
#83=ORIENTED_EDGE('',*,*,#387,.F.);
#84=ORIENTED_EDGE('',*,*,#388,.F.);
#85=ORIENTED_EDGE('',*,*,#389,.T.);
#86=ORIENTED_EDGE('',*,*,#380,.F.);
#87=ORIENTED_EDGE('',*,*,#390,.F.);
#88=ORIENTED_EDGE('',*,*,#388,.T.);
#89=ORIENTED_EDGE('',*,*,#391,.T.);
#90=ORIENTED_EDGE('',*,*,#392,.T.);
#91=ORIENTED_EDGE('',*,*,#393,.T.);
#92=ORIENTED_EDGE('',*,*,#394,.T.);
#93=ORIENTED_EDGE('',*,*,#395,.T.);
#94=ORIENTED_EDGE('',*,*,#396,.T.);
#95=ORIENTED_EDGE('',*,*,#397,.T.);
#96=ORIENTED_EDGE('',*,*,#398,.T.);
#97=ORIENTED_EDGE('',*,*,#399,.T.);
#98=ORIENTED_EDGE('',*,*,#400,.F.);
#99=ORIENTED_EDGE('',*,*,#401,.T.);
#100=ORIENTED_EDGE('',*,*,#402,.F.);
#101=ORIENTED_EDGE('',*,*,#403,.F.);
#102=ORIENTED_EDGE('',*,*,#404,.F.);
#103=ORIENTED_EDGE('',*,*,#405,.F.);
#104=ORIENTED_EDGE('',*,*,#406,.T.);
#105=ORIENTED_EDGE('',*,*,#407,.T.);
#106=ORIENTED_EDGE('',*,*,#408,.F.);
#107=ORIENTED_EDGE('',*,*,#409,.F.);
#108=ORIENTED_EDGE('',*,*,#410,.T.);
#109=ORIENTED_EDGE('',*,*,#411,.T.);
#110=ORIENTED_EDGE('',*,*,#402,.T.);
#111=ORIENTED_EDGE('',*,*,#412,.T.);
#112=ORIENTED_EDGE('',*,*,#411,.F.);
#113=ORIENTED_EDGE('',*,*,#413,.F.);
#114=ORIENTED_EDGE('',*,*,#414,.F.);
#115=ORIENTED_EDGE('',*,*,#415,.F.);
#116=ORIENTED_EDGE('',*,*,#386,.F.);
#117=ORIENTED_EDGE('',*,*,#416,.F.);
#118=ORIENTED_EDGE('',*,*,#404,.T.);
#119=ORIENTED_EDGE('',*,*,#417,.F.);
#120=ORIENTED_EDGE('',*,*,#397,.F.);
#121=ORIENTED_EDGE('',*,*,#418,.T.);
#122=ORIENTED_EDGE('',*,*,#419,.T.);
#123=ORIENTED_EDGE('',*,*,#420,.T.);
#124=ORIENTED_EDGE('',*,*,#421,.T.);
#125=ORIENTED_EDGE('',*,*,#422,.F.);
#126=ORIENTED_EDGE('',*,*,#423,.T.);
#127=ORIENTED_EDGE('',*,*,#424,.F.);
#128=ORIENTED_EDGE('',*,*,#425,.T.);
#129=ORIENTED_EDGE('',*,*,#426,.T.);
#130=ORIENTED_EDGE('',*,*,#427,.T.);
#131=ORIENTED_EDGE('',*,*,#428,.T.);
#132=ORIENTED_EDGE('',*,*,#429,.T.);
#133=ORIENTED_EDGE('',*,*,#430,.T.);
#134=ORIENTED_EDGE('',*,*,#431,.T.);
#135=ORIENTED_EDGE('',*,*,#432,.F.);
#136=ORIENTED_EDGE('',*,*,#433,.T.);
#137=ORIENTED_EDGE('',*,*,#434,.T.);
#138=ORIENTED_EDGE('',*,*,#435,.T.);
#139=ORIENTED_EDGE('',*,*,#436,.T.);
#140=ORIENTED_EDGE('',*,*,#437,.T.);
#141=ORIENTED_EDGE('',*,*,#438,.T.);
#142=ORIENTED_EDGE('',*,*,#439,.T.);
#143=ORIENTED_EDGE('',*,*,#440,.F.);
#144=ORIENTED_EDGE('',*,*,#441,.T.);
#145=ORIENTED_EDGE('',*,*,#442,.T.);
#146=ORIENTED_EDGE('',*,*,#377,.T.);
#147=ORIENTED_EDGE('',*,*,#443,.T.);
#148=ORIENTED_EDGE('',*,*,#396,.F.);
#149=ORIENTED_EDGE('',*,*,#444,.T.);
#150=ORIENTED_EDGE('',*,*,#445,.F.);
#151=ORIENTED_EDGE('',*,*,#446,.T.);
#152=ORIENTED_EDGE('',*,*,#392,.F.);
#153=ORIENTED_EDGE('',*,*,#447,.T.);
#154=ORIENTED_EDGE('',*,*,#448,.T.);
#155=ORIENTED_EDGE('',*,*,#418,.F.);
#156=ORIENTED_EDGE('',*,*,#383,.T.);
#157=ORIENTED_EDGE('',*,*,#449,.F.);
#158=ORIENTED_EDGE('',*,*,#407,.F.);
#159=ORIENTED_EDGE('',*,*,#450,.T.);
#160=ORIENTED_EDGE('',*,*,#399,.F.);
#161=ORIENTED_EDGE('',*,*,#451,.T.);
#162=ORIENTED_EDGE('',*,*,#408,.T.);
#163=ORIENTED_EDGE('',*,*,#449,.T.);
#164=ORIENTED_EDGE('',*,*,#382,.F.);
#165=ORIENTED_EDGE('',*,*,#452,.T.);
#166=ORIENTED_EDGE('',*,*,#375,.F.);
#167=ORIENTED_EDGE('',*,*,#453,.F.);
#168=ORIENTED_EDGE('',*,*,#454,.T.);
#169=ORIENTED_EDGE('',*,*,#455,.F.);
#170=ORIENTED_EDGE('',*,*,#456,.T.);
#171=ORIENTED_EDGE('',*,*,#457,.T.);
#172=ORIENTED_EDGE('',*,*,#458,.T.);
#173=ORIENTED_EDGE('',*,*,#459,.T.);
#174=ORIENTED_EDGE('',*,*,#460,.T.);
#175=ORIENTED_EDGE('',*,*,#461,.F.);
#176=ORIENTED_EDGE('',*,*,#462,.T.);
#177=ORIENTED_EDGE('',*,*,#463,.F.);
#178=ORIENTED_EDGE('',*,*,#464,.T.);
#179=ORIENTED_EDGE('',*,*,#465,.T.);
#180=ORIENTED_EDGE('',*,*,#466,.T.);
#181=ORIENTED_EDGE('',*,*,#467,.T.);
#182=ORIENTED_EDGE('',*,*,#468,.T.);
#183=ORIENTED_EDGE('',*,*,#469,.F.);
#184=ORIENTED_EDGE('',*,*,#470,.T.);
#185=ORIENTED_EDGE('',*,*,#471,.F.);
#186=ORIENTED_EDGE('',*,*,#472,.T.);
#187=ORIENTED_EDGE('',*,*,#473,.F.);
#188=ORIENTED_EDGE('',*,*,#474,.T.);
#189=ORIENTED_EDGE('',*,*,#475,.T.);
#190=ORIENTED_EDGE('',*,*,#476,.T.);
#191=ORIENTED_EDGE('',*,*,#447,.F.);
#192=ORIENTED_EDGE('',*,*,#426,.F.);
#193=ORIENTED_EDGE('',*,*,#477,.T.);
#194=ORIENTED_EDGE('',*,*,#469,.T.);
#195=ORIENTED_EDGE('',*,*,#478,.T.);
#196=ORIENTED_EDGE('',*,*,#479,.T.);
#197=ORIENTED_EDGE('',*,*,#480,.T.);
#198=ORIENTED_EDGE('',*,*,#370,.F.);
#199=ORIENTED_EDGE('',*,*,#442,.F.);
#200=ORIENTED_EDGE('',*,*,#481,.T.);
#201=ORIENTED_EDGE('',*,*,#453,.T.);
#202=ORIENTED_EDGE('',*,*,#374,.F.);
#203=ORIENTED_EDGE('',*,*,#482,.F.);
#204=ORIENTED_EDGE('',*,*,#461,.T.);
#205=ORIENTED_EDGE('',*,*,#483,.T.);
#206=ORIENTED_EDGE('',*,*,#434,.F.);
#207=ORIENTED_EDGE('',*,*,#484,.T.);
#208=ORIENTED_EDGE('',*,*,#416,.T.);
#209=ORIENTED_EDGE('',*,*,#385,.F.);
#210=ORIENTED_EDGE('',*,*,#485,.F.);
#211=ORIENTED_EDGE('',*,*,#405,.T.);
#212=ORIENTED_EDGE('',*,*,#384,.T.);
#213=ORIENTED_EDGE('',*,*,#450,.F.);
#214=ORIENTED_EDGE('',*,*,#406,.F.);
#215=ORIENTED_EDGE('',*,*,#485,.T.);
#216=ORIENTED_EDGE('',*,*,#428,.F.);
#217=ORIENTED_EDGE('',*,*,#486,.T.);
#218=ORIENTED_EDGE('',*,*,#467,.F.);
#219=ORIENTED_EDGE('',*,*,#487,.T.);
#220=ORIENTED_EDGE('',*,*,#463,.T.);
#221=ORIENTED_EDGE('',*,*,#488,.T.);
#222=ORIENTED_EDGE('',*,*,#432,.T.);
#223=ORIENTED_EDGE('',*,*,#489,.T.);
#224=ORIENTED_EDGE('',*,*,#430,.F.);
#225=ORIENTED_EDGE('',*,*,#490,.T.);
#226=ORIENTED_EDGE('',*,*,#465,.F.);
#227=ORIENTED_EDGE('',*,*,#491,.T.);
#228=ORIENTED_EDGE('',*,*,#438,.F.);
#229=ORIENTED_EDGE('',*,*,#492,.T.);
#230=ORIENTED_EDGE('',*,*,#457,.F.);
#231=ORIENTED_EDGE('',*,*,#493,.T.);
#232=ORIENTED_EDGE('',*,*,#436,.F.);
#233=ORIENTED_EDGE('',*,*,#494,.T.);
#234=ORIENTED_EDGE('',*,*,#459,.F.);
#235=ORIENTED_EDGE('',*,*,#495,.T.);
#236=ORIENTED_EDGE('',*,*,#455,.T.);
#237=ORIENTED_EDGE('',*,*,#496,.T.);
#238=ORIENTED_EDGE('',*,*,#440,.T.);
#239=ORIENTED_EDGE('',*,*,#497,.T.);
#240=ORIENTED_EDGE('',*,*,#471,.T.);
#241=ORIENTED_EDGE('',*,*,#498,.T.);
#242=ORIENTED_EDGE('',*,*,#424,.T.);
#243=ORIENTED_EDGE('',*,*,#499,.T.);
#244=ORIENTED_EDGE('',*,*,#473,.T.);
#245=ORIENTED_EDGE('',*,*,#500,.T.);
#246=ORIENTED_EDGE('',*,*,#422,.T.);
#247=ORIENTED_EDGE('',*,*,#501,.T.);
#248=ORIENTED_EDGE('',*,*,#420,.F.);
#249=ORIENTED_EDGE('',*,*,#502,.T.);
#250=ORIENTED_EDGE('',*,*,#475,.F.);
#251=ORIENTED_EDGE('',*,*,#503,.T.);
#252=ORIENTED_EDGE('',*,*,#425,.F.);
#253=ORIENTED_EDGE('',*,*,#498,.F.);
#254=ORIENTED_EDGE('',*,*,#470,.F.);
#255=ORIENTED_EDGE('',*,*,#477,.F.);
#256=ORIENTED_EDGE('',*,*,#419,.F.);
#257=ORIENTED_EDGE('',*,*,#448,.F.);
#258=ORIENTED_EDGE('',*,*,#476,.F.);
#259=ORIENTED_EDGE('',*,*,#502,.F.);
#260=ORIENTED_EDGE('',*,*,#435,.F.);
#261=ORIENTED_EDGE('',*,*,#483,.F.);
#262=ORIENTED_EDGE('',*,*,#460,.F.);
#263=ORIENTED_EDGE('',*,*,#494,.F.);
#264=ORIENTED_EDGE('',*,*,#441,.F.);
#265=ORIENTED_EDGE('',*,*,#496,.F.);
#266=ORIENTED_EDGE('',*,*,#454,.F.);
#267=ORIENTED_EDGE('',*,*,#481,.F.);
#268=ORIENTED_EDGE('',*,*,#427,.F.);
#269=ORIENTED_EDGE('',*,*,#478,.F.);
#270=ORIENTED_EDGE('',*,*,#468,.F.);
#271=ORIENTED_EDGE('',*,*,#486,.F.);
#272=ORIENTED_EDGE('',*,*,#433,.F.);
#273=ORIENTED_EDGE('',*,*,#488,.F.);
#274=ORIENTED_EDGE('',*,*,#462,.F.);
#275=ORIENTED_EDGE('',*,*,#484,.F.);
#276=ORIENTED_EDGE('',*,*,#423,.F.);
#277=ORIENTED_EDGE('',*,*,#500,.F.);
#278=ORIENTED_EDGE('',*,*,#472,.F.);
#279=ORIENTED_EDGE('',*,*,#499,.F.);
#280=ORIENTED_EDGE('',*,*,#421,.F.);
#281=ORIENTED_EDGE('',*,*,#503,.F.);
#282=ORIENTED_EDGE('',*,*,#474,.F.);
#283=ORIENTED_EDGE('',*,*,#501,.F.);
#284=ORIENTED_EDGE('',*,*,#437,.F.);
#285=ORIENTED_EDGE('',*,*,#495,.F.);
#286=ORIENTED_EDGE('',*,*,#458,.F.);
#287=ORIENTED_EDGE('',*,*,#492,.F.);
#288=ORIENTED_EDGE('',*,*,#439,.F.);
#289=ORIENTED_EDGE('',*,*,#493,.F.);
#290=ORIENTED_EDGE('',*,*,#456,.F.);
#291=ORIENTED_EDGE('',*,*,#497,.F.);
#292=ORIENTED_EDGE('',*,*,#429,.F.);
#293=ORIENTED_EDGE('',*,*,#487,.F.);
#294=ORIENTED_EDGE('',*,*,#466,.F.);
#295=ORIENTED_EDGE('',*,*,#490,.F.);
#296=ORIENTED_EDGE('',*,*,#431,.F.);
#297=ORIENTED_EDGE('',*,*,#491,.F.);
#298=ORIENTED_EDGE('',*,*,#464,.F.);
#299=ORIENTED_EDGE('',*,*,#489,.F.);
#300=ORIENTED_EDGE('',*,*,#417,.T.);
#301=ORIENTED_EDGE('',*,*,#403,.T.);
#302=ORIENTED_EDGE('',*,*,#451,.F.);
#303=ORIENTED_EDGE('',*,*,#398,.F.);
#304=ORIENTED_EDGE('',*,*,#452,.F.);
#305=ORIENTED_EDGE('',*,*,#381,.F.);
#306=ORIENTED_EDGE('',*,*,#415,.T.);
#307=ORIENTED_EDGE('',*,*,#376,.F.);
#308=ORIENTED_EDGE('',*,*,#504,.T.);
#309=ORIENTED_EDGE('',*,*,#505,.T.);
#310=ORIENTED_EDGE('',*,*,#393,.F.);
#311=ORIENTED_EDGE('',*,*,#446,.F.);
#312=ORIENTED_EDGE('',*,*,#394,.F.);
#313=ORIENTED_EDGE('',*,*,#505,.F.);
#314=ORIENTED_EDGE('',*,*,#506,.T.);
#315=ORIENTED_EDGE('',*,*,#507,.T.);
#316=ORIENTED_EDGE('',*,*,#445,.T.);
#317=ORIENTED_EDGE('',*,*,#508,.T.);
#318=ORIENTED_EDGE('',*,*,#506,.F.);
#319=ORIENTED_EDGE('',*,*,#504,.F.);
#320=ORIENTED_EDGE('',*,*,#482,.T.);
#321=ORIENTED_EDGE('',*,*,#373,.T.);
#322=ORIENTED_EDGE('',*,*,#509,.F.);
#323=ORIENTED_EDGE('',*,*,#510,.F.);
#324=ORIENTED_EDGE('',*,*,#372,.T.);
#325=ORIENTED_EDGE('',*,*,#511,.F.);
#326=ORIENTED_EDGE('',*,*,#512,.F.);
#327=ORIENTED_EDGE('',*,*,#509,.T.);
#328=ORIENTED_EDGE('',*,*,#510,.T.);
#329=ORIENTED_EDGE('',*,*,#512,.T.);
#330=ORIENTED_EDGE('',*,*,#513,.T.);
#331=ORIENTED_EDGE('',*,*,#479,.F.);
#332=ORIENTED_EDGE('',*,*,#514,.T.);
#333=ORIENTED_EDGE('',*,*,#443,.F.);
#334=ORIENTED_EDGE('',*,*,#514,.F.);
#335=ORIENTED_EDGE('',*,*,#515,.F.);
#336=ORIENTED_EDGE('',*,*,#516,.F.);
#337=ORIENTED_EDGE('',*,*,#414,.T.);
#338=ORIENTED_EDGE('',*,*,#517,.F.);
#339=ORIENTED_EDGE('',*,*,#516,.T.);
#340=ORIENTED_EDGE('',*,*,#517,.T.);
#341=ORIENTED_EDGE('',*,*,#518,.F.);
#342=ORIENTED_EDGE('',*,*,#518,.T.);
#343=ORIENTED_EDGE('',*,*,#515,.T.);
#344=ORIENTED_EDGE('',*,*,#519,.F.);
#345=ORIENTED_EDGE('',*,*,#519,.T.);
#346=ORIENTED_EDGE('',*,*,#513,.F.);
#347=ORIENTED_EDGE('',*,*,#511,.T.);
#348=ORIENTED_EDGE('',*,*,#371,.F.);
#349=ORIENTED_EDGE('',*,*,#480,.F.);
#350=ORIENTED_EDGE('',*,*,#508,.F.);
#351=ORIENTED_EDGE('',*,*,#444,.F.);
#352=ORIENTED_EDGE('',*,*,#395,.F.);
#353=ORIENTED_EDGE('',*,*,#507,.F.);
#354=ORIENTED_EDGE('',*,*,#400,.T.);
#355=ORIENTED_EDGE('',*,*,#413,.T.);
#356=ORIENTED_EDGE('',*,*,#410,.F.);
#357=ORIENTED_EDGE('',*,*,#520,.F.);
#358=ORIENTED_EDGE('',*,*,#520,.T.);
#359=ORIENTED_EDGE('',*,*,#409,.T.);
#360=ORIENTED_EDGE('',*,*,#412,.F.);
#361=ORIENTED_EDGE('',*,*,#401,.F.);
#362=ORIENTED_EDGE('',*,*,#387,.T.);
#363=ORIENTED_EDGE('',*,*,#521,.T.);
#364=ORIENTED_EDGE('',*,*,#378,.T.);
#365=ORIENTED_EDGE('',*,*,#391,.F.);
#366=ORIENTED_EDGE('',*,*,#390,.T.);
#367=ORIENTED_EDGE('',*,*,#379,.F.);
#368=ORIENTED_EDGE('',*,*,#521,.F.);
#369=ORIENTED_EDGE('',*,*,#389,.F.);
#370=EDGE_CURVE('',#522,#523,#626,.T.);
#371=EDGE_CURVE('',#523,#524,#627,.F.);
#372=EDGE_CURVE('',#525,#524,#628,.T.);
#373=EDGE_CURVE('',#526,#525,#629,.T.);
#374=EDGE_CURVE('',#526,#527,#630,.T.);
#375=EDGE_CURVE('',#527,#528,#631,.T.);
#376=EDGE_CURVE('',#528,#529,#632,.T.);
#377=EDGE_CURVE('',#522,#529,#633,.T.);
#378=EDGE_CURVE('',#530,#531,#634,.T.);
#379=EDGE_CURVE('',#530,#532,#635,.T.);
#380=EDGE_CURVE('',#532,#531,#44,.T.);
#381=EDGE_CURVE('',#533,#534,#636,.T.);
#382=EDGE_CURVE('',#534,#535,#637,.T.);
#383=EDGE_CURVE('',#536,#535,#638,.T.);
#384=EDGE_CURVE('',#537,#536,#639,.T.);
#385=EDGE_CURVE('',#537,#538,#640,.T.);
#386=EDGE_CURVE('',#538,#533,#641,.T.);
#387=EDGE_CURVE('',#539,#540,#642,.T.);
#388=EDGE_CURVE('',#541,#539,#45,.T.);
#389=EDGE_CURVE('',#541,#540,#643,.T.);
#390=EDGE_CURVE('',#541,#532,#644,.T.);
#391=EDGE_CURVE('',#539,#531,#645,.T.);
#392=EDGE_CURVE('',#542,#543,#646,.T.);
#393=EDGE_CURVE('',#543,#544,#647,.T.);
#394=EDGE_CURVE('',#544,#545,#648,.T.);
#395=EDGE_CURVE('',#545,#546,#649,.T.);
#396=EDGE_CURVE('',#546,#547,#650,.T.);
#397=EDGE_CURVE('',#547,#548,#651,.T.);
#398=EDGE_CURVE('',#548,#549,#652,.T.);
#399=EDGE_CURVE('',#549,#542,#653,.T.);
#400=EDGE_CURVE('',#550,#551,#654,.T.);
#401=EDGE_CURVE('',#550,#552,#655,.T.);
#402=EDGE_CURVE('',#551,#552,#46,.T.);
#403=EDGE_CURVE('',#553,#554,#656,.T.);
#404=EDGE_CURVE('',#555,#553,#657,.T.);
#405=EDGE_CURVE('',#556,#555,#658,.T.);
#406=EDGE_CURVE('',#556,#557,#659,.T.);
#407=EDGE_CURVE('',#557,#558,#660,.T.);
#408=EDGE_CURVE('',#554,#558,#661,.T.);
#409=EDGE_CURVE('',#559,#560,#662,.T.);
#410=EDGE_CURVE('',#559,#561,#663,.T.);
#411=EDGE_CURVE('',#561,#560,#47,.T.);
#412=EDGE_CURVE('',#552,#560,#664,.T.);
#413=EDGE_CURVE('',#551,#561,#665,.T.);
#414=EDGE_CURVE('',#562,#562,#48,.T.);
#415=EDGE_CURVE('',#533,#529,#666,.T.);
#416=EDGE_CURVE('',#555,#538,#667,.T.);
#417=EDGE_CURVE('',#548,#553,#668,.T.);
#418=EDGE_CURVE('',#547,#563,#669,.T.);
#419=EDGE_CURVE('',#563,#564,#12,.T.);
#420=EDGE_CURVE('',#564,#565,#670,.T.);
#421=EDGE_CURVE('',#565,#566,#13,.F.);
#422=EDGE_CURVE('',#567,#566,#671,.T.);
#423=EDGE_CURVE('',#567,#568,#14,.F.);
#424=EDGE_CURVE('',#569,#568,#672,.T.);
#425=EDGE_CURVE('',#569,#570,#15,.T.);
#426=EDGE_CURVE('',#570,#571,#673,.T.);
#427=EDGE_CURVE('',#571,#572,#16,.T.);
#428=EDGE_CURVE('',#572,#573,#674,.T.);
#429=EDGE_CURVE('',#573,#574,#17,.F.);
#430=EDGE_CURVE('',#574,#575,#675,.T.);
#431=EDGE_CURVE('',#575,#576,#18,.F.);
#432=EDGE_CURVE('',#577,#576,#676,.T.);
#433=EDGE_CURVE('',#577,#578,#19,.T.);
#434=EDGE_CURVE('',#578,#579,#677,.T.);
#435=EDGE_CURVE('',#579,#580,#20,.T.);
#436=EDGE_CURVE('',#580,#581,#678,.T.);
#437=EDGE_CURVE('',#581,#582,#21,.F.);
#438=EDGE_CURVE('',#582,#583,#679,.T.);
#439=EDGE_CURVE('',#583,#584,#22,.F.);
#440=EDGE_CURVE('',#585,#584,#680,.T.);
#441=EDGE_CURVE('',#585,#586,#23,.T.);
#442=EDGE_CURVE('',#586,#522,#681,.T.);
#443=EDGE_CURVE('',#587,#587,#49,.T.);
#444=EDGE_CURVE('',#546,#588,#682,.T.);
#445=EDGE_CURVE('',#589,#588,#683,.T.);
#446=EDGE_CURVE('',#589,#543,#684,.T.);
#447=EDGE_CURVE('',#542,#590,#685,.T.);
#448=EDGE_CURVE('',#590,#563,#686,.F.);
#449=EDGE_CURVE('',#558,#535,#687,.T.);
#450=EDGE_CURVE('',#557,#536,#688,.T.);
#451=EDGE_CURVE('',#549,#554,#689,.T.);
#452=EDGE_CURVE('',#534,#528,#690,.T.);
#453=EDGE_CURVE('',#591,#527,#691,.T.);
#454=EDGE_CURVE('',#591,#592,#50,.T.);
#455=EDGE_CURVE('',#593,#592,#692,.T.);
#456=EDGE_CURVE('',#593,#594,#51,.F.);
#457=EDGE_CURVE('',#594,#595,#693,.T.);
#458=EDGE_CURVE('',#595,#596,#52,.F.);
#459=EDGE_CURVE('',#596,#597,#694,.T.);
#460=EDGE_CURVE('',#597,#598,#53,.T.);
#461=EDGE_CURVE('',#599,#598,#695,.T.);
#462=EDGE_CURVE('',#599,#600,#54,.T.);
#463=EDGE_CURVE('',#601,#600,#696,.T.);
#464=EDGE_CURVE('',#601,#602,#24,.F.);
#465=EDGE_CURVE('',#602,#603,#697,.T.);
#466=EDGE_CURVE('',#603,#604,#25,.F.);
#467=EDGE_CURVE('',#604,#605,#698,.T.);
#468=EDGE_CURVE('',#605,#606,#55,.T.);
#469=EDGE_CURVE('',#607,#606,#699,.T.);
#470=EDGE_CURVE('',#607,#608,#56,.T.);
#471=EDGE_CURVE('',#609,#608,#700,.T.);
#472=EDGE_CURVE('',#609,#610,#57,.F.);
#473=EDGE_CURVE('',#611,#610,#701,.T.);
#474=EDGE_CURVE('',#611,#612,#58,.F.);
#475=EDGE_CURVE('',#612,#613,#702,.T.);
#476=EDGE_CURVE('',#613,#590,#59,.T.);
#477=EDGE_CURVE('',#570,#607,#703,.T.);
#478=EDGE_CURVE('',#606,#571,#704,.F.);
#479=EDGE_CURVE('',#614,#615,#705,.T.);
#480=EDGE_CURVE('',#615,#523,#706,.T.);
#481=EDGE_CURVE('',#586,#591,#707,.T.);
#482=EDGE_CURVE('',#614,#526,#708,.T.);
#483=EDGE_CURVE('',#598,#579,#709,.F.);
#484=EDGE_CURVE('',#578,#599,#710,.T.);
#485=EDGE_CURVE('',#556,#537,#711,.T.);
#486=EDGE_CURVE('',#572,#605,#712,.T.);
#487=EDGE_CURVE('',#604,#573,#713,.F.);
#488=EDGE_CURVE('',#600,#577,#714,.F.);
#489=EDGE_CURVE('',#576,#601,#715,.T.);
#490=EDGE_CURVE('',#574,#603,#716,.T.);
#491=EDGE_CURVE('',#602,#575,#717,.F.);
#492=EDGE_CURVE('',#582,#595,#718,.T.);
#493=EDGE_CURVE('',#594,#583,#719,.F.);
#494=EDGE_CURVE('',#580,#597,#720,.T.);
#495=EDGE_CURVE('',#596,#581,#721,.F.);
#496=EDGE_CURVE('',#592,#585,#722,.F.);
#497=EDGE_CURVE('',#584,#593,#723,.T.);
#498=EDGE_CURVE('',#608,#569,#724,.F.);
#499=EDGE_CURVE('',#568,#609,#725,.T.);
#500=EDGE_CURVE('',#610,#567,#726,.F.);
#501=EDGE_CURVE('',#566,#611,#727,.T.);
#502=EDGE_CURVE('',#564,#613,#728,.T.);
#503=EDGE_CURVE('',#612,#565,#729,.F.);
#504=EDGE_CURVE('',#589,#616,#730,.T.);
#505=EDGE_CURVE('',#616,#544,#731,.T.);
#506=EDGE_CURVE('',#616,#617,#732,.T.);
#507=EDGE_CURVE('',#617,#545,#733,.T.);
#508=EDGE_CURVE('',#588,#617,#734,.T.);
#509=EDGE_CURVE('',#618,#525,#735,.T.);
#510=EDGE_CURVE('',#614,#618,#736,.T.);
#511=EDGE_CURVE('',#619,#524,#737,.T.);
#512=EDGE_CURVE('',#618,#619,#738,.T.);
#513=EDGE_CURVE('',#619,#615,#739,.F.);
#514=EDGE_CURVE('',#620,#620,#60,.T.);
#515=EDGE_CURVE('',#621,#621,#61,.T.);
#516=EDGE_CURVE('',#622,#622,#62,.T.);
#517=EDGE_CURVE('',#623,#623,#63,.T.);
#518=EDGE_CURVE('',#624,#624,#64,.T.);
#519=EDGE_CURVE('',#625,#625,#65,.T.);
#520=EDGE_CURVE('',#550,#559,#740,.T.);
#521=EDGE_CURVE('',#540,#530,#741,.T.);
#522=VERTEX_POINT('',#1512);
#523=VERTEX_POINT('',#1513);
#524=VERTEX_POINT('',#1515);
#525=VERTEX_POINT('',#1517);
#526=VERTEX_POINT('',#1519);
#527=VERTEX_POINT('',#1521);
#528=VERTEX_POINT('',#1523);
#529=VERTEX_POINT('',#1525);
#530=VERTEX_POINT('',#1528);
#531=VERTEX_POINT('',#1529);
#532=VERTEX_POINT('',#1531);
#533=VERTEX_POINT('',#1535);
#534=VERTEX_POINT('',#1536);
#535=VERTEX_POINT('',#1538);
#536=VERTEX_POINT('',#1540);
#537=VERTEX_POINT('',#1542);
#538=VERTEX_POINT('',#1544);
#539=VERTEX_POINT('',#1547);
#540=VERTEX_POINT('',#1548);
#541=VERTEX_POINT('',#1550);
#542=VERTEX_POINT('',#1557);
#543=VERTEX_POINT('',#1558);
#544=VERTEX_POINT('',#1560);
#545=VERTEX_POINT('',#1562);
#546=VERTEX_POINT('',#1564);
#547=VERTEX_POINT('',#1566);
#548=VERTEX_POINT('',#1568);
#549=VERTEX_POINT('',#1570);
#550=VERTEX_POINT('',#1573);
#551=VERTEX_POINT('',#1574);
#552=VERTEX_POINT('',#1576);
#553=VERTEX_POINT('',#1580);
#554=VERTEX_POINT('',#1581);
#555=VERTEX_POINT('',#1583);
#556=VERTEX_POINT('',#1585);
#557=VERTEX_POINT('',#1587);
#558=VERTEX_POINT('',#1589);
#559=VERTEX_POINT('',#1592);
#560=VERTEX_POINT('',#1593);
#561=VERTEX_POINT('',#1595);
#562=VERTEX_POINT('',#1602);
#563=VERTEX_POINT('',#1607);
#564=VERTEX_POINT('',#1609);
#565=VERTEX_POINT('',#1611);
#566=VERTEX_POINT('',#1613);
#567=VERTEX_POINT('',#1615);
#568=VERTEX_POINT('',#1617);
#569=VERTEX_POINT('',#1619);
#570=VERTEX_POINT('',#1621);
#571=VERTEX_POINT('',#1623);
#572=VERTEX_POINT('',#1625);
#573=VERTEX_POINT('',#1627);
#574=VERTEX_POINT('',#1629);
#575=VERTEX_POINT('',#1631);
#576=VERTEX_POINT('',#1633);
#577=VERTEX_POINT('',#1635);
#578=VERTEX_POINT('',#1637);
#579=VERTEX_POINT('',#1639);
#580=VERTEX_POINT('',#1641);
#581=VERTEX_POINT('',#1643);
#582=VERTEX_POINT('',#1645);
#583=VERTEX_POINT('',#1647);
#584=VERTEX_POINT('',#1649);
#585=VERTEX_POINT('',#1651);
#586=VERTEX_POINT('',#1653);
#587=VERTEX_POINT('',#1656);
#588=VERTEX_POINT('',#1659);
#589=VERTEX_POINT('',#1661);
#590=VERTEX_POINT('',#1664);
#591=VERTEX_POINT('',#1673);
#592=VERTEX_POINT('',#1675);
#593=VERTEX_POINT('',#1677);
#594=VERTEX_POINT('',#1679);
#595=VERTEX_POINT('',#1681);
#596=VERTEX_POINT('',#1683);
#597=VERTEX_POINT('',#1685);
#598=VERTEX_POINT('',#1687);
#599=VERTEX_POINT('',#1689);
#600=VERTEX_POINT('',#1691);
#601=VERTEX_POINT('',#1693);
#602=VERTEX_POINT('',#1695);
#603=VERTEX_POINT('',#1697);
#604=VERTEX_POINT('',#1699);
#605=VERTEX_POINT('',#1701);
#606=VERTEX_POINT('',#1703);
#607=VERTEX_POINT('',#1705);
#608=VERTEX_POINT('',#1707);
#609=VERTEX_POINT('',#1709);
#610=VERTEX_POINT('',#1711);
#611=VERTEX_POINT('',#1713);
#612=VERTEX_POINT('',#1715);
#613=VERTEX_POINT('',#1717);
#614=VERTEX_POINT('',#1724);
#615=VERTEX_POINT('',#1725);
#616=VERTEX_POINT('',#1778);
#617=VERTEX_POINT('',#1782);
#618=VERTEX_POINT('',#1788);
#619=VERTEX_POINT('',#1792);
#620=VERTEX_POINT('',#1798);
#621=VERTEX_POINT('',#1801);
#622=VERTEX_POINT('',#1804);
#623=VERTEX_POINT('',#1807);
#624=VERTEX_POINT('',#1810);
#625=VERTEX_POINT('',#1814);
#626=LINE('',#1511,#742);
#627=LINE('',#1514,#743);
#628=LINE('',#1516,#744);
#629=LINE('',#1518,#745);
#630=LINE('',#1520,#746);
#631=LINE('',#1522,#747);
#632=LINE('',#1524,#748);
#633=LINE('',#1526,#749);
#634=LINE('',#1527,#750);
#635=LINE('',#1530,#751);
#636=LINE('',#1534,#752);
#637=LINE('',#1537,#753);
#638=LINE('',#1539,#754);
#639=LINE('',#1541,#755);
#640=LINE('',#1543,#756);
#641=LINE('',#1545,#757);
#642=LINE('',#1546,#758);
#643=LINE('',#1551,#759);
#644=LINE('',#1553,#760);
#645=LINE('',#1554,#761);
#646=LINE('',#1556,#762);
#647=LINE('',#1559,#763);
#648=LINE('',#1561,#764);
#649=LINE('',#1563,#765);
#650=LINE('',#1565,#766);
#651=LINE('',#1567,#767);
#652=LINE('',#1569,#768);
#653=LINE('',#1571,#769);
#654=LINE('',#1572,#770);
#655=LINE('',#1575,#771);
#656=LINE('',#1579,#772);
#657=LINE('',#1582,#773);
#658=LINE('',#1584,#774);
#659=LINE('',#1586,#775);
#660=LINE('',#1588,#776);
#661=LINE('',#1590,#777);
#662=LINE('',#1591,#778);
#663=LINE('',#1594,#779);
#664=LINE('',#1598,#780);
#665=LINE('',#1599,#781);
#666=LINE('',#1603,#782);
#667=LINE('',#1604,#783);
#668=LINE('',#1605,#784);
#669=LINE('',#1606,#785);
#670=LINE('',#1610,#786);
#671=LINE('',#1614,#787);
#672=LINE('',#1618,#788);
#673=LINE('',#1622,#789);
#674=LINE('',#1626,#790);
#675=LINE('',#1630,#791);
#676=LINE('',#1634,#792);
#677=LINE('',#1638,#793);
#678=LINE('',#1642,#794);
#679=LINE('',#1646,#795);
#680=LINE('',#1650,#796);
#681=LINE('',#1654,#797);
#682=LINE('',#1658,#798);
#683=LINE('',#1660,#799);
#684=LINE('',#1662,#800);
#685=LINE('',#1663,#801);
#686=LINE('',#1665,#802);
#687=LINE('',#1667,#803);
#688=LINE('',#1668,#804);
#689=LINE('',#1670,#805);
#690=LINE('',#1671,#806);
#691=LINE('',#1672,#807);
#692=LINE('',#1676,#808);
#693=LINE('',#1680,#809);
#694=LINE('',#1684,#810);
#695=LINE('',#1688,#811);
#696=LINE('',#1692,#812);
#697=LINE('',#1696,#813);
#698=LINE('',#1700,#814);
#699=LINE('',#1704,#815);
#700=LINE('',#1708,#816);
#701=LINE('',#1712,#817);
#702=LINE('',#1716,#818);
#703=LINE('',#1720,#819);
#704=LINE('',#1721,#820);
#705=LINE('',#1723,#821);
#706=LINE('',#1726,#822);
#707=LINE('',#1727,#823);
#708=LINE('',#1728,#824);
#709=LINE('',#1730,#825);
#710=LINE('',#1731,#826);
#711=LINE('',#1733,#827);
#712=LINE('',#1736,#828);
#713=LINE('',#1737,#829);
#714=LINE('',#1739,#830);
#715=LINE('',#1740,#831);
#716=LINE('',#1742,#832);
#717=LINE('',#1743,#833);
#718=LINE('',#1745,#834);
#719=LINE('',#1746,#835);
#720=LINE('',#1748,#836);
#721=LINE('',#1749,#837);
#722=LINE('',#1751,#838);
#723=LINE('',#1752,#839);
#724=LINE('',#1754,#840);
#725=LINE('',#1755,#841);
#726=LINE('',#1757,#842);
#727=LINE('',#1758,#843);
#728=LINE('',#1760,#844);
#729=LINE('',#1761,#845);
#730=LINE('',#1777,#846);
#731=LINE('',#1779,#847);
#732=LINE('',#1781,#848);
#733=LINE('',#1783,#849);
#734=LINE('',#1785,#850);
#735=LINE('',#1787,#851);
#736=LINE('',#1789,#852);
#737=LINE('',#1791,#853);
#738=LINE('',#1793,#854);
#739=LINE('',#1795,#855);
#740=LINE('',#1819,#856);
#741=LINE('',#1822,#857);
#742=VECTOR('',#1207,1.);
#743=VECTOR('',#1208,1.);
#744=VECTOR('',#1209,1.);
#745=VECTOR('',#1210,1.);
#746=VECTOR('',#1211,1.);
#747=VECTOR('',#1212,1.);
#748=VECTOR('',#1213,1.);
#749=VECTOR('',#1214,1.);
#750=VECTOR('',#1215,1.);
#751=VECTOR('',#1216,1.);
#752=VECTOR('',#1221,1.);
#753=VECTOR('',#1222,1.);
#754=VECTOR('',#1223,1.);
#755=VECTOR('',#1224,1.);
#756=VECTOR('',#1225,1.);
#757=VECTOR('',#1226,1.);
#758=VECTOR('',#1227,1.);
#759=VECTOR('',#1230,1.);
#760=VECTOR('',#1233,1.);
#761=VECTOR('',#1234,1.);
#762=VECTOR('',#1237,1.);
#763=VECTOR('',#1238,1.);
#764=VECTOR('',#1239,1.);
#765=VECTOR('',#1240,1.);
#766=VECTOR('',#1241,1.);
#767=VECTOR('',#1242,1.);
#768=VECTOR('',#1243,1.);
#769=VECTOR('',#1244,1.);
#770=VECTOR('',#1245,1.);
#771=VECTOR('',#1246,1.);
#772=VECTOR('',#1251,1.);
#773=VECTOR('',#1252,1.);
#774=VECTOR('',#1253,1.);
#775=VECTOR('',#1254,1.);
#776=VECTOR('',#1255,1.);
#777=VECTOR('',#1256,1.);
#778=VECTOR('',#1257,1.);
#779=VECTOR('',#1258,1.);
#780=VECTOR('',#1263,1.);
#781=VECTOR('',#1264,1.);
#782=VECTOR('',#1269,1.);
#783=VECTOR('',#1270,1.);
#784=VECTOR('',#1271,1.);
#785=VECTOR('',#1272,1.);
#786=VECTOR('',#1275,1.);
#787=VECTOR('',#1278,1.);
#788=VECTOR('',#1281,1.);
#789=VECTOR('',#1284,1.);
#790=VECTOR('',#1287,1.);
#791=VECTOR('',#1290,1.);
#792=VECTOR('',#1293,1.);
#793=VECTOR('',#1296,1.);
#794=VECTOR('',#1299,1.);
#795=VECTOR('',#1302,1.);
#796=VECTOR('',#1305,1.);
#797=VECTOR('',#1308,1.);
#798=VECTOR('',#1313,1.);
#799=VECTOR('',#1314,1.);
#800=VECTOR('',#1315,1.);
#801=VECTOR('',#1316,1.);
#802=VECTOR('',#1317,1.);
#803=VECTOR('',#1320,1.);
#804=VECTOR('',#1321,1.);
#805=VECTOR('',#1324,1.);
#806=VECTOR('',#1325,1.);
#807=VECTOR('',#1326,1.);
#808=VECTOR('',#1329,1.);
#809=VECTOR('',#1332,1.);
#810=VECTOR('',#1335,1.);
#811=VECTOR('',#1338,1.);
#812=VECTOR('',#1341,1.);
#813=VECTOR('',#1344,1.);
#814=VECTOR('',#1347,1.);
#815=VECTOR('',#1350,1.);
#816=VECTOR('',#1353,1.);
#817=VECTOR('',#1356,1.);
#818=VECTOR('',#1359,1.);
#819=VECTOR('',#1364,1.);
#820=VECTOR('',#1365,1.);
#821=VECTOR('',#1368,1.);
#822=VECTOR('',#1369,1.);
#823=VECTOR('',#1370,1.);
#824=VECTOR('',#1371,1.);
#825=VECTOR('',#1374,1.);
#826=VECTOR('',#1375,1.);
#827=VECTOR('',#1378,1.);
#828=VECTOR('',#1383,1.);
#829=VECTOR('',#1384,1.);
#830=VECTOR('',#1387,1.);
#831=VECTOR('',#1388,1.);
#832=VECTOR('',#1391,1.);
#833=VECTOR('',#1392,1.);
#834=VECTOR('',#1395,1.);
#835=VECTOR('',#1396,1.);
#836=VECTOR('',#1399,1.);
#837=VECTOR('',#1400,1.);
#838=VECTOR('',#1403,1.);
#839=VECTOR('',#1404,1.);
#840=VECTOR('',#1407,1.);
#841=VECTOR('',#1408,1.);
#842=VECTOR('',#1411,1.);
#843=VECTOR('',#1412,1.);
#844=VECTOR('',#1415,1.);
#845=VECTOR('',#1416,1.);
#846=VECTOR('',#1447,1.);
#847=VECTOR('',#1448,1.);
#848=VECTOR('',#1451,1.);
#849=VECTOR('',#1452,1.);
#850=VECTOR('',#1455,1.);
#851=VECTOR('',#1458,1.);
#852=VECTOR('',#1459,1.);
#853=VECTOR('',#1462,1.);
#854=VECTOR('',#1463,1.);
#855=VECTOR('',#1466,1.);
#856=VECTOR('',#1501,1.);
#857=VECTOR('',#1506,1.);
#858=EDGE_LOOP('',(#66,#67,#68,#69,#70,#71,#72,#73));
#859=EDGE_LOOP('',(#74,#75,#76));
#860=EDGE_LOOP('',(#77,#78,#79,#80,#81,#82));
#861=EDGE_LOOP('',(#83,#84,#85));
#862=EDGE_LOOP('',(#86,#87,#88,#89));
#863=EDGE_LOOP('',(#90,#91,#92,#93,#94,#95,#96,#97));
#864=EDGE_LOOP('',(#98,#99,#100));
#865=EDGE_LOOP('',(#101,#102,#103,#104,#105,#106));
#866=EDGE_LOOP('',(#107,#108,#109));
#867=EDGE_LOOP('',(#110,#111,#112,#113));
#868=EDGE_LOOP('',(#114));
#869=EDGE_LOOP('',(#115,#116,#117,#118,#119,#120,#121,#122,#123,#124,#125,
#126,#127,#128,#129,#130,#131,#132,#133,#134,#135,#136,#137,#138,#139,#140,
#141,#142,#143,#144,#145,#146));
#870=EDGE_LOOP('',(#147));
#871=EDGE_LOOP('',(#148,#149,#150,#151,#152,#153,#154,#155));
#872=EDGE_LOOP('',(#156,#157,#158,#159));
#873=EDGE_LOOP('',(#160,#161,#162,#163,#164,#165,#166,#167,#168,#169,#170,
#171,#172,#173,#174,#175,#176,#177,#178,#179,#180,#181,#182,#183,#184,#185,
#186,#187,#188,#189,#190,#191));
#874=EDGE_LOOP('',(#192,#193,#194,#195));
#875=EDGE_LOOP('',(#196,#197,#198,#199,#200,#201,#202,#203));
#876=EDGE_LOOP('',(#204,#205,#206,#207));
#877=EDGE_LOOP('',(#208,#209,#210,#211));
#878=EDGE_LOOP('',(#212,#213,#214,#215));
#879=EDGE_LOOP('',(#216,#217,#218,#219));
#880=EDGE_LOOP('',(#220,#221,#222,#223));
#881=EDGE_LOOP('',(#224,#225,#226,#227));
#882=EDGE_LOOP('',(#228,#229,#230,#231));
#883=EDGE_LOOP('',(#232,#233,#234,#235));
#884=EDGE_LOOP('',(#236,#237,#238,#239));
#885=EDGE_LOOP('',(#240,#241,#242,#243));
#886=EDGE_LOOP('',(#244,#245,#246,#247));
#887=EDGE_LOOP('',(#248,#249,#250,#251));
#888=EDGE_LOOP('',(#252,#253,#254,#255));
#889=EDGE_LOOP('',(#256,#257,#258,#259));
#890=EDGE_LOOP('',(#260,#261,#262,#263));
#891=EDGE_LOOP('',(#264,#265,#266,#267));
#892=EDGE_LOOP('',(#268,#269,#270,#271));
#893=EDGE_LOOP('',(#272,#273,#274,#275));
#894=EDGE_LOOP('',(#276,#277,#278,#279));
#895=EDGE_LOOP('',(#280,#281,#282,#283));
#896=EDGE_LOOP('',(#284,#285,#286,#287));
#897=EDGE_LOOP('',(#288,#289,#290,#291));
#898=EDGE_LOOP('',(#292,#293,#294,#295));
#899=EDGE_LOOP('',(#296,#297,#298,#299));
#900=EDGE_LOOP('',(#300,#301,#302,#303));
#901=EDGE_LOOP('',(#304,#305,#306,#307));
#902=EDGE_LOOP('',(#308,#309,#310,#311));
#903=EDGE_LOOP('',(#312,#313,#314,#315));
#904=EDGE_LOOP('',(#316,#317,#318,#319));
#905=EDGE_LOOP('',(#320,#321,#322,#323));
#906=EDGE_LOOP('',(#324,#325,#326,#327));
#907=EDGE_LOOP('',(#328,#329,#330,#331));
#908=EDGE_LOOP('',(#332));
#909=EDGE_LOOP('',(#333));
#910=EDGE_LOOP('',(#334));
#911=EDGE_LOOP('',(#335));
#912=EDGE_LOOP('',(#336));
#913=EDGE_LOOP('',(#337));
#914=EDGE_LOOP('',(#338));
#915=EDGE_LOOP('',(#339));
#916=EDGE_LOOP('',(#340));
#917=EDGE_LOOP('',(#341));
#918=EDGE_LOOP('',(#342));
#919=EDGE_LOOP('',(#343));
#920=EDGE_LOOP('',(#344));
#921=EDGE_LOOP('',(#345));
#922=EDGE_LOOP('',(#346,#347,#348,#349));
#923=EDGE_LOOP('',(#350,#351,#352,#353));
#924=EDGE_LOOP('',(#354,#355,#356,#357));
#925=EDGE_LOOP('',(#358,#359,#360,#361));
#926=EDGE_LOOP('',(#362,#363,#364,#365));
#927=EDGE_LOOP('',(#366,#367,#368,#369));
#928=FACE_BOUND('',#858,.T.);
#929=FACE_BOUND('',#859,.T.);
#930=FACE_BOUND('',#860,.T.);
#931=FACE_BOUND('',#861,.T.);
#932=FACE_BOUND('',#862,.T.);
#933=FACE_BOUND('',#863,.T.);
#934=FACE_BOUND('',#864,.T.);
#935=FACE_BOUND('',#865,.T.);
#936=FACE_BOUND('',#866,.T.);
#937=FACE_BOUND('',#867,.T.);
#938=FACE_BOUND('',#868,.T.);
#939=FACE_BOUND('',#869,.T.);
#940=FACE_BOUND('',#870,.T.);
#941=FACE_BOUND('',#871,.T.);
#942=FACE_BOUND('',#872,.T.);
#943=FACE_BOUND('',#873,.T.);
#944=FACE_BOUND('',#874,.T.);
#945=FACE_BOUND('',#875,.T.);
#946=FACE_BOUND('',#876,.T.);
#947=FACE_BOUND('',#877,.T.);
#948=FACE_BOUND('',#878,.T.);
#949=FACE_BOUND('',#879,.T.);
#950=FACE_BOUND('',#880,.T.);
#951=FACE_BOUND('',#881,.T.);
#952=FACE_BOUND('',#882,.T.);
#953=FACE_BOUND('',#883,.T.);
#954=FACE_BOUND('',#884,.T.);
#955=FACE_BOUND('',#885,.T.);
#956=FACE_BOUND('',#886,.T.);
#957=FACE_BOUND('',#887,.T.);
#958=FACE_BOUND('',#888,.T.);
#959=FACE_BOUND('',#889,.T.);
#960=FACE_BOUND('',#890,.T.);
#961=FACE_BOUND('',#891,.T.);
#962=FACE_BOUND('',#892,.T.);
#963=FACE_BOUND('',#893,.T.);
#964=FACE_BOUND('',#894,.T.);
#965=FACE_BOUND('',#895,.T.);
#966=FACE_BOUND('',#896,.T.);
#967=FACE_BOUND('',#897,.T.);
#968=FACE_BOUND('',#898,.T.);
#969=FACE_BOUND('',#899,.T.);
#970=FACE_BOUND('',#900,.T.);
#971=FACE_BOUND('',#901,.T.);
#972=FACE_BOUND('',#902,.T.);
#973=FACE_BOUND('',#903,.T.);
#974=FACE_BOUND('',#904,.T.);
#975=FACE_BOUND('',#905,.T.);
#976=FACE_BOUND('',#906,.T.);
#977=FACE_BOUND('',#907,.T.);
#978=FACE_BOUND('',#908,.T.);
#979=FACE_BOUND('',#909,.T.);
#980=FACE_BOUND('',#910,.T.);
#981=FACE_BOUND('',#911,.T.);
#982=FACE_BOUND('',#912,.T.);
#983=FACE_BOUND('',#913,.T.);
#984=FACE_BOUND('',#914,.T.);
#985=FACE_BOUND('',#915,.T.);
#986=FACE_BOUND('',#916,.T.);
#987=FACE_BOUND('',#917,.T.);
#988=FACE_BOUND('',#918,.T.);
#989=FACE_BOUND('',#919,.T.);
#990=FACE_BOUND('',#920,.T.);
#991=FACE_BOUND('',#921,.T.);
#992=FACE_BOUND('',#922,.T.);
#993=FACE_BOUND('',#923,.T.);
#994=FACE_BOUND('',#924,.T.);
#995=FACE_BOUND('',#925,.T.);
#996=FACE_BOUND('',#926,.T.);
#997=FACE_BOUND('',#927,.T.);
#998=PLANE('',#1109);
#999=PLANE('',#1111);
#1000=PLANE('',#1114);
#1001=PLANE('',#1116);
#1002=PLANE('',#1119);
#1003=PLANE('',#1134);
#1004=PLANE('',#1135);
#1005=PLANE('',#1136);
#1006=PLANE('',#1149);
#1007=PLANE('',#1150);
#1008=PLANE('',#1151);
#1009=PLANE('',#1152);
#1010=PLANE('',#1153);
#1011=PLANE('',#1154);
#1012=PLANE('',#1155);
#1013=PLANE('',#1156);
#1014=PLANE('',#1157);
#1015=PLANE('',#1158);
#1016=PLANE('',#1159);
#1017=PLANE('',#1160);
#1018=PLANE('',#1161);
#1019=PLANE('',#1162);
#1020=PLANE('',#1175);
#1021=PLANE('',#1176);
#1022=PLANE('',#1177);
#1023=PLANE('',#1178);
#1024=PLANE('',#1179);
#1025=PLANE('',#1180);
#1026=PLANE('',#1181);
#1027=PLANE('',#1182);
#1028=PLANE('',#1185);
#1029=PLANE('',#1189);
#1030=PLANE('',#1193);
#1031=PLANE('',#1196);
#1032=PLANE('',#1197);
#1033=PLANE('',#1198);
#1034=PLANE('',#1199);
#1035=PLANE('',#1200);
#1036=PLANE('',#1201);
#1037=PLANE('',#1202);
#1038=ADVANCED_FACE('',(#928,#929),#998,.T.);
#1039=ADVANCED_FACE('',(#930,#931),#999,.F.);
#1040=ADVANCED_FACE('',(#932),#26,.F.);
#1041=ADVANCED_FACE('',(#933,#934),#1000,.T.);
#1042=ADVANCED_FACE('',(#935,#936),#1001,.T.);
#1043=ADVANCED_FACE('',(#937),#27,.F.);
#1044=ADVANCED_FACE('',(#938,#939,#940),#1002,.F.);
#1045=ADVANCED_FACE('',(#941),#1003,.T.);
#1046=ADVANCED_FACE('',(#942),#1004,.T.);
#1047=ADVANCED_FACE('',(#943),#1005,.T.);
#1048=ADVANCED_FACE('',(#944),#1006,.T.);
#1049=ADVANCED_FACE('',(#945),#1007,.T.);
#1050=ADVANCED_FACE('',(#946),#1008,.T.);
#1051=ADVANCED_FACE('',(#947),#1009,.F.);
#1052=ADVANCED_FACE('',(#948),#1010,.T.);
#1053=ADVANCED_FACE('',(#949),#1011,.T.);
#1054=ADVANCED_FACE('',(#950),#1012,.F.);
#1055=ADVANCED_FACE('',(#951),#1013,.T.);
#1056=ADVANCED_FACE('',(#952),#1014,.T.);
#1057=ADVANCED_FACE('',(#953),#1015,.T.);
#1058=ADVANCED_FACE('',(#954),#1016,.F.);
#1059=ADVANCED_FACE('',(#955),#1017,.F.);
#1060=ADVANCED_FACE('',(#956),#1018,.F.);
#1061=ADVANCED_FACE('',(#957),#1019,.T.);
#1062=ADVANCED_FACE('',(#958),#28,.F.);
#1063=ADVANCED_FACE('',(#959),#29,.F.);
#1064=ADVANCED_FACE('',(#960),#30,.F.);
#1065=ADVANCED_FACE('',(#961),#31,.F.);
#1066=ADVANCED_FACE('',(#962),#32,.F.);
#1067=ADVANCED_FACE('',(#963),#33,.F.);
#1068=ADVANCED_FACE('',(#964),#34,.T.);
#1069=ADVANCED_FACE('',(#965),#35,.T.);
#1070=ADVANCED_FACE('',(#966),#36,.T.);
#1071=ADVANCED_FACE('',(#967),#37,.T.);
#1072=ADVANCED_FACE('',(#968),#38,.T.);
#1073=ADVANCED_FACE('',(#969),#39,.T.);
#1074=ADVANCED_FACE('',(#970),#1020,.T.);
#1075=ADVANCED_FACE('',(#971),#1021,.T.);
#1076=ADVANCED_FACE('',(#972),#1022,.T.);
#1077=ADVANCED_FACE('',(#973),#1023,.T.);
#1078=ADVANCED_FACE('',(#974),#1024,.F.);
#1079=ADVANCED_FACE('',(#975),#1025,.F.);
#1080=ADVANCED_FACE('',(#976),#1026,.F.);
#1081=ADVANCED_FACE('',(#977),#1027,.T.);
#1082=ADVANCED_FACE('',(#978,#979),#40,.F.);
#1083=ADVANCED_FACE('',(#980,#981),#1028,.T.);
#1084=ADVANCED_FACE('',(#982,#983),#41,.F.);
#1085=ADVANCED_FACE('',(#984,#985),#1029,.T.);
#1086=ADVANCED_FACE('',(#986,#987),#42,.F.);
#1087=ADVANCED_FACE('',(#988),#1030,.F.);
#1088=ADVANCED_FACE('',(#989,#990),#43,.F.);
#1089=ADVANCED_FACE('',(#991),#1031,.F.);
#1090=ADVANCED_FACE('',(#992),#1032,.F.);
#1091=ADVANCED_FACE('',(#993),#1033,.T.);
#1092=ADVANCED_FACE('',(#994),#1034,.T.);
#1093=ADVANCED_FACE('',(#995),#1035,.F.);
#1094=ADVANCED_FACE('',(#996),#1036,.F.);
#1095=ADVANCED_FACE('',(#997),#1037,.T.);
#1096=CLOSED_SHELL('',(#1038,#1039,#1040,#1041,#1042,#1043,#1044,#1045,
#1046,#1047,#1048,#1049,#1050,#1051,#1052,#1053,#1054,#1055,#1056,#1057,
#1058,#1059,#1060,#1061,#1062,#1063,#1064,#1065,#1066,#1067,#1068,#1069,
#1070,#1071,#1072,#1073,#1074,#1075,#1076,#1077,#1078,#1079,#1080,#1081,
#1082,#1083,#1084,#1085,#1086,#1087,#1088,#1089,#1090,#1091,#1092,#1093,
#1094,#1095));
#1097=STYLED_ITEM('',(#1098),#1105);
#1098=PRESENTATION_STYLE_ASSIGNMENT((#1099));
#1099=SURFACE_STYLE_USAGE(.BOTH.,#1100);
#1100=SURFACE_SIDE_STYLE('',(#1101));
#1101=SURFACE_STYLE_FILL_AREA(#1102);
#1102=FILL_AREA_STYLE('',(#1103));
#1103=FILL_AREA_STYLE_COLOUR('',#1104);
#1104=COLOUR_RGB('',0.917647058823529,0.917647058823529,0.917647058823529);
#1105=MANIFOLD_SOLID_BREP('Bar L',#1096);
#1106=SHAPE_DEFINITION_REPRESENTATION(#1830,#1107);
#1107=SHAPE_REPRESENTATION('Bar L',(#1108),#1825);
#1108=AXIS2_PLACEMENT_3D('',#1509,#1203,#1204);
#1109=AXIS2_PLACEMENT_3D('',#1510,#1205,#1206);
#1110=AXIS2_PLACEMENT_3D('',#1532,#1217,#1218);
#1111=AXIS2_PLACEMENT_3D('',#1533,#1219,#1220);
#1112=AXIS2_PLACEMENT_3D('',#1549,#1228,#1229);
#1113=AXIS2_PLACEMENT_3D('',#1552,#1231,#1232);
#1114=AXIS2_PLACEMENT_3D('',#1555,#1235,#1236);
#1115=AXIS2_PLACEMENT_3D('',#1577,#1247,#1248);
#1116=AXIS2_PLACEMENT_3D('',#1578,#1249,#1250);
#1117=AXIS2_PLACEMENT_3D('',#1596,#1259,#1260);
#1118=AXIS2_PLACEMENT_3D('',#1597,#1261,#1262);
#1119=AXIS2_PLACEMENT_3D('',#1600,#1265,#1266);
#1120=AXIS2_PLACEMENT_3D('',#1601,#1267,#1268);
#1121=AXIS2_PLACEMENT_3D('',#1608,#1273,#1274);
#1122=AXIS2_PLACEMENT_3D('',#1612,#1276,#1277);
#1123=AXIS2_PLACEMENT_3D('',#1616,#1279,#1280);
#1124=AXIS2_PLACEMENT_3D('',#1620,#1282,#1283);
#1125=AXIS2_PLACEMENT_3D('',#1624,#1285,#1286);
#1126=AXIS2_PLACEMENT_3D('',#1628,#1288,#1289);
#1127=AXIS2_PLACEMENT_3D('',#1632,#1291,#1292);
#1128=AXIS2_PLACEMENT_3D('',#1636,#1294,#1295);
#1129=AXIS2_PLACEMENT_3D('',#1640,#1297,#1298);
#1130=AXIS2_PLACEMENT_3D('',#1644,#1300,#1301);
#1131=AXIS2_PLACEMENT_3D('',#1648,#1303,#1304);
#1132=AXIS2_PLACEMENT_3D('',#1652,#1306,#1307);
#1133=AXIS2_PLACEMENT_3D('',#1655,#1309,#1310);
#1134=AXIS2_PLACEMENT_3D('',#1657,#1311,#1312);
#1135=AXIS2_PLACEMENT_3D('',#1666,#1318,#1319);
#1136=AXIS2_PLACEMENT_3D('',#1669,#1322,#1323);
#1137=AXIS2_PLACEMENT_3D('',#1674,#1327,#1328);
#1138=AXIS2_PLACEMENT_3D('',#1678,#1330,#1331);
#1139=AXIS2_PLACEMENT_3D('',#1682,#1333,#1334);
#1140=AXIS2_PLACEMENT_3D('',#1686,#1336,#1337);
#1141=AXIS2_PLACEMENT_3D('',#1690,#1339,#1340);
#1142=AXIS2_PLACEMENT_3D('',#1694,#1342,#1343);
#1143=AXIS2_PLACEMENT_3D('',#1698,#1345,#1346);
#1144=AXIS2_PLACEMENT_3D('',#1702,#1348,#1349);
#1145=AXIS2_PLACEMENT_3D('',#1706,#1351,#1352);
#1146=AXIS2_PLACEMENT_3D('',#1710,#1354,#1355);
#1147=AXIS2_PLACEMENT_3D('',#1714,#1357,#1358);
#1148=AXIS2_PLACEMENT_3D('',#1718,#1360,#1361);
#1149=AXIS2_PLACEMENT_3D('',#1719,#1362,#1363);
#1150=AXIS2_PLACEMENT_3D('',#1722,#1366,#1367);
#1151=AXIS2_PLACEMENT_3D('',#1729,#1372,#1373);
#1152=AXIS2_PLACEMENT_3D('',#1732,#1376,#1377);
#1153=AXIS2_PLACEMENT_3D('',#1734,#1379,#1380);
#1154=AXIS2_PLACEMENT_3D('',#1735,#1381,#1382);
#1155=AXIS2_PLACEMENT_3D('',#1738,#1385,#1386);
#1156=AXIS2_PLACEMENT_3D('',#1741,#1389,#1390);
#1157=AXIS2_PLACEMENT_3D('',#1744,#1393,#1394);
#1158=AXIS2_PLACEMENT_3D('',#1747,#1397,#1398);
#1159=AXIS2_PLACEMENT_3D('',#1750,#1401,#1402);
#1160=AXIS2_PLACEMENT_3D('',#1753,#1405,#1406);
#1161=AXIS2_PLACEMENT_3D('',#1756,#1409,#1410);
#1162=AXIS2_PLACEMENT_3D('',#1759,#1413,#1414);
#1163=AXIS2_PLACEMENT_3D('',#1762,#1417,#1418);
#1164=AXIS2_PLACEMENT_3D('',#1763,#1419,#1420);
#1165=AXIS2_PLACEMENT_3D('',#1764,#1421,#1422);
#1166=AXIS2_PLACEMENT_3D('',#1765,#1423,#1424);
#1167=AXIS2_PLACEMENT_3D('',#1766,#1425,#1426);
#1168=AXIS2_PLACEMENT_3D('',#1767,#1427,#1428);
#1169=AXIS2_PLACEMENT_3D('',#1768,#1429,#1430);
#1170=AXIS2_PLACEMENT_3D('',#1769,#1431,#1432);
#1171=AXIS2_PLACEMENT_3D('',#1770,#1433,#1434);
#1172=AXIS2_PLACEMENT_3D('',#1771,#1435,#1436);
#1173=AXIS2_PLACEMENT_3D('',#1772,#1437,#1438);
#1174=AXIS2_PLACEMENT_3D('',#1773,#1439,#1440);
#1175=AXIS2_PLACEMENT_3D('',#1774,#1441,#1442);
#1176=AXIS2_PLACEMENT_3D('',#1775,#1443,#1444);
#1177=AXIS2_PLACEMENT_3D('',#1776,#1445,#1446);
#1178=AXIS2_PLACEMENT_3D('',#1780,#1449,#1450);
#1179=AXIS2_PLACEMENT_3D('',#1784,#1453,#1454);
#1180=AXIS2_PLACEMENT_3D('',#1786,#1456,#1457);
#1181=AXIS2_PLACEMENT_3D('',#1790,#1460,#1461);
#1182=AXIS2_PLACEMENT_3D('',#1794,#1464,#1465);
#1183=AXIS2_PLACEMENT_3D('',#1796,#1467,#1468);
#1184=AXIS2_PLACEMENT_3D('',#1797,#1469,#1470);
#1185=AXIS2_PLACEMENT_3D('',#1799,#1471,#1472);
#1186=AXIS2_PLACEMENT_3D('',#1800,#1473,#1474);
#1187=AXIS2_PLACEMENT_3D('',#1802,#1475,#1476);
#1188=AXIS2_PLACEMENT_3D('',#1803,#1477,#1478);
#1189=AXIS2_PLACEMENT_3D('',#1805,#1479,#1480);
#1190=AXIS2_PLACEMENT_3D('',#1806,#1481,#1482);
#1191=AXIS2_PLACEMENT_3D('',#1808,#1483,#1484);
#1192=AXIS2_PLACEMENT_3D('',#1809,#1485,#1486);
#1193=AXIS2_PLACEMENT_3D('',#1811,#1487,#1488);
#1194=AXIS2_PLACEMENT_3D('',#1812,#1489,#1490);
#1195=AXIS2_PLACEMENT_3D('',#1813,#1491,#1492);
#1196=AXIS2_PLACEMENT_3D('',#1815,#1493,#1494);
#1197=AXIS2_PLACEMENT_3D('',#1816,#1495,#1496);
#1198=AXIS2_PLACEMENT_3D('',#1817,#1497,#1498);
#1199=AXIS2_PLACEMENT_3D('',#1818,#1499,#1500);
#1200=AXIS2_PLACEMENT_3D('',#1820,#1502,#1503);
#1201=AXIS2_PLACEMENT_3D('',#1821,#1504,#1505);
#1202=AXIS2_PLACEMENT_3D('',#1823,#1507,#1508);
#1203=DIRECTION('',(0.,0.,1.));
#1204=DIRECTION('',(1.,0.,0.));
#1205=DIRECTION('',(-1.,0.,0.));
#1206=DIRECTION('',(0.,-1.,-1.22464679914735E-16));
#1207=DIRECTION('',(0.,3.15211732801047E-16,-1.));
#1208=DIRECTION('',(0.,-0.707106781186548,0.707106781186548));
#1209=DIRECTION('',(0.,-1.79527952150814E-16,1.));
#1210=DIRECTION('',(0.,1.,1.22464679914735E-16));
#1211=DIRECTION('',(0.,3.15211732801047E-16,-1.));
#1212=DIRECTION('',(0.,-1.,-1.22464679914735E-16));
#1213=DIRECTION('',(0.,-1.22464679914735E-16,1.));
#1214=DIRECTION('',(0.,-0.998629534754574,0.0523359562429437));
#1215=DIRECTION('',(0.,0.707106781186548,-0.707106781186548));
#1216=DIRECTION('',(0.,-0.707106781186548,-0.707106781186548));
#1217=DIRECTION('',(1.,0.,0.));
#1218=DIRECTION('',(0.,-1.22464679914735E-16,1.));
#1219=DIRECTION('',(-1.,0.,0.));
#1220=DIRECTION('',(0.,1.22464679914735E-16,-1.));
#1221=DIRECTION('',(0.,1.22464679914735E-16,-1.));
#1222=DIRECTION('',(0.,-1.,-1.22464679914735E-16));
#1223=DIRECTION('',(0.,-1.22464679914735E-16,1.));
#1224=DIRECTION('',(0.,-1.,-1.22464679914735E-16));
#1225=DIRECTION('',(0.,-1.22464679914735E-16,1.));
#1226=DIRECTION('',(0.,-0.998629534754574,0.0523359562429437));
#1227=DIRECTION('',(0.,-0.707106781186548,0.707106781186548));
#1228=DIRECTION('',(1.,0.,0.));
#1229=DIRECTION('',(0.,-1.22464679914735E-16,1.));
#1230=DIRECTION('',(0.,0.707106781186548,0.707106781186548));
#1231=DIRECTION('',(1.,0.,0.));
#1232=DIRECTION('',(0.,1.22464679914735E-16,-1.));
#1233=DIRECTION('',(-1.,0.,0.));
#1234=DIRECTION('',(-1.,0.,0.));
#1235=DIRECTION('',(1.,0.,0.));
#1236=DIRECTION('',(0.,-1.,-1.22464679914735E-16));
#1237=DIRECTION('',(0.,-3.15211732801047E-16,1.));
#1238=DIRECTION('',(0.,1.,1.22464679914735E-16));
#1239=DIRECTION('',(0.,-1.79527952150814E-16,1.));
#1240=DIRECTION('',(0.,-0.707106781186548,0.707106781186548));
#1241=DIRECTION('',(0.,-3.15211732801047E-16,1.));
#1242=DIRECTION('',(0.,-0.998629534754574,0.0523359562429437));
#1243=DIRECTION('',(0.,1.22464679914735E-16,-1.));
#1244=DIRECTION('',(0.,1.,1.22464679914735E-16));
#1245=DIRECTION('',(0.,-0.707106781186548,-0.707106781186548));
#1246=DIRECTION('',(0.,0.707106781186548,-0.707106781186548));
#1247=DIRECTION('',(1.,0.,0.));
#1248=DIRECTION('',(0.,-1.22464679914735E-16,1.));
#1249=DIRECTION('',(-1.,0.,0.));
#1250=DIRECTION('',(0.,1.22464679914735E-16,-1.));
#1251=DIRECTION('',(0.,1.22464679914735E-16,-1.));
#1252=DIRECTION('',(0.,-0.998629534754574,0.0523359562429437));
#1253=DIRECTION('',(0.,-1.22464679914735E-16,1.));
#1254=DIRECTION('',(0.,-1.,-1.22464679914735E-16));
#1255=DIRECTION('',(0.,-1.22464679914735E-16,1.));
#1256=DIRECTION('',(0.,-1.,-1.22464679914735E-16));
#1257=DIRECTION('',(0.,0.707106781186548,-0.707106781186548));
#1258=DIRECTION('',(0.,-0.707106781186548,-0.707106781186548));
#1259=DIRECTION('',(1.,0.,0.));
#1260=DIRECTION('',(0.,-1.22464679914735E-16,1.));
#1261=DIRECTION('',(-1.,0.,0.));
#1262=DIRECTION('',(0.,1.22464679914735E-16,-1.));
#1263=DIRECTION('',(-1.,0.,0.));
#1264=DIRECTION('',(-1.,0.,0.));
#1265=DIRECTION('',(0.,-0.0523359562429437,-0.998629534754574));
#1266=DIRECTION('',(1.,0.,0.));
#1267=DIRECTION('',(0.,0.0523359562429437,0.998629534754574));
#1268=DIRECTION('',(0.,-0.998629534754574,0.0523359562429437));
#1269=DIRECTION('',(-1.,0.,0.));
#1270=DIRECTION('',(1.,0.,0.));
#1271=DIRECTION('',(-1.,0.,0.));
#1272=DIRECTION('',(1.,0.,0.));
#1273=DIRECTION('',(0.,-0.0523359562429437,-0.998629534754574));
#1274=DIRECTION('',(0.,-0.998629534754574,0.0523359562429437));
#1275=DIRECTION('',(0.,-0.998629534754574,0.0523359562429437));
#1276=DIRECTION('',(0.,-0.0523359562429437,-0.998629534754574));
#1277=DIRECTION('',(0.,-0.998629534754574,0.0523359562429437));
#1278=DIRECTION('',(-1.,3.52365706057788E-16,-1.84667041499895E-17));
#1279=DIRECTION('',(0.,-0.0523359562429437,-0.998629534754574));
#1280=DIRECTION('',(0.,0.998629534754574,-0.0523359562429437));
#1281=DIRECTION('',(0.,-0.998629534754574,0.0523359562429437));
#1282=DIRECTION('',(0.,-0.0523359562429437,-0.998629534754574));
#1283=DIRECTION('',(0.,0.998629534754574,-0.0523359562429437));
#1284=DIRECTION('',(1.,0.,0.));
#1285=DIRECTION('',(0.,-0.0523359562429437,-0.998629534754574));
#1286=DIRECTION('',(0.,-0.998629534754574,0.0523359562429437));
#1287=DIRECTION('',(0.,-0.998629534754574,0.0523359562429437));
#1288=DIRECTION('',(0.,-0.0523359562429437,-0.998629534754574));
#1289=DIRECTION('',(-4.65579848715391E-16,0.998629534754574,-0.0523359562429437));
#1290=DIRECTION('',(1.,7.35162878910086E-16,-3.85282538950048E-17));
#1291=DIRECTION('',(0.,-0.0523359562429437,-0.998629534754574));
#1292=DIRECTION('',(4.65579848715391E-16,-0.998629534754574,0.0523359562429437));
#1293=DIRECTION('',(0.,-0.998629534754574,0.0523359562429437));
#1294=DIRECTION('',(0.,-0.0523359562429437,-0.998629534754574));
#1295=DIRECTION('',(0.,0.998629534754574,-0.0523359562429437));
#1296=DIRECTION('',(1.,0.,0.));
#1297=DIRECTION('',(0.,-0.0523359562429437,-0.998629534754574));
#1298=DIRECTION('',(0.,-0.998629534754574,0.0523359562429437));
#1299=DIRECTION('',(0.,-0.998629534754574,0.0523359562429437));
#1300=DIRECTION('',(0.,-0.0523359562429437,-0.998629534754574));
#1301=DIRECTION('',(0.,0.998629534754574,-0.0523359562429437));
#1302=DIRECTION('',(1.,7.31836466427715E-16,-3.83539240038244E-17));
#1303=DIRECTION('',(0.,-0.0523359562429437,-0.998629534754574));
#1304=DIRECTION('',(0.,-0.998629534754574,0.0523359562429437));
#1305=DIRECTION('',(0.,-0.998629534754574,0.0523359562429437));
#1306=DIRECTION('',(0.,-0.0523359562429437,-0.998629534754574));
#1307=DIRECTION('',(0.,0.998629534754574,-0.0523359562429437));
#1308=DIRECTION('',(1.,0.,0.));
#1309=DIRECTION('',(0.,-0.0523359562429437,-0.998629534754574));
#1310=DIRECTION('',(0.,-0.998629534754574,0.0523359562429437));
#1311=DIRECTION('',(0.,-1.,-3.15211732801047E-16));
#1312=DIRECTION('',(0.,3.15211732801047E-16,-1.));
#1313=DIRECTION('',(1.,0.,0.));
#1314=DIRECTION('',(0.,-3.15211732801047E-16,1.));
#1315=DIRECTION('',(-1.,0.,0.));
#1316=DIRECTION('',(1.,0.,0.));
#1317=DIRECTION('',(0.,3.15211732801047E-16,-1.));
#1318=DIRECTION('',(0.,-1.,-1.22464679914735E-16));
#1319=DIRECTION('',(0.,1.22464679914735E-16,-1.));
#1320=DIRECTION('',(1.,0.,0.));
#1321=DIRECTION('',(1.,0.,0.));
#1322=DIRECTION('',(0.,-1.22464679914735E-16,1.));
#1323=DIRECTION('',(-1.,0.,0.));
#1324=DIRECTION('',(-1.,0.,0.));
#1325=DIRECTION('',(-1.,0.,0.));
#1326=DIRECTION('',(1.,0.,0.));
#1327=DIRECTION('',(0.,-1.22464679914735E-16,1.));
#1328=DIRECTION('',(-1.,0.,0.));
#1329=DIRECTION('',(0.,1.,1.22464679914735E-16));
#1330=DIRECTION('',(0.,-1.22464679914735E-16,1.));
#1331=DIRECTION('',(-1.,0.,0.));
#1332=DIRECTION('',(-1.,-7.31836466427715E-16,-8.9624118611001E-32));
#1333=DIRECTION('',(0.,-1.22464679914735E-16,1.));
#1334=DIRECTION('',(-1.,0.,0.));
#1335=DIRECTION('',(0.,1.,1.22464679914735E-16));
#1336=DIRECTION('',(0.,-1.22464679914735E-16,1.));
#1337=DIRECTION('',(-1.,0.,0.));
#1338=DIRECTION('',(1.,0.,0.));
#1339=DIRECTION('',(0.,-1.22464679914735E-16,1.));
#1340=DIRECTION('',(-1.,0.,0.));
#1341=DIRECTION('',(0.,1.,1.22464679914735E-16));
#1342=DIRECTION('',(0.,-1.22464679914735E-16,1.));
#1343=DIRECTION('',(7.43452918275775E-16,-1.,-1.22464679914735E-16));
#1344=DIRECTION('',(-1.,-7.31880670534099E-16,1.01244048890996E-18));
#1345=DIRECTION('',(0.,-1.22464679914735E-16,1.));
#1346=DIRECTION('',(-7.43452918275775E-16,1.,1.22464679914735E-16));
#1347=DIRECTION('',(0.,1.,1.22464679914735E-16));
#1348=DIRECTION('',(0.,-1.22464679914735E-16,1.));
#1349=DIRECTION('',(-1.,0.,0.));
#1350=DIRECTION('',(1.,0.,0.));
#1351=DIRECTION('',(0.,-1.22464679914735E-16,1.));
#1352=DIRECTION('',(-1.,0.,0.));
#1353=DIRECTION('',(0.,1.,1.22464679914735E-16));
#1354=DIRECTION('',(0.,-1.22464679914735E-16,1.));
#1355=DIRECTION('',(-1.,0.,0.));
#1356=DIRECTION('',(1.,-3.52365706057788E-16,-4.31523534052968E-32));
#1357=DIRECTION('',(0.,-1.22464679914735E-16,1.));
#1358=DIRECTION('',(-1.,0.,0.));
#1359=DIRECTION('',(0.,1.,1.22464679914735E-16));
#1360=DIRECTION('',(0.,-1.22464679914735E-16,1.));
#1361=DIRECTION('',(-1.,0.,0.));
#1362=DIRECTION('',(0.,-1.,-3.15211732801047E-16));
#1363=DIRECTION('',(0.,3.15211732801047E-16,-1.));
#1364=DIRECTION('',(0.,3.15211732801047E-16,-1.));
#1365=DIRECTION('',(0.,3.15211732801047E-16,-1.));
#1366=DIRECTION('',(0.,-1.,-3.15211732801047E-16));
#1367=DIRECTION('',(0.,3.15211732801047E-16,-1.));
#1368=DIRECTION('',(0.,-3.15211732801047E-16,1.));
#1369=DIRECTION('',(1.,0.,0.));
#1370=DIRECTION('',(0.,3.15211732801047E-16,-1.));
#1371=DIRECTION('',(1.,0.,0.));
#1372=DIRECTION('',(0.,-1.,-3.15211732801047E-16));
#1373=DIRECTION('',(0.,3.15211732801047E-16,-1.));
#1374=DIRECTION('',(0.,3.15211732801047E-16,-1.));
#1375=DIRECTION('',(0.,3.15211732801047E-16,-1.));
#1376=DIRECTION('',(0.,-1.,-1.22464679914735E-16));
#1377=DIRECTION('',(0.,1.22464679914735E-16,-1.));
#1378=DIRECTION('',(1.,0.,0.));
#1379=DIRECTION('',(0.,1.22464679914735E-16,-1.));
#1380=DIRECTION('',(1.,0.,0.));
#1381=DIRECTION('',(-1.,0.,0.));
#1382=DIRECTION('',(0.,1.22464679914735E-16,-1.));
#1383=DIRECTION('',(0.,3.15211732801047E-16,-1.));
#1384=DIRECTION('',(-6.47961912902391E-17,0.0871557427476583,-0.996194698091746));
#1385=DIRECTION('',(-1.,0.,0.));
#1386=DIRECTION('',(0.,1.22464679914735E-16,-1.));
#1387=DIRECTION('',(0.,3.15211732801047E-16,-1.));
#1388=DIRECTION('',(-6.47961912902391E-17,0.0871557427476583,-0.996194698091746));
#1389=DIRECTION('',(7.29007403619103E-16,-0.996194698091746,-0.0871557427476583));
#1390=DIRECTION('',(-1.,-7.31880670534099E-16,1.01244048890996E-18));
#1391=DIRECTION('',(-6.47961912902391E-17,0.0871557427476583,-0.996194698091746));
#1392=DIRECTION('',(-6.47961912902391E-17,0.0871557427476583,-0.996194698091746));
#1393=DIRECTION('',(7.31836466427715E-16,-1.,-1.22464679914735E-16));
#1394=DIRECTION('',(-1.,-7.31836466427715E-16,-8.9624118611001E-32));
#1395=DIRECTION('',(0.,1.22464679914735E-16,-1.));
#1396=DIRECTION('',(0.,1.22464679914735E-16,-1.));
#1397=DIRECTION('',(-1.,0.,0.));
#1398=DIRECTION('',(0.,1.22464679914735E-16,-1.));
#1399=DIRECTION('',(0.,3.15211732801047E-16,-1.));
#1400=DIRECTION('',(0.,1.22464679914735E-16,-1.));
#1401=DIRECTION('',(-1.,0.,0.));
#1402=DIRECTION('',(0.,1.22464679914735E-16,-1.));
#1403=DIRECTION('',(0.,3.15211732801047E-16,-1.));
#1404=DIRECTION('',(0.,1.22464679914735E-16,-1.));
#1405=DIRECTION('',(-1.,0.,0.));
#1406=DIRECTION('',(0.,1.22464679914735E-16,-1.));
#1407=DIRECTION('',(0.,3.15211732801047E-16,-1.));
#1408=DIRECTION('',(0.,1.22464679914735E-16,-1.));
#1409=DIRECTION('',(3.52365706057788E-16,1.,1.22464679914735E-16));
#1410=DIRECTION('',(1.,-3.52365706057788E-16,-4.31523534052968E-32));
#1411=DIRECTION('',(0.,1.22464679914735E-16,-1.));
#1412=DIRECTION('',(0.,1.22464679914735E-16,-1.));
#1413=DIRECTION('',(-1.,0.,0.));
#1414=DIRECTION('',(0.,1.22464679914735E-16,-1.));
#1415=DIRECTION('',(0.,3.15211732801047E-16,-1.));
#1416=DIRECTION('',(0.,1.22464679914735E-16,-1.));
#1417=DIRECTION('',(0.,3.15211732801047E-16,-1.));
#1418=DIRECTION('',(0.,1.,3.15211732801047E-16));
#1419=DIRECTION('',(0.,-3.15211732801047E-16,1.));
#1420=DIRECTION('',(0.,-1.,-3.15211732801047E-16));
#1421=DIRECTION('',(0.,-3.15211732801047E-16,1.));
#1422=DIRECTION('',(0.,-1.,-3.15211732801047E-16));
#1423=DIRECTION('',(0.,3.15211732801047E-16,-1.));
#1424=DIRECTION('',(0.,1.,3.15211732801047E-16));
#1425=DIRECTION('',(0.,-3.15211732801047E-16,1.));
#1426=DIRECTION('',(0.,-1.,-3.15211732801047E-16));
#1427=DIRECTION('',(0.,3.15211732801047E-16,-1.));
#1428=DIRECTION('',(0.,1.,3.15211732801047E-16));
#1429=DIRECTION('',(0.,1.22464679914735E-16,-1.));
#1430=DIRECTION('',(1.,0.,0.));
#1431=DIRECTION('',(0.,-1.22464679914735E-16,1.));
#1432=DIRECTION('',(-1.,0.,0.));
#1433=DIRECTION('',(0.,1.22464679914735E-16,-1.));
#1434=DIRECTION('',(1.,0.,0.));
#1435=DIRECTION('',(0.,-1.22464679914735E-16,1.));
#1436=DIRECTION('',(-1.,0.,0.));
#1437=DIRECTION('',(-6.47961912902391E-17,0.0871557427476583,-0.996194698091746));
#1438=DIRECTION('',(1.,2.82906280861215E-18,-6.47961912902391E-17));
#1439=DIRECTION('',(6.47961912902391E-17,-0.0871557427476583,0.996194698091746));
#1440=DIRECTION('',(-1.,-2.82906280861215E-18,6.47961912902391E-17));
#1441=DIRECTION('',(0.,-1.,-1.22464679914735E-16));
#1442=DIRECTION('',(-1.,0.,0.));
#1443=DIRECTION('',(0.,-1.,-1.22464679914735E-16));
#1444=DIRECTION('',(-1.,0.,0.));
#1445=DIRECTION('',(0.,-1.22464679914735E-16,1.));
#1446=DIRECTION('',(-1.,0.,0.));
#1447=DIRECTION('',(0.,1.,1.22464679914735E-16));
#1448=DIRECTION('',(-1.,0.,0.));
#1449=DIRECTION('',(0.,-1.,-1.79527952150814E-16));
#1450=DIRECTION('',(0.,1.79527952150814E-16,-1.));
#1451=DIRECTION('',(0.,-1.79527952150814E-16,1.));
#1452=DIRECTION('',(-1.,0.,0.));
#1453=DIRECTION('',(1.,0.,0.));
#1454=DIRECTION('',(0.,-1.,-1.22464679914735E-16));
#1455=DIRECTION('',(0.,0.707106781186548,-0.707106781186548));
#1456=DIRECTION('',(0.,1.22464679914735E-16,-1.));
#1457=DIRECTION('',(1.,0.,0.));
#1458=DIRECTION('',(1.,0.,0.));
#1459=DIRECTION('',(0.,1.,1.22464679914735E-16));
#1460=DIRECTION('',(0.,1.,1.79527952150814E-16));
#1461=DIRECTION('',(0.,-1.79527952150814E-16,1.));
#1462=DIRECTION('',(1.,0.,0.));
#1463=DIRECTION('',(0.,-1.79527952150814E-16,1.));
#1464=DIRECTION('',(1.,0.,0.));
#1465=DIRECTION('',(0.,-1.,-1.22464679914735E-16));
#1466=DIRECTION('',(0.,0.707106781186548,-0.707106781186548));
#1467=DIRECTION('',(0.,0.0523359562429437,0.998629534754574));
#1468=DIRECTION('',(0.,-0.998629534754574,0.0523359562429437));
#1469=DIRECTION('',(0.,-0.0523359562429437,-0.998629534754574));
#1470=DIRECTION('',(0.,-0.998629534754574,0.0523359562429437));
#1471=DIRECTION('',(0.,0.0523359562429437,0.998629534754574));
#1472=DIRECTION('',(1.,0.,0.));
#1473=DIRECTION('',(0.,0.0523359562429437,0.998629534754574));
#1474=DIRECTION('',(0.,-0.998629534754574,0.0523359562429437));
#1475=DIRECTION('',(0.,0.0523359562429437,0.998629534754574));
#1476=DIRECTION('',(0.,-0.998629534754574,0.0523359562429437));
#1477=DIRECTION('',(0.,0.0523359562429437,0.998629534754574));
#1478=DIRECTION('',(0.,-0.998629534754574,0.0523359562429437));
#1479=DIRECTION('',(0.,0.0523359562429437,0.998629534754574));
#1480=DIRECTION('',(1.,0.,0.));
#1481=DIRECTION('',(0.,0.0523359562429437,0.998629534754574));
#1482=DIRECTION('',(0.,-0.998629534754574,0.0523359562429437));
#1483=DIRECTION('',(0.,0.0523359562429437,0.998629534754574));
#1484=DIRECTION('',(0.,-0.998629534754574,0.0523359562429437));
#1485=DIRECTION('',(0.,0.0523359562429437,0.998629534754574));
#1486=DIRECTION('',(0.,-0.998629534754574,0.0523359562429437));
#1487=DIRECTION('',(0.,-0.0523359562429437,-0.998629534754574));
#1488=DIRECTION('',(1.,0.,0.));
#1489=DIRECTION('',(0.,0.0523359562429437,0.998629534754574));
#1490=DIRECTION('',(0.,-0.998629534754574,0.0523359562429437));
#1491=DIRECTION('',(0.,0.0523359562429437,0.998629534754574));
#1492=DIRECTION('',(0.,-0.998629534754574,0.0523359562429437));
#1493=DIRECTION('',(0.,-0.0523359562429437,-0.998629534754574));
#1494=DIRECTION('',(1.,0.,0.));
#1495=DIRECTION('',(0.,0.707106781186548,0.707106781186548));
#1496=DIRECTION('',(1.,0.,0.));
#1497=DIRECTION('',(0.,-0.707106781186548,-0.707106781186548));
#1498=DIRECTION('',(1.,0.,0.));
#1499=DIRECTION('',(0.,0.707106781186548,-0.707106781186547));
#1500=DIRECTION('',(0.,0.707106781186548,0.707106781186548));
#1501=DIRECTION('',(-1.,0.,0.));
#1502=DIRECTION('',(0.,0.707106781186547,0.707106781186548));
#1503=DIRECTION('',(0.,-0.707106781186548,0.707106781186548));
#1504=DIRECTION('',(0.,0.707106781186548,0.707106781186548));
#1505=DIRECTION('',(0.,-0.707106781186548,0.707106781186548));
#1506=DIRECTION('',(-1.,0.,0.));
#1507=DIRECTION('',(0.,0.707106781186548,-0.707106781186548));
#1508=DIRECTION('',(0.,0.707106781186548,0.707106781186548));
#1509=CARTESIAN_POINT('',(0.,0.,0.));
#1510=CARTESIAN_POINT('',(0.2968,-0.004,-0.006));
#1511=CARTESIAN_POINT('',(0.2968,-0.002,-0.0045));
#1512=CARTESIAN_POINT('',(0.2968,-0.002,0.000104815558566083));
#1513=CARTESIAN_POINT('',(0.2968,-0.002,-0.00205));
#1514=CARTESIAN_POINT('',(0.2968,-0.002,-0.00205));
#1515=CARTESIAN_POINT('',(0.2968,-0.0009,-0.00315));
#1516=CARTESIAN_POINT('',(0.2968,-0.0009,-0.006));
#1517=CARTESIAN_POINT('',(0.2968,-0.0009,-0.00885));
#1518=CARTESIAN_POINT('',(0.2968,-0.00375,-0.00885));
#1519=CARTESIAN_POINT('',(0.2968,-0.002,-0.00885));
#1520=CARTESIAN_POINT('',(0.2968,-0.002,-0.0045));
#1521=CARTESIAN_POINT('',(0.2968,-0.002,-0.009));
#1522=CARTESIAN_POINT('',(0.2968,-0.005,-0.009));
#1523=CARTESIAN_POINT('',(0.2968,-0.007,-0.009));
#1524=CARTESIAN_POINT('',(0.2968,-0.007,-0.006));
#1525=CARTESIAN_POINT('',(0.2968,-0.007,0.000366854454981287));
#1526=CARTESIAN_POINT('',(0.2968,-0.00399451813901829,0.000209343824971775));
#1527=CARTESIAN_POINT('',(0.2968,-0.0031666369055211,-0.00424991071656329));
#1528=CARTESIAN_POINT('',(0.2968,-0.00375,-0.0036665476220844));
#1529=CARTESIAN_POINT('',(0.2968,-0.00258327381104219,-0.0048332738110422));
#1530=CARTESIAN_POINT('',(0.2968,-0.0043333630944789,-0.00424991071656329));
#1531=CARTESIAN_POINT('',(0.2968,-0.0049167261889578,-0.0048332738110422));
#1532=CARTESIAN_POINT('',(0.2968,-0.00375,-0.006));
#1533=CARTESIAN_POINT('',(0.3048,-0.004,-0.012));
#1534=CARTESIAN_POINT('',(0.3048,-0.007,-0.0045));
#1535=CARTESIAN_POINT('',(0.3048,-0.007,0.000366854454981287));
#1536=CARTESIAN_POINT('',(0.3048,-0.007,-0.009));
#1537=CARTESIAN_POINT('',(0.3048,-0.007,-0.009));
#1538=CARTESIAN_POINT('',(0.3048,-0.008,-0.009));
#1539=CARTESIAN_POINT('',(0.3048,-0.008,-0.012));
#1540=CARTESIAN_POINT('',(0.3048,-0.008,-0.012));
#1541=CARTESIAN_POINT('',(0.3048,-0.004,-0.012));
#1542=CARTESIAN_POINT('',(0.3048,1.46957615897682E-18,-0.012));
#1543=CARTESIAN_POINT('',(0.3048,1.46957615897682E-18,-0.012));
#1544=CARTESIAN_POINT('',(0.3048,0.,0.));
#1545=CARTESIAN_POINT('',(0.3048,-0.00399451813901829,0.000209343824971775));
#1546=CARTESIAN_POINT('',(0.3048,-0.0031666369055211,-0.00424991071656329));
#1547=CARTESIAN_POINT('',(0.3048,-0.00258327381104219,-0.0048332738110422));
#1548=CARTESIAN_POINT('',(0.3048,-0.00375,-0.0036665476220844));
#1549=CARTESIAN_POINT('',(0.3048,-0.00375,-0.006));
#1550=CARTESIAN_POINT('',(0.3048,-0.0049167261889578,-0.0048332738110422));
#1551=CARTESIAN_POINT('',(0.3048,-0.0043333630944789,-0.00424991071656329));
#1552=CARTESIAN_POINT('',(0.2968,-0.00375,-0.006));
#1553=CARTESIAN_POINT('',(0.304802,-0.0049167261889578,-0.0048332738110422));
#1554=CARTESIAN_POINT('',(0.304802,-0.00258327381104219,-0.0048332738110422));
#1555=CARTESIAN_POINT('',(0.008,-0.004,-0.006));
#1556=CARTESIAN_POINT('',(0.008,-0.002,-0.0045));
#1557=CARTESIAN_POINT('',(0.008,-0.002,-0.009));
#1558=CARTESIAN_POINT('',(0.008,-0.002,-0.00885));
#1559=CARTESIAN_POINT('',(0.008,-0.00375,-0.00885));
#1560=CARTESIAN_POINT('',(0.008,-0.0009,-0.00885));
#1561=CARTESIAN_POINT('',(0.008,-0.0009,-0.006));
#1562=CARTESIAN_POINT('',(0.008,-0.0009,-0.00315));
#1563=CARTESIAN_POINT('',(0.008,-0.0009,-0.00315));
#1564=CARTESIAN_POINT('',(0.008,-0.002,-0.00205));
#1565=CARTESIAN_POINT('',(0.008,-0.002,-0.0045));
#1566=CARTESIAN_POINT('',(0.008,-0.002,0.000104815558566083));
#1567=CARTESIAN_POINT('',(0.008,-0.00399451813901829,0.000209343824971775));
#1568=CARTESIAN_POINT('',(0.008,-0.007,0.000366854454981287));
#1569=CARTESIAN_POINT('',(0.008,-0.007,-0.006));
#1570=CARTESIAN_POINT('',(0.008,-0.007,-0.009));
#1571=CARTESIAN_POINT('',(0.008,-0.005,-0.009));
#1572=CARTESIAN_POINT('',(0.008,-0.0043333630944789,-0.00424991071656329));
#1573=CARTESIAN_POINT('',(0.008,-0.00375,-0.0036665476220844));
#1574=CARTESIAN_POINT('',(0.008,-0.0049167261889578,-0.0048332738110422));
#1575=CARTESIAN_POINT('',(0.008,-0.0031666369055211,-0.00424991071656329));
#1576=CARTESIAN_POINT('',(0.008,-0.00258327381104219,-0.0048332738110422));
#1577=CARTESIAN_POINT('',(0.008,-0.00375,-0.006));
#1578=CARTESIAN_POINT('',(0.,-0.004,-0.012));
#1579=CARTESIAN_POINT('',(0.,-0.007,-0.0045));
#1580=CARTESIAN_POINT('',(0.,-0.007,0.000366854454981287));
#1581=CARTESIAN_POINT('',(0.,-0.007,-0.009));
#1582=CARTESIAN_POINT('',(0.,-0.00399451813901829,0.000209343824971775));
#1583=CARTESIAN_POINT('',(0.,0.,0.));
#1584=CARTESIAN_POINT('',(0.,1.46957615897682E-18,-0.012));
#1585=CARTESIAN_POINT('',(0.,1.46957615897682E-18,-0.012));
#1586=CARTESIAN_POINT('',(0.,-0.004,-0.012));
#1587=CARTESIAN_POINT('',(0.,-0.008,-0.012));
#1588=CARTESIAN_POINT('',(0.,-0.008,-0.012));
#1589=CARTESIAN_POINT('',(0.,-0.008,-0.009));
#1590=CARTESIAN_POINT('',(0.,-0.007,-0.009));
#1591=CARTESIAN_POINT('',(0.,-0.0031666369055211,-0.00424991071656329));
#1592=CARTESIAN_POINT('',(0.,-0.00375,-0.0036665476220844));
#1593=CARTESIAN_POINT('',(0.,-0.00258327381104219,-0.0048332738110422));
#1594=CARTESIAN_POINT('',(0.,-0.0043333630944789,-0.00424991071656329));
#1595=CARTESIAN_POINT('',(0.,-0.0049167261889578,-0.0048332738110422));
#1596=CARTESIAN_POINT('',(0.,-0.00375,-0.006));
#1597=CARTESIAN_POINT('',(0.008,-0.00375,-0.006));
#1598=CARTESIAN_POINT('',(0.008002,-0.00258327381104219,-0.0048332738110422));
#1599=CARTESIAN_POINT('',(0.008002,-0.0049167261889578,-0.0048332738110422));
#1600=CARTESIAN_POINT('',(0.1524,-0.00399451813901829,0.000209343824971775));
#1601=CARTESIAN_POINT('',(0.1584,-0.00359506632511647,0.000188409442474597));
#1602=CARTESIAN_POINT('',(0.1584,-0.00584198277831426,0.000306165344021221));
#1603=CARTESIAN_POINT('',(0.1524,-0.007,0.000366854454981287));
#1604=CARTESIAN_POINT('',(0.1524,0.,0.));
#1605=CARTESIAN_POINT('',(0.1524,-0.007,0.000366854454981287));
#1606=CARTESIAN_POINT('',(-0.000351016580858899,-0.002,0.000104815558566082));
#1607=CARTESIAN_POINT('',(0.0544,-0.002,0.000104815558566082));
#1608=CARTESIAN_POINT('',(0.0544,-0.004,0.000209631117132165));
#1609=CARTESIAN_POINT('',(0.0564,-0.004,0.000209631117132165));
#1610=CARTESIAN_POINT('',(0.0564,-0.00349520337164102,0.000183175846850303));
#1611=CARTESIAN_POINT('',(0.0564,-0.005,0.000262038896415204));
#1612=CARTESIAN_POINT('',(0.0584,-0.005,0.000262038896415204));
#1613=CARTESIAN_POINT('',(0.0584,-0.007,0.000366854454981286));
#1614=CARTESIAN_POINT('',(0.0724,-0.007,0.000366854454981286));
#1615=CARTESIAN_POINT('',(0.0864,-0.007,0.000366854454981286));
#1616=CARTESIAN_POINT('',(0.0864,-0.005,0.000262038896415205));
#1617=CARTESIAN_POINT('',(0.0884,-0.005,0.000262038896415205));
#1618=CARTESIAN_POINT('',(0.0884,-0.00349520337164102,0.000183175846850304));
#1619=CARTESIAN_POINT('',(0.0884,-0.004,0.000209631117132165));
#1620=CARTESIAN_POINT('',(0.0904,-0.004,0.000209631117132165));
#1621=CARTESIAN_POINT('',(0.0904,-0.002,0.000104815558566083));
#1622=CARTESIAN_POINT('',(-0.000351016580858899,-0.002,0.000104815558566082));
#1623=CARTESIAN_POINT('',(0.1344,-0.002,0.000104815558566082));
#1624=CARTESIAN_POINT('',(0.1344,-0.004,0.000209631117132165));
#1625=CARTESIAN_POINT('',(0.1364,-0.004,0.000209631117132165));
#1626=CARTESIAN_POINT('',(0.1364,-0.00349520337164102,0.000183175846850303));
#1627=CARTESIAN_POINT('',(0.1364,-0.00580638105643623,0.000304299536838941));
#1628=CARTESIAN_POINT('',(0.1384,-0.00580638105643623,0.000304299536838941));
#1629=CARTESIAN_POINT('',(0.1384,-0.00782326821841602,0.000410000114062777));
#1630=CARTESIAN_POINT('',(0.1524,-0.00782326833428944,0.000410000120135445));
#1631=CARTESIAN_POINT('',(0.1664,-0.007823268218416,0.000410000114062776));
#1632=CARTESIAN_POINT('',(0.1664,-0.00580638105643621,0.00030429953683894));
#1633=CARTESIAN_POINT('',(0.1684,-0.00580638105643621,0.000304299536838939));
#1634=CARTESIAN_POINT('',(0.1684,-0.003495203371641,0.000183175846850302));
#1635=CARTESIAN_POINT('',(0.1684,-0.004,0.000209631117132165));
#1636=CARTESIAN_POINT('',(0.1704,-0.004,0.000209631117132165));
#1637=CARTESIAN_POINT('',(0.1704,-0.002,0.000104815558566083));
#1638=CARTESIAN_POINT('',(-0.000351016580858899,-0.002,0.000104815558566082));
#1639=CARTESIAN_POINT('',(0.2144,-0.002,0.000104815558566082));
#1640=CARTESIAN_POINT('',(0.2144,-0.004,0.000209631117132165));
#1641=CARTESIAN_POINT('',(0.2164,-0.004,0.000209631117132165));
#1642=CARTESIAN_POINT('',(0.2164,-0.003495203371641,0.000183175846850303));
#1643=CARTESIAN_POINT('',(0.2164,-0.005,0.000262038896415203));
#1644=CARTESIAN_POINT('',(0.2184,-0.005,0.000262038896415203));
#1645=CARTESIAN_POINT('',(0.2184,-0.007,0.000366854454981285));
#1646=CARTESIAN_POINT('',(0.2324,-0.007,0.000366854454981284));
#1647=CARTESIAN_POINT('',(0.2464,-0.007,0.000366854454981284));
#1648=CARTESIAN_POINT('',(0.2464,-0.00499999999999993,0.000262038896415202));
#1649=CARTESIAN_POINT('',(0.2484,-0.00499999999999993,0.000262038896415203));
#1650=CARTESIAN_POINT('',(0.2484,-0.00349520337164099,0.000183175846850302));
#1651=CARTESIAN_POINT('',(0.2484,-0.004,0.000209631117132165));
#1652=CARTESIAN_POINT('',(0.2504,-0.004,0.000209631117132165));
#1653=CARTESIAN_POINT('',(0.2504,-0.002,0.000104815558566083));
#1654=CARTESIAN_POINT('',(-0.000351016580858899,-0.002,0.000104815558566082));
#1655=CARTESIAN_POINT('',(0.1464,-0.00359506632511647,0.000188409442474597));
#1656=CARTESIAN_POINT('',(0.1464,-0.00584198277831426,0.000306165344021221));
#1657=CARTESIAN_POINT('',(-0.000351016580858899,-0.002,-0.0045));
#1658=CARTESIAN_POINT('',(0.0103,-0.002,-0.00205));
#1659=CARTESIAN_POINT('',(0.0103,-0.002,-0.00205));
#1660=CARTESIAN_POINT('',(0.0103,-0.002,-0.0045));
#1661=CARTESIAN_POINT('',(0.0103,-0.002,-0.00885));
#1662=CARTESIAN_POINT('',(-0.000351016580858899,-0.002,-0.00885));
#1663=CARTESIAN_POINT('',(-0.000351016580858899,-0.002,-0.009));
#1664=CARTESIAN_POINT('',(0.0544,-0.002,-0.009));
#1665=CARTESIAN_POINT('',(0.0544,-0.002,-2.44835245057553E-19));
#1666=CARTESIAN_POINT('',(0.1524,-0.008,-0.012));
#1667=CARTESIAN_POINT('',(-0.000351016580858899,-0.008,-0.009));
#1668=CARTESIAN_POINT('',(0.1524,-0.008,-0.012));
#1669=CARTESIAN_POINT('',(-0.000351016580858899,-0.005,-0.009));
#1670=CARTESIAN_POINT('',(0.1524,-0.007,-0.009));
#1671=CARTESIAN_POINT('',(0.1524,-0.007,-0.009));
#1672=CARTESIAN_POINT('',(-0.000351016580858899,-0.002,-0.009));
#1673=CARTESIAN_POINT('',(0.2504,-0.002,-0.009));
#1674=CARTESIAN_POINT('',(0.2504,-0.004,-0.009));
#1675=CARTESIAN_POINT('',(0.2484,-0.004,-0.009));
#1676=CARTESIAN_POINT('',(0.2484,-0.0035,-0.009));
#1677=CARTESIAN_POINT('',(0.2484,-0.00499999999999993,-0.009));
#1678=CARTESIAN_POINT('',(0.2464,-0.00499999999999993,-0.009));
#1679=CARTESIAN_POINT('',(0.2464,-0.007,-0.009));
#1680=CARTESIAN_POINT('',(0.2324,-0.007,-0.009));
#1681=CARTESIAN_POINT('',(0.2184,-0.007,-0.009));
#1682=CARTESIAN_POINT('',(0.2184,-0.005,-0.009));
#1683=CARTESIAN_POINT('',(0.2164,-0.005,-0.009));
#1684=CARTESIAN_POINT('',(0.2164,-0.0035,-0.009));
#1685=CARTESIAN_POINT('',(0.2164,-0.004,-0.009));
#1686=CARTESIAN_POINT('',(0.2144,-0.004,-0.009));
#1687=CARTESIAN_POINT('',(0.2144,-0.002,-0.009));
#1688=CARTESIAN_POINT('',(-0.000351016580858899,-0.002,-0.009));
#1689=CARTESIAN_POINT('',(0.1704,-0.002,-0.009));
#1690=CARTESIAN_POINT('',(0.1704,-0.004,-0.009));
#1691=CARTESIAN_POINT('',(0.1684,-0.004,-0.009));
#1692=CARTESIAN_POINT('',(0.1684,-0.0035,-0.009));
#1693=CARTESIAN_POINT('',(0.1684,-0.0049923603249133,-0.009));
#1694=CARTESIAN_POINT('',(0.1664,-0.0049923603249133,-0.009));
#1695=CARTESIAN_POINT('',(0.1664,-0.007,-0.009));
#1696=CARTESIAN_POINT('',(0.1524,-0.007,-0.009));
#1697=CARTESIAN_POINT('',(0.1384,-0.007,-0.009));
#1698=CARTESIAN_POINT('',(0.1384,-0.00499236032491332,-0.009));
#1699=CARTESIAN_POINT('',(0.1364,-0.00499236032491332,-0.009));
#1700=CARTESIAN_POINT('',(0.1364,-0.0035,-0.009));
#1701=CARTESIAN_POINT('',(0.1364,-0.004,-0.009));
#1702=CARTESIAN_POINT('',(0.1344,-0.004,-0.009));
#1703=CARTESIAN_POINT('',(0.1344,-0.002,-0.009));
#1704=CARTESIAN_POINT('',(-0.000351016580858899,-0.002,-0.009));
#1705=CARTESIAN_POINT('',(0.0904,-0.002,-0.009));
#1706=CARTESIAN_POINT('',(0.0904,-0.004,-0.009));
#1707=CARTESIAN_POINT('',(0.0884,-0.004,-0.009));
#1708=CARTESIAN_POINT('',(0.0884,-0.0035,-0.009));
#1709=CARTESIAN_POINT('',(0.0884,-0.005,-0.009));
#1710=CARTESIAN_POINT('',(0.0864,-0.005,-0.009));
#1711=CARTESIAN_POINT('',(0.0864,-0.007,-0.009));
#1712=CARTESIAN_POINT('',(0.0724,-0.007,-0.009));
#1713=CARTESIAN_POINT('',(0.0584,-0.007,-0.009));
#1714=CARTESIAN_POINT('',(0.0584,-0.005,-0.009));
#1715=CARTESIAN_POINT('',(0.0564,-0.005,-0.009));
#1716=CARTESIAN_POINT('',(0.0564,-0.0035,-0.009));
#1717=CARTESIAN_POINT('',(0.0564,-0.004,-0.009));
#1718=CARTESIAN_POINT('',(0.0544,-0.004,-0.009));
#1719=CARTESIAN_POINT('',(-0.000351016580858899,-0.002,-0.0045));
#1720=CARTESIAN_POINT('',(0.0904,-0.002,-0.0045));
#1721=CARTESIAN_POINT('',(0.1344,-0.002,1.88845623936649E-19));
#1722=CARTESIAN_POINT('',(-0.000351016580858899,-0.002,-0.0045));
#1723=CARTESIAN_POINT('',(0.2945,-0.002,-0.0045));
#1724=CARTESIAN_POINT('',(0.2945,-0.002,-0.00885));
#1725=CARTESIAN_POINT('',(0.2945,-0.002,-0.00205));
#1726=CARTESIAN_POINT('',(-0.000351016580858899,-0.002,-0.00205));
#1727=CARTESIAN_POINT('',(0.2504,-0.002,-0.0045));
#1728=CARTESIAN_POINT('',(-0.000351016580858899,-0.002,-0.00885));
#1729=CARTESIAN_POINT('',(-0.000351016580858899,-0.002,-0.0045));
#1730=CARTESIAN_POINT('',(0.2144,-0.002,1.88845623936649E-19));
#1731=CARTESIAN_POINT('',(0.1704,-0.002,-0.0045));
#1732=CARTESIAN_POINT('',(0.1524,1.46957615897682E-18,-0.012));
#1733=CARTESIAN_POINT('',(0.1524,1.46957615897682E-18,-0.012));
#1734=CARTESIAN_POINT('',(0.1524,-0.004,-0.012));
#1735=CARTESIAN_POINT('',(0.1364,-0.0035,1.99999999999984E-6));
#1736=CARTESIAN_POINT('',(0.1364,-0.004,-0.009));
#1737=CARTESIAN_POINT('',(0.1364,-0.00579218660003094,0.000142056157717209));
#1738=CARTESIAN_POINT('',(0.1684,-0.0035,1.99999999999984E-6));
#1739=CARTESIAN_POINT('',(0.1684,-0.004,1.99999999999968E-6));
#1740=CARTESIAN_POINT('',(0.1684,-0.0050076106038165,-0.00882568851450469));
#1741=CARTESIAN_POINT('',(0.1524,-0.00778457599621442,-3.22553277781078E-5));
#1742=CARTESIAN_POINT('',(0.1384,-0.00778457599621443,-3.22553277781078E-5));
#1743=CARTESIAN_POINT('',(0.1664,-0.00778440168472891,-3.42477171742916E-5));
#1744=CARTESIAN_POINT('',(0.2324,-0.007,1.99999999999941E-6));
#1745=CARTESIAN_POINT('',(0.2184,-0.007,1.99999999999941E-6));
#1746=CARTESIAN_POINT('',(0.2464,-0.007,-8.57252759403139E-19));
#1747=CARTESIAN_POINT('',(0.2164,-0.0035,1.99999999999984E-6));
#1748=CARTESIAN_POINT('',(0.2164,-0.004,-0.009));
#1749=CARTESIAN_POINT('',(0.2164,-0.005,1.99999999999966E-6));
#1750=CARTESIAN_POINT('',(0.2484,-0.0035,1.99999999999984E-6));
#1751=CARTESIAN_POINT('',(0.2484,-0.004,1.99999999999968E-6));
#1752=CARTESIAN_POINT('',(0.2484,-0.00499999999999993,-0.009));
#1753=CARTESIAN_POINT('',(0.0884,-0.0035,1.99999999999984E-6));
#1754=CARTESIAN_POINT('',(0.0884,-0.004,1.99999999999968E-6));
#1755=CARTESIAN_POINT('',(0.0884,-0.005,1.99999999999966E-6));
#1756=CARTESIAN_POINT('',(0.0724,-0.007,1.99999999999941E-6));
#1757=CARTESIAN_POINT('',(0.0864,-0.007,1.99999999999941E-6));
#1758=CARTESIAN_POINT('',(0.0584,-0.007,-0.009));
#1759=CARTESIAN_POINT('',(0.0564,-0.0035,1.99999999999984E-6));
#1760=CARTESIAN_POINT('',(0.0564,-0.004,-0.009));
#1761=CARTESIAN_POINT('',(0.0564,-0.005,-6.12323399573672E-19));
#1762=CARTESIAN_POINT('',(0.0904,-0.004,-0.0045));
#1763=CARTESIAN_POINT('',(0.0544,-0.004,1.99999999999968E-6));
#1764=CARTESIAN_POINT('',(0.2144,-0.004,1.99999999999968E-6));
#1765=CARTESIAN_POINT('',(0.2504,-0.004,-0.0045));
#1766=CARTESIAN_POINT('',(0.1344,-0.004,1.99999999999968E-6));
#1767=CARTESIAN_POINT('',(0.1704,-0.004,-0.0045));
#1768=CARTESIAN_POINT('',(0.0864,-0.005,1.99999999999966E-6));
#1769=CARTESIAN_POINT('',(0.0584,-0.005,1.99999999999966E-6));
#1770=CARTESIAN_POINT('',(0.2184,-0.005,1.99999999999966E-6));
#1771=CARTESIAN_POINT('',(0.2464,-0.00499999999999993,1.99999999999966E-6));
#1772=CARTESIAN_POINT('',(0.1384,-0.00579218660003094,0.000142056157717209));
#1773=CARTESIAN_POINT('',(0.1664,-0.00579218660003092,0.000142056157717209));
#1774=CARTESIAN_POINT('',(0.1524,-0.007,-0.0045));
#1775=CARTESIAN_POINT('',(0.1524,-0.007,-0.0045));
#1776=CARTESIAN_POINT('',(0.0103,-0.00375,-0.00885));
#1777=CARTESIAN_POINT('',(0.0103,-0.00375,-0.00885));
#1778=CARTESIAN_POINT('',(0.0103,-0.0009,-0.00885));
#1779=CARTESIAN_POINT('',(0.0103,-0.0009,-0.00885));
#1780=CARTESIAN_POINT('',(0.0103,-0.0009,-0.006));
#1781=CARTESIAN_POINT('',(0.0103,-0.0009,-0.006));
#1782=CARTESIAN_POINT('',(0.0103,-0.0009,-0.00315));
#1783=CARTESIAN_POINT('',(0.0103,-0.0009,-0.00315));
#1784=CARTESIAN_POINT('',(0.0103,-0.00375,-0.006));
#1785=CARTESIAN_POINT('',(0.0103,-0.0009,-0.00315));
#1786=CARTESIAN_POINT('',(0.2945,-0.00375,-0.00885));
#1787=CARTESIAN_POINT('',(0.2945,-0.0009,-0.00885));
#1788=CARTESIAN_POINT('',(0.2945,-0.0009,-0.00885));
#1789=CARTESIAN_POINT('',(0.2945,-0.00375,-0.00885));
#1790=CARTESIAN_POINT('',(0.2945,-0.0009,-0.006));
#1791=CARTESIAN_POINT('',(0.2945,-0.0009,-0.00315));
#1792=CARTESIAN_POINT('',(0.2945,-0.0009,-0.00315));
#1793=CARTESIAN_POINT('',(0.2945,-0.0009,-0.006));
#1794=CARTESIAN_POINT('',(0.2945,-0.00375,-0.006));
#1795=CARTESIAN_POINT('',(0.2945,-0.002,-0.00205));
#1796=CARTESIAN_POINT('',(0.1464,-0.00385674610633119,-0.00480473823129827));
#1797=CARTESIAN_POINT('',(0.1464,-0.00385674610633119,-0.00480473823129827));
#1798=CARTESIAN_POINT('',(0.1464,-0.00610366255952898,-0.00468698232975165));
#1799=CARTESIAN_POINT('',(0.1524,-0.00417331394835944,-0.00478814761370515));
#1800=CARTESIAN_POINT('',(0.1464,-0.00385674610633119,-0.00480473823129827));
#1801=CARTESIAN_POINT('',(0.1464,-0.00550448483867623,-0.00471838390349741));
#1802=CARTESIAN_POINT('',(0.1584,-0.00385674610633119,-0.00480473823129827));
#1803=CARTESIAN_POINT('',(0.1584,-0.00385674610633119,-0.00480473823129827));
#1804=CARTESIAN_POINT('',(0.1584,-0.00610366255952898,-0.00468698232975165));
#1805=CARTESIAN_POINT('',(0.1524,-0.00417331394835944,-0.00478814761370515));
#1806=CARTESIAN_POINT('',(0.1584,-0.00385674610633119,-0.00480473823129827));
#1807=CARTESIAN_POINT('',(0.1584,-0.00550448483867623,-0.00471838390349741));
#1808=CARTESIAN_POINT('',(0.1584,-0.00406608993130296,-0.00879925637031657));
#1809=CARTESIAN_POINT('',(0.1584,-0.00406608993130296,-0.00879925637031657));
#1810=CARTESIAN_POINT('',(0.1584,-0.00571382866364801,-0.00871290204251571));
#1811=CARTESIAN_POINT('',(0.1524,-0.00446554174520479,-0.00877832198781939));
#1812=CARTESIAN_POINT('',(0.1464,-0.00406608993130296,-0.00879925637031657));
#1813=CARTESIAN_POINT('',(0.1464,-0.00406608993130296,-0.00879925637031657));
#1814=CARTESIAN_POINT('',(0.1464,-0.00571382866364801,-0.00871290204251571));
#1815=CARTESIAN_POINT('',(0.1524,-0.00446554174520479,-0.00877832198781939));
#1816=CARTESIAN_POINT('',(-0.000351016580858899,-0.002,-0.00205));
#1817=CARTESIAN_POINT('',(0.0103,-0.0009,-0.00315));
#1818=CARTESIAN_POINT('',(0.008002,-0.0043333630944789,-0.00424991071656329));
#1819=CARTESIAN_POINT('',(0.008002,-0.00375,-0.0036665476220844));
#1820=CARTESIAN_POINT('',(0.008002,-0.0031666369055211,-0.00424991071656329));
#1821=CARTESIAN_POINT('',(0.304802,-0.0031666369055211,-0.00424991071656329));
#1822=CARTESIAN_POINT('',(0.304802,-0.00375,-0.0036665476220844));
#1823=CARTESIAN_POINT('',(0.304802,-0.0043333630944789,-0.00424991071656329));
#1824=MECHANICAL_DESIGN_GEOMETRIC_PRESENTATION_REPRESENTATION('',(#1097),
#1825);
#1825=(
GEOMETRIC_REPRESENTATION_CONTEXT(3)
GLOBAL_UNCERTAINTY_ASSIGNED_CONTEXT((#1826))
GLOBAL_UNIT_ASSIGNED_CONTEXT((#1829,#1828,#1827))
REPRESENTATION_CONTEXT('Bar L','TOP_LEVEL_ASSEMBLY_PART')
);
#1826=UNCERTAINTY_MEASURE_WITH_UNIT(LENGTH_MEASURE(1.E-8),#1829,
'DISTANCE_ACCURACY_VALUE','Maximum Tolerance applied to model');
#1827=(
NAMED_UNIT(*)
SI_UNIT($,.STERADIAN.)
SOLID_ANGLE_UNIT()
);
#1828=(
NAMED_UNIT(*)
PLANE_ANGLE_UNIT()
SI_UNIT($,.RADIAN.)
);
#1829=(
LENGTH_UNIT()
NAMED_UNIT(*)
SI_UNIT($,.METRE.)
);
#1830=PRODUCT_DEFINITION_SHAPE('','',#1831);
#1831=PRODUCT_DEFINITION('','',#1833,#1832);
#1832=PRODUCT_DEFINITION_CONTEXT('',#1839,'design');
#1833=PRODUCT_DEFINITION_FORMATION_WITH_SPECIFIED_SOURCE('','',#1835,
 .NOT_KNOWN.);
#1834=PRODUCT_RELATED_PRODUCT_CATEGORY('','',(#1835));
#1835=PRODUCT('Bar L','Bar L','Bar L',(#1837));
#1836=PRODUCT_CATEGORY('','');
#1837=PRODUCT_CONTEXT('',#1839,'mechanical');
#1838=APPLICATION_PROTOCOL_DEFINITION('international standard',
'ap242_managed_model_based_3d_engineering',2020,#1839);
#1839=APPLICATION_CONTEXT('managed model based 3d engineering');
ENDSEC;
END-ISO-10303-21;
