ISO-10303-21;
HEADER;
/* Generated by software containing ST-Developer
 * from STEP Tools, Inc. (www.steptools.com) 
 */
/* OPTION: using custom renumber hook */

FILE_DESCRIPTION(
/* description */ ('STEP AP242 Edition 2',
'CAx-IF Rec.Pracs.---Representation and Presentation of Product Manufa
cturing Information (PMI)---4.0---2014-10-13',
'CAx-IF Rec.Pracs.---3D Tessellated Geometry---0.4---2014-09-14','2;1',
'CAx-IF Rec.Pracs.---User Defined Attributes---1.5---2016-08-15'),
/* implementation_level */ '2;1');

FILE_NAME(
/* name */ 'Long bar2 - Bar L',
/* time_stamp */ '2026-09-19T20:01:52Z',
/* author */ (''),
/* organization */ (''),
/* preprocessor_version */ 'ST-DEVELOPER v20',
/* originating_system */ 'ONSHAPE BY PTC INC, 1.221',
/* authorisation */ '  ');

FILE_SCHEMA (('AP242_MANAGED_MODEL_BASED_3D_ENGINEERING_MIM_LF { 1 0 10303 442 3 1 4 }'));
ENDSEC;

DATA;
#10=SHAPE_REPRESENTATION_RELATIONSHIP('','',#1156,#11);
#11=ADVANCED_BREP_SHAPE_REPRESENTATION('',(#1154),#1950);
#12=(
BOUNDED_SURFACE()
B_SPLINE_SURFACE(3,2,((#1865,#1866,#1867),(#1868,#1869,#1870),(#1871,#1872,
#1873),(#1874,#1875,#1876)),.UNSPECIFIED.,.F.,.F.,.F.)
B_SPLINE_SURFACE_WITH_KNOTS((4,4),(3,3),(4.35819137074058,4.71642278812073),
(0.,1.),.PIECEWISE_BEZIER_KNOTS.)
GEOMETRIC_REPRESENTATION_ITEM()
RATIONAL_B_SPLINE_SURFACE(((1.,0.572049791531011,1.),(1.,0.620809485749049,
1.),(1.,0.666553357275604,1.),(1.,0.708526092314879,1.)))
REPRESENTATION_ITEM('')
SURFACE()
);
#13=(
BOUNDED_SURFACE()
B_SPLINE_SURFACE(3,2,((#1879,#1880,#1881),(#1882,#1883,#1884),(#1885,#1886,
#1887),(#1888,#1889,#1890)),.UNSPECIFIED.,.F.,.F.,.F.)
B_SPLINE_SURFACE_WITH_KNOTS((4,4),(3,3),(4.70835524214781,5.06657493733457),
(0.,1.),.PIECEWISE_BEZIER_KNOTS.)
GEOMETRIC_REPRESENTATION_ITEM()
RATIONAL_B_SPLINE_SURFACE(((1.,0.708526067885948,1.),(1.,0.666554704823933,
1.),(1.,0.620812452977609,1.),(1.,0.572054549745736,1.)))
REPRESENTATION_ITEM('')
SURFACE()
);
#14=B_SPLINE_CURVE_WITH_KNOTS('',3,(#1682,#1683,#1684,#1685,#1686),
 .UNSPECIFIED.,.F.,.F.,(4,1,4),(0.,0.00191013708946775,0.00382027417893551),
 .UNSPECIFIED.);
#15=B_SPLINE_CURVE_WITH_KNOTS('',3,(#1694,#1695,#1696,#1697,#1698),
 .UNSPECIFIED.,.F.,.F.,(4,1,4),(0.,0.00191011706292322,0.00382023412584644),
 .UNSPECIFIED.);
#16=B_SPLINE_CURVE_WITH_KNOTS('',3,(#1789,#1790,#1791,#1792,#1793),
 .UNSPECIFIED.,.F.,.F.,(4,1,4),(0.,0.00156026072600191,0.00312052145200382),
 .UNSPECIFIED.);
#17=B_SPLINE_CURVE_WITH_KNOTS('',3,(#1801,#1802,#1803,#1804,#1805),
 .UNSPECIFIED.,.F.,.F.,(4,1,4),(0.,0.00156026072598022,0.00312052145196043),
 .UNSPECIFIED.);
#18=ELLIPSE('',#1170,0.00200274469199584,0.002);
#19=ELLIPSE('',#1171,0.00200274469199584,0.002);
#20=ELLIPSE('',#1172,0.00200274469199584,0.002);
#21=ELLIPSE('',#1173,0.00200274469199584,0.002);
#22=ELLIPSE('',#1174,0.00200121908859765,0.002);
#23=ELLIPSE('',#1175,0.00200121908859765,0.002);
#24=ELLIPSE('',#1176,0.00200274469199584,0.002);
#25=ELLIPSE('',#1177,0.00200274469199584,0.002);
#26=ELLIPSE('',#1178,0.00200274469199584,0.002);
#27=ELLIPSE('',#1179,0.00200274469199584,0.002);
#28=ELLIPSE('',#1194,0.0020076396750867,0.002);
#29=ELLIPSE('',#1195,0.0020076396750867,0.002);
#30=ELLIPSE('',#1201,0.0458948529826795,0.004);
#31=ELLIPSE('',#1203,0.0458948529826795,0.004);
#32=ELLIPSE('',#1223,0.0457639326358844,0.002);
#33=ELLIPSE('',#1225,0.0457639326358844,0.002);
#34=PLANE('',#1161);
#35=PLANE('',#1162);
#36=PLANE('',#1163);
#37=PLANE('',#1165);
#38=PLANE('',#1168);
#39=PLANE('',#1169);
#40=PLANE('',#1182);
#41=PLANE('',#1186);
#42=PLANE('',#1187);
#43=PLANE('',#1188);
#44=PLANE('',#1189);
#45=PLANE('',#1200);
#46=PLANE('',#1202);
#47=PLANE('',#1204);
#48=PLANE('',#1206);
#49=PLANE('',#1210);
#50=PLANE('',#1211);
#51=PLANE('',#1213);
#52=PLANE('',#1226);
#53=PLANE('',#1227);
#54=PLANE('',#1228);
#55=PLANE('',#1229);
#56=PLANE('',#1230);
#57=PLANE('',#1231);
#58=PLANE('',#1232);
#59=PLANE('',#1233);
#60=PLANE('',#1234);
#61=PLANE('',#1235);
#62=PLANE('',#1236);
#63=PLANE('',#1237);
#64=PLANE('',#1240);
#65=PLANE('',#1244);
#66=PLANE('',#1248);
#67=PLANE('',#1251);
#68=PLANE('',#1253);
#69=PLANE('',#1254);
#70=PLANE('',#1255);
#71=PLANE('',#1256);
#72=PLANE('',#1257);
#73=PLANE('',#1258);
#74=LINE('',#1583,#189);
#75=LINE('',#1587,#190);
#76=LINE('',#1589,#191);
#77=LINE('',#1591,#192);
#78=LINE('',#1593,#193);
#79=LINE('',#1595,#194);
#80=LINE('',#1597,#195);
#81=LINE('',#1599,#196);
#82=LINE('',#1601,#197);
#83=LINE('',#1603,#198);
#84=LINE('',#1605,#199);
#85=LINE('',#1607,#200);
#86=LINE('',#1609,#201);
#87=LINE('',#1611,#202);
#88=LINE('',#1613,#203);
#89=LINE('',#1618,#204);
#90=LINE('',#1620,#205);
#91=LINE('',#1622,#206);
#92=LINE('',#1624,#207);
#93=LINE('',#1626,#208);
#94=LINE('',#1628,#209);
#95=LINE('',#1630,#210);
#96=LINE('',#1632,#211);
#97=LINE('',#1637,#212);
#98=LINE('',#1639,#213);
#99=LINE('',#1641,#214);
#100=LINE('',#1643,#215);
#101=LINE('',#1645,#216);
#102=LINE('',#1647,#217);
#103=LINE('',#1649,#218);
#104=LINE('',#1651,#219);
#105=LINE('',#1653,#220);
#106=LINE('',#1655,#221);
#107=LINE('',#1657,#222);
#108=LINE('',#1659,#223);
#109=LINE('',#1660,#224);
#110=LINE('',#1662,#225);
#111=LINE('',#1663,#226);
#112=LINE('',#1665,#227);
#113=LINE('',#1666,#228);
#114=LINE('',#1668,#229);
#115=LINE('',#1674,#230);
#116=LINE('',#1680,#231);
#117=LINE('',#1690,#232);
#118=LINE('',#1700,#233);
#119=LINE('',#1706,#234);
#120=LINE('',#1712,#235);
#121=LINE('',#1718,#236);
#122=LINE('',#1720,#237);
#123=LINE('',#1722,#238);
#124=LINE('',#1724,#239);
#125=LINE('',#1726,#240);
#126=LINE('',#1728,#241);
#127=LINE('',#1730,#242);
#128=LINE('',#1731,#243);
#129=LINE('',#1733,#244);
#130=LINE('',#1738,#245);
#131=LINE('',#1741,#246);
#132=LINE('',#1743,#247);
#133=LINE('',#1745,#248);
#134=LINE('',#1747,#249);
#135=LINE('',#1748,#250);
#136=LINE('',#1750,#251);
#137=LINE('',#1752,#252);
#138=LINE('',#1754,#253);
#139=LINE('',#1756,#254);
#140=LINE('',#1758,#255);
#141=LINE('',#1760,#256);
#142=LINE('',#1761,#257);
#143=LINE('',#1763,#258);
#144=LINE('',#1764,#259);
#145=LINE('',#1766,#260);
#146=LINE('',#1768,#261);
#147=LINE('',#1769,#262);
#148=LINE('',#1771,#263);
#149=LINE('',#1773,#264);
#150=LINE('',#1775,#265);
#151=LINE('',#1776,#266);
#152=LINE('',#1781,#267);
#153=LINE('',#1787,#268);
#154=LINE('',#1797,#269);
#155=LINE('',#1807,#270);
#156=LINE('',#1813,#271);
#157=LINE('',#1819,#272);
#158=LINE('',#1822,#273);
#159=LINE('',#1825,#274);
#160=LINE('',#1830,#275);
#161=LINE('',#1831,#276);
#162=LINE('',#1837,#277);
#163=LINE('',#1838,#278);
#164=LINE('',#1843,#279);
#165=LINE('',#1845,#280);
#166=LINE('',#1846,#281);
#167=LINE('',#1847,#282);
#168=LINE('',#1849,#283);
#169=LINE('',#1850,#284);
#170=LINE('',#1852,#285);
#171=LINE('',#1855,#286);
#172=LINE('',#1858,#287);
#173=LINE('',#1861,#288);
#174=LINE('',#1892,#289);
#175=LINE('',#1894,#290);
#176=LINE('',#1898,#291);
#177=LINE('',#1900,#292);
#178=LINE('',#1902,#293);
#179=LINE('',#1904,#294);
#180=LINE('',#1906,#295);
#181=LINE('',#1909,#296);
#182=LINE('',#1911,#297);
#183=LINE('',#1913,#298);
#184=LINE('',#1915,#299);
#185=LINE('',#1917,#300);
#186=LINE('',#1940,#301);
#187=LINE('',#1941,#302);
#188=LINE('',#1943,#303);
#189=VECTOR('',#1265,1.);
#190=VECTOR('',#1268,1.);
#191=VECTOR('',#1271,1.);
#192=VECTOR('',#1272,1.);
#193=VECTOR('',#1273,1.);
#194=VECTOR('',#1274,1.);
#195=VECTOR('',#1275,1.);
#196=VECTOR('',#1276,1.);
#197=VECTOR('',#1277,1.);
#198=VECTOR('',#1278,1.);
#199=VECTOR('',#1279,1.);
#200=VECTOR('',#1282,1.);
#201=VECTOR('',#1283,1.);
#202=VECTOR('',#1284,1.);
#203=VECTOR('',#1287,1.);
#204=VECTOR('',#1290,1.);
#205=VECTOR('',#1291,1.);
#206=VECTOR('',#1292,1.);
#207=VECTOR('',#1293,1.);
#208=VECTOR('',#1294,1.);
#209=VECTOR('',#1295,1.);
#210=VECTOR('',#1296,1.);
#211=VECTOR('',#1297,1.);
#212=VECTOR('',#1302,1.);
#213=VECTOR('',#1303,1.);
#214=VECTOR('',#1304,1.);
#215=VECTOR('',#1305,1.);
#216=VECTOR('',#1306,1.);
#217=VECTOR('',#1307,1.);
#218=VECTOR('',#1308,1.);
#219=VECTOR('',#1309,1.);
#220=VECTOR('',#1310,1.);
#221=VECTOR('',#1311,1.);
#222=VECTOR('',#1312,1.);
#223=VECTOR('',#1315,1.);
#224=VECTOR('',#1316,1.);
#225=VECTOR('',#1319,1.);
#226=VECTOR('',#1320,1.);
#227=VECTOR('',#1323,1.);
#228=VECTOR('',#1324,1.);
#229=VECTOR('',#1325,1.);
#230=VECTOR('',#1330,1.);
#231=VECTOR('',#1335,1.);
#232=VECTOR('',#1338,1.);
#233=VECTOR('',#1341,1.);
#234=VECTOR('',#1346,1.);
#235=VECTOR('',#1351,1.);
#236=VECTOR('',#1358,1.);
#237=VECTOR('',#1359,1.);
#238=VECTOR('',#1360,1.);
#239=VECTOR('',#1361,1.);
#240=VECTOR('',#1362,1.);
#241=VECTOR('',#1363,1.);
#242=VECTOR('',#1364,1.);
#243=VECTOR('',#1365,1.);
#244=VECTOR('',#1366,1.);
#245=VECTOR('',#1375,1.);
#246=VECTOR('',#1376,1.);
#247=VECTOR('',#1377,1.);
#248=VECTOR('',#1378,1.);
#249=VECTOR('',#1379,1.);
#250=VECTOR('',#1380,1.);
#251=VECTOR('',#1381,1.);
#252=VECTOR('',#1382,1.);
#253=VECTOR('',#1383,1.);
#254=VECTOR('',#1384,1.);
#255=VECTOR('',#1385,1.);
#256=VECTOR('',#1388,1.);
#257=VECTOR('',#1389,1.);
#258=VECTOR('',#1392,1.);
#259=VECTOR('',#1393,1.);
#260=VECTOR('',#1394,1.);
#261=VECTOR('',#1395,1.);
#262=VECTOR('',#1396,1.);
#263=VECTOR('',#1397,1.);
#264=VECTOR('',#1398,1.);
#265=VECTOR('',#1401,1.);
#266=VECTOR('',#1402,1.);
#267=VECTOR('',#1407,1.);
#268=VECTOR('',#1412,1.);
#269=VECTOR('',#1415,1.);
#270=VECTOR('',#1418,1.);
#271=VECTOR('',#1423,1.);
#272=VECTOR('',#1430,1.);
#273=VECTOR('',#1435,1.);
#274=VECTOR('',#1440,1.);
#275=VECTOR('',#1443,1.);
#276=VECTOR('',#1444,1.);
#277=VECTOR('',#1455,1.);
#278=VECTOR('',#1456,1.);
#279=VECTOR('',#1461,1.);
#280=VECTOR('',#1462,1.);
#281=VECTOR('',#1463,1.);
#282=VECTOR('',#1464,1.);
#283=VECTOR('',#1467,1.);
#284=VECTOR('',#1468,1.);
#285=VECTOR('',#1471,1.);
#286=VECTOR('',#1476,1.);
#287=VECTOR('',#1481,1.);
#288=VECTOR('',#1486,1.);
#289=VECTOR('',#1499,1.);
#290=VECTOR('',#1502,1.);
#291=VECTOR('',#1509,1.);
#292=VECTOR('',#1510,1.);
#293=VECTOR('',#1513,1.);
#294=VECTOR('',#1514,1.);
#295=VECTOR('',#1517,1.);
#296=VECTOR('',#1522,1.);
#297=VECTOR('',#1523,1.);
#298=VECTOR('',#1526,1.);
#299=VECTOR('',#1527,1.);
#300=VECTOR('',#1530,1.);
#301=VECTOR('',#1563,1.);
#302=VECTOR('',#1564,1.);
#303=VECTOR('',#1567,1.);
#304=ORIENTED_EDGE('',*,*,#626,.T.);
#305=ORIENTED_EDGE('',*,*,#627,.F.);
#306=ORIENTED_EDGE('',*,*,#628,.F.);
#307=ORIENTED_EDGE('',*,*,#629,.T.);
#308=ORIENTED_EDGE('',*,*,#628,.T.);
#309=ORIENTED_EDGE('',*,*,#630,.T.);
#310=ORIENTED_EDGE('',*,*,#631,.F.);
#311=ORIENTED_EDGE('',*,*,#632,.F.);
#312=ORIENTED_EDGE('',*,*,#633,.F.);
#313=ORIENTED_EDGE('',*,*,#634,.T.);
#314=ORIENTED_EDGE('',*,*,#635,.T.);
#315=ORIENTED_EDGE('',*,*,#636,.F.);
#316=ORIENTED_EDGE('',*,*,#637,.F.);
#317=ORIENTED_EDGE('',*,*,#638,.F.);
#318=ORIENTED_EDGE('',*,*,#631,.T.);
#319=ORIENTED_EDGE('',*,*,#639,.T.);
#320=ORIENTED_EDGE('',*,*,#640,.F.);
#321=ORIENTED_EDGE('',*,*,#641,.T.);
#322=ORIENTED_EDGE('',*,*,#642,.F.);
#323=ORIENTED_EDGE('',*,*,#643,.F.);
#324=ORIENTED_EDGE('',*,*,#644,.T.);
#325=ORIENTED_EDGE('',*,*,#645,.T.);
#326=ORIENTED_EDGE('',*,*,#646,.T.);
#327=ORIENTED_EDGE('',*,*,#647,.F.);
#328=ORIENTED_EDGE('',*,*,#648,.F.);
#329=ORIENTED_EDGE('',*,*,#649,.T.);
#330=ORIENTED_EDGE('',*,*,#650,.T.);
#331=ORIENTED_EDGE('',*,*,#651,.T.);
#332=ORIENTED_EDGE('',*,*,#652,.T.);
#333=ORIENTED_EDGE('',*,*,#653,.T.);
#334=ORIENTED_EDGE('',*,*,#654,.T.);
#335=ORIENTED_EDGE('',*,*,#655,.F.);
#336=ORIENTED_EDGE('',*,*,#656,.T.);
#337=ORIENTED_EDGE('',*,*,#657,.T.);
#338=ORIENTED_EDGE('',*,*,#658,.F.);
#339=ORIENTED_EDGE('',*,*,#659,.F.);
#340=ORIENTED_EDGE('',*,*,#660,.T.);
#341=ORIENTED_EDGE('',*,*,#661,.T.);
#342=ORIENTED_EDGE('',*,*,#662,.T.);
#343=ORIENTED_EDGE('',*,*,#663,.F.);
#344=ORIENTED_EDGE('',*,*,#652,.F.);
#345=ORIENTED_EDGE('',*,*,#664,.T.);
#346=ORIENTED_EDGE('',*,*,#643,.T.);
#347=ORIENTED_EDGE('',*,*,#665,.F.);
#348=ORIENTED_EDGE('',*,*,#654,.F.);
#349=ORIENTED_EDGE('',*,*,#666,.T.);
#350=ORIENTED_EDGE('',*,*,#651,.F.);
#351=ORIENTED_EDGE('',*,*,#667,.T.);
#352=ORIENTED_EDGE('',*,*,#667,.F.);
#353=ORIENTED_EDGE('',*,*,#650,.F.);
#354=ORIENTED_EDGE('',*,*,#668,.F.);
#355=ORIENTED_EDGE('',*,*,#632,.T.);
#356=ORIENTED_EDGE('',*,*,#641,.F.);
#357=ORIENTED_EDGE('',*,*,#669,.F.);
#358=ORIENTED_EDGE('',*,*,#670,.T.);
#359=ORIENTED_EDGE('',*,*,#671,.T.);
#360=ORIENTED_EDGE('',*,*,#672,.T.);
#361=ORIENTED_EDGE('',*,*,#673,.F.);
#362=ORIENTED_EDGE('',*,*,#674,.T.);
#363=ORIENTED_EDGE('',*,*,#675,.T.);
#364=ORIENTED_EDGE('',*,*,#676,.T.);
#365=ORIENTED_EDGE('',*,*,#677,.T.);
#366=ORIENTED_EDGE('',*,*,#678,.T.);
#367=ORIENTED_EDGE('',*,*,#679,.T.);
#368=ORIENTED_EDGE('',*,*,#680,.T.);
#369=ORIENTED_EDGE('',*,*,#681,.T.);
#370=ORIENTED_EDGE('',*,*,#682,.T.);
#371=ORIENTED_EDGE('',*,*,#683,.T.);
#372=ORIENTED_EDGE('',*,*,#684,.T.);
#373=ORIENTED_EDGE('',*,*,#685,.T.);
#374=ORIENTED_EDGE('',*,*,#686,.T.);
#375=ORIENTED_EDGE('',*,*,#687,.T.);
#376=ORIENTED_EDGE('',*,*,#688,.T.);
#377=ORIENTED_EDGE('',*,*,#655,.T.);
#378=ORIENTED_EDGE('',*,*,#689,.T.);
#379=ORIENTED_EDGE('',*,*,#690,.F.);
#380=ORIENTED_EDGE('',*,*,#691,.F.);
#381=ORIENTED_EDGE('',*,*,#692,.T.);
#382=ORIENTED_EDGE('',*,*,#693,.F.);
#383=ORIENTED_EDGE('',*,*,#694,.T.);
#384=ORIENTED_EDGE('',*,*,#695,.F.);
#385=ORIENTED_EDGE('',*,*,#696,.T.);
#386=ORIENTED_EDGE('',*,*,#697,.T.);
#387=ORIENTED_EDGE('',*,*,#656,.F.);
#388=ORIENTED_EDGE('',*,*,#688,.F.);
#389=ORIENTED_EDGE('',*,*,#698,.T.);
#390=ORIENTED_EDGE('',*,*,#699,.T.);
#391=ORIENTED_EDGE('',*,*,#660,.F.);
#392=ORIENTED_EDGE('',*,*,#693,.T.);
#393=ORIENTED_EDGE('',*,*,#700,.T.);
#394=ORIENTED_EDGE('',*,*,#695,.T.);
#395=ORIENTED_EDGE('',*,*,#701,.F.);
#396=ORIENTED_EDGE('',*,*,#702,.F.);
#397=ORIENTED_EDGE('',*,*,#703,.T.);
#398=ORIENTED_EDGE('',*,*,#704,.F.);
#399=ORIENTED_EDGE('',*,*,#705,.T.);
#400=ORIENTED_EDGE('',*,*,#706,.T.);
#401=ORIENTED_EDGE('',*,*,#670,.F.);
#402=ORIENTED_EDGE('',*,*,#707,.F.);
#403=ORIENTED_EDGE('',*,*,#708,.F.);
#404=ORIENTED_EDGE('',*,*,#709,.F.);
#405=ORIENTED_EDGE('',*,*,#710,.T.);
#406=ORIENTED_EDGE('',*,*,#711,.F.);
#407=ORIENTED_EDGE('',*,*,#712,.T.);
#408=ORIENTED_EDGE('',*,*,#647,.T.);
#409=ORIENTED_EDGE('',*,*,#713,.F.);
#410=ORIENTED_EDGE('',*,*,#635,.F.);
#411=ORIENTED_EDGE('',*,*,#714,.T.);
#412=ORIENTED_EDGE('',*,*,#715,.F.);
#413=ORIENTED_EDGE('',*,*,#626,.F.);
#414=ORIENTED_EDGE('',*,*,#716,.T.);
#415=ORIENTED_EDGE('',*,*,#717,.T.);
#416=ORIENTED_EDGE('',*,*,#718,.T.);
#417=ORIENTED_EDGE('',*,*,#704,.T.);
#418=ORIENTED_EDGE('',*,*,#719,.T.);
#419=ORIENTED_EDGE('',*,*,#720,.T.);
#420=ORIENTED_EDGE('',*,*,#721,.F.);
#421=ORIENTED_EDGE('',*,*,#707,.T.);
#422=ORIENTED_EDGE('',*,*,#669,.T.);
#423=ORIENTED_EDGE('',*,*,#640,.T.);
#424=ORIENTED_EDGE('',*,*,#718,.F.);
#425=ORIENTED_EDGE('',*,*,#722,.T.);
#426=ORIENTED_EDGE('',*,*,#636,.T.);
#427=ORIENTED_EDGE('',*,*,#713,.T.);
#428=ORIENTED_EDGE('',*,*,#646,.F.);
#429=ORIENTED_EDGE('',*,*,#723,.T.);
#430=ORIENTED_EDGE('',*,*,#661,.F.);
#431=ORIENTED_EDGE('',*,*,#699,.F.);
#432=ORIENTED_EDGE('',*,*,#724,.T.);
#433=ORIENTED_EDGE('',*,*,#725,.T.);
#434=ORIENTED_EDGE('',*,*,#726,.T.);
#435=ORIENTED_EDGE('',*,*,#727,.T.);
#436=ORIENTED_EDGE('',*,*,#728,.T.);
#437=ORIENTED_EDGE('',*,*,#729,.F.);
#438=ORIENTED_EDGE('',*,*,#730,.T.);
#439=ORIENTED_EDGE('',*,*,#731,.T.);
#440=ORIENTED_EDGE('',*,*,#732,.T.);
#441=ORIENTED_EDGE('',*,*,#733,.T.);
#442=ORIENTED_EDGE('',*,*,#734,.T.);
#443=ORIENTED_EDGE('',*,*,#735,.F.);
#444=ORIENTED_EDGE('',*,*,#736,.T.);
#445=ORIENTED_EDGE('',*,*,#737,.T.);
#446=ORIENTED_EDGE('',*,*,#738,.F.);
#447=ORIENTED_EDGE('',*,*,#739,.T.);
#448=ORIENTED_EDGE('',*,*,#740,.T.);
#449=ORIENTED_EDGE('',*,*,#705,.F.);
#450=ORIENTED_EDGE('',*,*,#676,.F.);
#451=ORIENTED_EDGE('',*,*,#741,.T.);
#452=ORIENTED_EDGE('',*,*,#735,.T.);
#453=ORIENTED_EDGE('',*,*,#742,.T.);
#454=ORIENTED_EDGE('',*,*,#729,.T.);
#455=ORIENTED_EDGE('',*,*,#743,.T.);
#456=ORIENTED_EDGE('',*,*,#682,.F.);
#457=ORIENTED_EDGE('',*,*,#744,.T.);
#458=ORIENTED_EDGE('',*,*,#745,.T.);
#459=ORIENTED_EDGE('',*,*,#746,.T.);
#460=ORIENTED_EDGE('',*,*,#747,.T.);
#461=ORIENTED_EDGE('',*,*,#668,.T.);
#462=ORIENTED_EDGE('',*,*,#649,.F.);
#463=ORIENTED_EDGE('',*,*,#748,.F.);
#464=ORIENTED_EDGE('',*,*,#633,.T.);
#465=ORIENTED_EDGE('',*,*,#648,.T.);
#466=ORIENTED_EDGE('',*,*,#714,.F.);
#467=ORIENTED_EDGE('',*,*,#634,.F.);
#468=ORIENTED_EDGE('',*,*,#748,.T.);
#469=ORIENTED_EDGE('',*,*,#749,.F.);
#470=ORIENTED_EDGE('',*,*,#712,.F.);
#471=ORIENTED_EDGE('',*,*,#750,.T.);
#472=ORIENTED_EDGE('',*,*,#710,.F.);
#473=ORIENTED_EDGE('',*,*,#679,.F.);
#474=ORIENTED_EDGE('',*,*,#751,.T.);
#475=ORIENTED_EDGE('',*,*,#732,.F.);
#476=ORIENTED_EDGE('',*,*,#752,.T.);
#477=ORIENTED_EDGE('',*,*,#753,.F.);
#478=ORIENTED_EDGE('',*,*,#754,.F.);
#479=ORIENTED_EDGE('',*,*,#755,.F.);
#480=ORIENTED_EDGE('',*,*,#685,.F.);
#481=ORIENTED_EDGE('',*,*,#756,.T.);
#482=ORIENTED_EDGE('',*,*,#726,.F.);
#483=ORIENTED_EDGE('',*,*,#757,.T.);
#484=ORIENTED_EDGE('',*,*,#738,.T.);
#485=ORIENTED_EDGE('',*,*,#758,.T.);
#486=ORIENTED_EDGE('',*,*,#673,.T.);
#487=ORIENTED_EDGE('',*,*,#759,.T.);
#488=ORIENTED_EDGE('',*,*,#760,.F.);
#489=ORIENTED_EDGE('',*,*,#674,.F.);
#490=ORIENTED_EDGE('',*,*,#758,.F.);
#491=ORIENTED_EDGE('',*,*,#737,.F.);
#492=ORIENTED_EDGE('',*,*,#675,.F.);
#493=ORIENTED_EDGE('',*,*,#760,.T.);
#494=ORIENTED_EDGE('',*,*,#736,.F.);
#495=ORIENTED_EDGE('',*,*,#741,.F.);
#496=ORIENTED_EDGE('',*,*,#759,.F.);
#497=ORIENTED_EDGE('',*,*,#672,.F.);
#498=ORIENTED_EDGE('',*,*,#761,.F.);
#499=ORIENTED_EDGE('',*,*,#739,.F.);
#500=ORIENTED_EDGE('',*,*,#671,.F.);
#501=ORIENTED_EDGE('',*,*,#706,.F.);
#502=ORIENTED_EDGE('',*,*,#740,.F.);
#503=ORIENTED_EDGE('',*,*,#761,.T.);
#504=ORIENTED_EDGE('',*,*,#756,.F.);
#505=ORIENTED_EDGE('',*,*,#684,.F.);
#506=ORIENTED_EDGE('',*,*,#762,.F.);
#507=ORIENTED_EDGE('',*,*,#727,.F.);
#508=ORIENTED_EDGE('',*,*,#683,.F.);
#509=ORIENTED_EDGE('',*,*,#743,.F.);
#510=ORIENTED_EDGE('',*,*,#728,.F.);
#511=ORIENTED_EDGE('',*,*,#762,.T.);
#512=ORIENTED_EDGE('',*,*,#763,.F.);
#513=ORIENTED_EDGE('',*,*,#686,.F.);
#514=ORIENTED_EDGE('',*,*,#757,.F.);
#515=ORIENTED_EDGE('',*,*,#725,.F.);
#516=ORIENTED_EDGE('',*,*,#687,.F.);
#517=ORIENTED_EDGE('',*,*,#763,.T.);
#518=ORIENTED_EDGE('',*,*,#724,.F.);
#519=ORIENTED_EDGE('',*,*,#698,.F.);
#520=ORIENTED_EDGE('',*,*,#751,.F.);
#521=ORIENTED_EDGE('',*,*,#678,.F.);
#522=ORIENTED_EDGE('',*,*,#764,.F.);
#523=ORIENTED_EDGE('',*,*,#733,.F.);
#524=ORIENTED_EDGE('',*,*,#677,.F.);
#525=ORIENTED_EDGE('',*,*,#742,.F.);
#526=ORIENTED_EDGE('',*,*,#734,.F.);
#527=ORIENTED_EDGE('',*,*,#764,.T.);
#528=ORIENTED_EDGE('',*,*,#765,.F.);
#529=ORIENTED_EDGE('',*,*,#680,.F.);
#530=ORIENTED_EDGE('',*,*,#752,.F.);
#531=ORIENTED_EDGE('',*,*,#731,.F.);
#532=ORIENTED_EDGE('',*,*,#681,.F.);
#533=ORIENTED_EDGE('',*,*,#765,.T.);
#534=ORIENTED_EDGE('',*,*,#730,.F.);
#535=ORIENTED_EDGE('',*,*,#744,.F.);
#536=ORIENTED_EDGE('',*,*,#766,.F.);
#537=ORIENTED_EDGE('',*,*,#637,.T.);
#538=ORIENTED_EDGE('',*,*,#722,.F.);
#539=ORIENTED_EDGE('',*,*,#717,.F.);
#540=ORIENTED_EDGE('',*,*,#767,.F.);
#541=ORIENTED_EDGE('',*,*,#662,.F.);
#542=ORIENTED_EDGE('',*,*,#723,.F.);
#543=ORIENTED_EDGE('',*,*,#645,.F.);
#544=ORIENTED_EDGE('',*,*,#711,.T.);
#545=ORIENTED_EDGE('',*,*,#750,.F.);
#546=ORIENTED_EDGE('',*,*,#701,.T.);
#547=ORIENTED_EDGE('',*,*,#694,.F.);
#548=ORIENTED_EDGE('',*,*,#768,.T.);
#549=ORIENTED_EDGE('',*,*,#769,.T.);
#550=ORIENTED_EDGE('',*,*,#719,.F.);
#551=ORIENTED_EDGE('',*,*,#703,.F.);
#552=ORIENTED_EDGE('',*,*,#720,.F.);
#553=ORIENTED_EDGE('',*,*,#769,.F.);
#554=ORIENTED_EDGE('',*,*,#770,.T.);
#555=ORIENTED_EDGE('',*,*,#771,.T.);
#556=ORIENTED_EDGE('',*,*,#708,.T.);
#557=ORIENTED_EDGE('',*,*,#721,.T.);
#558=ORIENTED_EDGE('',*,*,#771,.F.);
#559=ORIENTED_EDGE('',*,*,#772,.F.);
#560=ORIENTED_EDGE('',*,*,#702,.T.);
#561=ORIENTED_EDGE('',*,*,#749,.T.);
#562=ORIENTED_EDGE('',*,*,#709,.T.);
#563=ORIENTED_EDGE('',*,*,#772,.T.);
#564=ORIENTED_EDGE('',*,*,#770,.F.);
#565=ORIENTED_EDGE('',*,*,#768,.F.);
#566=ORIENTED_EDGE('',*,*,#691,.T.);
#567=ORIENTED_EDGE('',*,*,#659,.T.);
#568=ORIENTED_EDGE('',*,*,#773,.F.);
#569=ORIENTED_EDGE('',*,*,#774,.F.);
#570=ORIENTED_EDGE('',*,*,#658,.T.);
#571=ORIENTED_EDGE('',*,*,#775,.F.);
#572=ORIENTED_EDGE('',*,*,#776,.F.);
#573=ORIENTED_EDGE('',*,*,#773,.T.);
#574=ORIENTED_EDGE('',*,*,#777,.T.);
#575=ORIENTED_EDGE('',*,*,#775,.T.);
#576=ORIENTED_EDGE('',*,*,#657,.F.);
#577=ORIENTED_EDGE('',*,*,#697,.F.);
#578=ORIENTED_EDGE('',*,*,#774,.T.);
#579=ORIENTED_EDGE('',*,*,#776,.T.);
#580=ORIENTED_EDGE('',*,*,#777,.F.);
#581=ORIENTED_EDGE('',*,*,#696,.F.);
#582=ORIENTED_EDGE('',*,*,#700,.F.);
#583=ORIENTED_EDGE('',*,*,#692,.F.);
#584=ORIENTED_EDGE('',*,*,#778,.T.);
#585=ORIENTED_EDGE('',*,*,#689,.F.);
#586=ORIENTED_EDGE('',*,*,#778,.F.);
#587=ORIENTED_EDGE('',*,*,#779,.T.);
#588=ORIENTED_EDGE('',*,*,#780,.F.);
#589=ORIENTED_EDGE('',*,*,#690,.T.);
#590=ORIENTED_EDGE('',*,*,#781,.F.);
#591=ORIENTED_EDGE('',*,*,#780,.T.);
#592=ORIENTED_EDGE('',*,*,#781,.T.);
#593=ORIENTED_EDGE('',*,*,#782,.F.);
#594=ORIENTED_EDGE('',*,*,#782,.T.);
#595=ORIENTED_EDGE('',*,*,#779,.F.);
#596=ORIENTED_EDGE('',*,*,#783,.T.);
#597=ORIENTED_EDGE('',*,*,#783,.F.);
#598=ORIENTED_EDGE('',*,*,#784,.T.);
#599=ORIENTED_EDGE('',*,*,#753,.T.);
#600=ORIENTED_EDGE('',*,*,#785,.F.);
#601=ORIENTED_EDGE('',*,*,#746,.F.);
#602=ORIENTED_EDGE('',*,*,#785,.T.);
#603=ORIENTED_EDGE('',*,*,#755,.T.);
#604=ORIENTED_EDGE('',*,*,#786,.F.);
#605=ORIENTED_EDGE('',*,*,#747,.F.);
#606=ORIENTED_EDGE('',*,*,#786,.T.);
#607=ORIENTED_EDGE('',*,*,#754,.T.);
#608=ORIENTED_EDGE('',*,*,#784,.F.);
#609=ORIENTED_EDGE('',*,*,#745,.F.);
#610=ORIENTED_EDGE('',*,*,#665,.T.);
#611=ORIENTED_EDGE('',*,*,#642,.T.);
#612=ORIENTED_EDGE('',*,*,#666,.F.);
#613=ORIENTED_EDGE('',*,*,#653,.F.);
#614=ORIENTED_EDGE('',*,*,#663,.T.);
#615=ORIENTED_EDGE('',*,*,#767,.T.);
#616=ORIENTED_EDGE('',*,*,#644,.F.);
#617=ORIENTED_EDGE('',*,*,#664,.F.);
#618=ORIENTED_EDGE('',*,*,#638,.T.);
#619=ORIENTED_EDGE('',*,*,#766,.T.);
#620=ORIENTED_EDGE('',*,*,#716,.F.);
#621=ORIENTED_EDGE('',*,*,#629,.F.);
#622=ORIENTED_EDGE('',*,*,#627,.T.);
#623=ORIENTED_EDGE('',*,*,#715,.T.);
#624=ORIENTED_EDGE('',*,*,#639,.F.);
#625=ORIENTED_EDGE('',*,*,#630,.F.);
#626=EDGE_CURVE('',#787,#788,#897,.T.);
#627=EDGE_CURVE('',#789,#788,#74,.T.);
#628=EDGE_CURVE('',#790,#789,#898,.T.);
#629=EDGE_CURVE('',#790,#787,#75,.T.);
#630=EDGE_CURVE('',#789,#791,#76,.T.);
#631=EDGE_CURVE('',#792,#791,#77,.T.);
#632=EDGE_CURVE('',#793,#792,#78,.T.);
#633=EDGE_CURVE('',#794,#793,#79,.T.);
#634=EDGE_CURVE('',#794,#795,#80,.T.);
#635=EDGE_CURVE('',#795,#796,#81,.T.);
#636=EDGE_CURVE('',#797,#796,#82,.T.);
#637=EDGE_CURVE('',#798,#797,#83,.T.);
#638=EDGE_CURVE('',#790,#798,#84,.T.);
#639=EDGE_CURVE('',#791,#799,#85,.T.);
#640=EDGE_CURVE('',#800,#799,#86,.T.);
#641=EDGE_CURVE('',#800,#792,#87,.T.);
#642=EDGE_CURVE('',#801,#802,#88,.T.);
#643=EDGE_CURVE('',#803,#801,#899,.T.);
#644=EDGE_CURVE('',#803,#804,#89,.T.);
#645=EDGE_CURVE('',#804,#805,#90,.T.);
#646=EDGE_CURVE('',#805,#806,#91,.T.);
#647=EDGE_CURVE('',#807,#806,#92,.T.);
#648=EDGE_CURVE('',#808,#807,#93,.T.);
#649=EDGE_CURVE('',#808,#809,#94,.T.);
#650=EDGE_CURVE('',#809,#810,#95,.T.);
#651=EDGE_CURVE('',#810,#802,#96,.T.);
#652=EDGE_CURVE('',#811,#812,#900,.T.);
#653=EDGE_CURVE('',#812,#813,#97,.T.);
#654=EDGE_CURVE('',#813,#814,#98,.T.);
#655=EDGE_CURVE('',#815,#814,#99,.T.);
#656=EDGE_CURVE('',#815,#816,#100,.T.);
#657=EDGE_CURVE('',#816,#817,#101,.T.);
#658=EDGE_CURVE('',#818,#817,#102,.T.);
#659=EDGE_CURVE('',#819,#818,#103,.T.);
#660=EDGE_CURVE('',#819,#820,#104,.T.);
#661=EDGE_CURVE('',#820,#821,#105,.T.);
#662=EDGE_CURVE('',#821,#822,#106,.T.);
#663=EDGE_CURVE('',#811,#822,#107,.T.);
#664=EDGE_CURVE('',#811,#803,#108,.T.);
#665=EDGE_CURVE('',#812,#801,#109,.T.);
#666=EDGE_CURVE('',#813,#802,#110,.T.);
#667=EDGE_CURVE('',#810,#814,#111,.T.);
#668=EDGE_CURVE('',#793,#809,#112,.T.);
#669=EDGE_CURVE('',#823,#800,#113,.T.);
#670=EDGE_CURVE('',#823,#824,#114,.T.);
#671=EDGE_CURVE('',#824,#825,#18,.T.);
#672=EDGE_CURVE('',#825,#826,#19,.F.);
#673=EDGE_CURVE('',#827,#826,#115,.T.);
#674=EDGE_CURVE('',#827,#828,#20,.F.);
#675=EDGE_CURVE('',#828,#829,#21,.T.);
#676=EDGE_CURVE('',#829,#830,#116,.T.);
#677=EDGE_CURVE('',#830,#831,#14,.T.);
#678=EDGE_CURVE('',#831,#832,#22,.F.);
#679=EDGE_CURVE('',#832,#833,#117,.T.);
#680=EDGE_CURVE('',#833,#834,#23,.F.);
#681=EDGE_CURVE('',#834,#835,#15,.T.);
#682=EDGE_CURVE('',#835,#836,#118,.T.);
#683=EDGE_CURVE('',#836,#837,#24,.T.);
#684=EDGE_CURVE('',#837,#838,#25,.F.);
#685=EDGE_CURVE('',#838,#839,#119,.T.);
#686=EDGE_CURVE('',#839,#840,#26,.F.);
#687=EDGE_CURVE('',#840,#841,#27,.T.);
#688=EDGE_CURVE('',#841,#815,#120,.T.);
#689=EDGE_CURVE('',#842,#842,#901,.T.);
#690=EDGE_CURVE('',#843,#843,#902,.T.);
#691=EDGE_CURVE('',#844,#819,#121,.T.);
#692=EDGE_CURVE('',#844,#845,#122,.T.);
#693=EDGE_CURVE('',#846,#845,#123,.T.);
#694=EDGE_CURVE('',#846,#847,#124,.T.);
#695=EDGE_CURVE('',#848,#847,#125,.F.);
#696=EDGE_CURVE('',#848,#849,#126,.T.);
#697=EDGE_CURVE('',#849,#816,#127,.T.);
#698=EDGE_CURVE('',#841,#850,#128,.T.);
#699=EDGE_CURVE('',#850,#820,#129,.T.);
#700=EDGE_CURVE('',#845,#848,#903,.T.);
#701=EDGE_CURVE('',#846,#847,#904,.T.);
#702=EDGE_CURVE('',#851,#852,#130,.T.);
#703=EDGE_CURVE('',#851,#853,#131,.T.);
#704=EDGE_CURVE('',#854,#853,#132,.T.);
#705=EDGE_CURVE('',#854,#855,#133,.T.);
#706=EDGE_CURVE('',#855,#824,#134,.F.);
#707=EDGE_CURVE('',#856,#823,#135,.T.);
#708=EDGE_CURVE('',#857,#856,#136,.T.);
#709=EDGE_CURVE('',#858,#857,#137,.T.);
#710=EDGE_CURVE('',#858,#859,#138,.F.);
#711=EDGE_CURVE('',#860,#859,#139,.T.);
#712=EDGE_CURVE('',#860,#852,#140,.T.);
#713=EDGE_CURVE('',#796,#806,#141,.T.);
#714=EDGE_CURVE('',#795,#807,#142,.T.);
#715=EDGE_CURVE('',#788,#799,#143,.T.);
#716=EDGE_CURVE('',#787,#861,#144,.T.);
#717=EDGE_CURVE('',#861,#862,#145,.T.);
#718=EDGE_CURVE('',#862,#854,#146,.T.);
#719=EDGE_CURVE('',#853,#863,#147,.T.);
#720=EDGE_CURVE('',#863,#864,#148,.T.);
#721=EDGE_CURVE('',#856,#864,#149,.T.);
#722=EDGE_CURVE('',#862,#797,#150,.T.);
#723=EDGE_CURVE('',#805,#821,#151,.T.);
#724=EDGE_CURVE('',#850,#865,#905,.T.);
#725=EDGE_CURVE('',#865,#866,#906,.F.);
#726=EDGE_CURVE('',#866,#867,#152,.T.);
#727=EDGE_CURVE('',#867,#868,#907,.F.);
#728=EDGE_CURVE('',#868,#869,#908,.T.);
#729=EDGE_CURVE('',#870,#869,#153,.T.);
#730=EDGE_CURVE('',#870,#871,#16,.T.);
#731=EDGE_CURVE('',#871,#872,#28,.F.);
#732=EDGE_CURVE('',#872,#873,#154,.T.);
#733=EDGE_CURVE('',#873,#874,#29,.F.);
#734=EDGE_CURVE('',#874,#875,#17,.T.);
#735=EDGE_CURVE('',#876,#875,#155,.T.);
#736=EDGE_CURVE('',#876,#877,#909,.T.);
#737=EDGE_CURVE('',#877,#878,#910,.F.);
#738=EDGE_CURVE('',#879,#878,#156,.T.);
#739=EDGE_CURVE('',#879,#880,#911,.F.);
#740=EDGE_CURVE('',#880,#855,#912,.T.);
#741=EDGE_CURVE('',#829,#876,#157,.T.);
#742=EDGE_CURVE('',#875,#830,#30,.F.);
#743=EDGE_CURVE('',#869,#836,#158,.F.);
#744=EDGE_CURVE('',#835,#870,#31,.F.);
#745=EDGE_CURVE('',#881,#882,#159,.T.);
#746=EDGE_CURVE('',#882,#883,#913,.T.);
#747=EDGE_CURVE('',#883,#881,#160,.T.);
#748=EDGE_CURVE('',#794,#808,#161,.T.);
#749=EDGE_CURVE('',#852,#858,#914,.T.);
#750=EDGE_CURVE('',#860,#859,#915,.T.);
#751=EDGE_CURVE('',#832,#873,#162,.T.);
#752=EDGE_CURVE('',#872,#833,#163,.F.);
#753=EDGE_CURVE('',#884,#885,#916,.T.);
#754=EDGE_CURVE('',#886,#884,#164,.T.);
#755=EDGE_CURVE('',#885,#886,#165,.T.);
#756=EDGE_CURVE('',#838,#867,#166,.T.);
#757=EDGE_CURVE('',#866,#839,#167,.F.);
#758=EDGE_CURVE('',#878,#827,#168,.F.);
#759=EDGE_CURVE('',#826,#879,#169,.T.);
#760=EDGE_CURVE('',#828,#877,#170,.T.);
#761=EDGE_CURVE('',#880,#825,#171,.F.);
#762=EDGE_CURVE('',#868,#837,#172,.F.);
#763=EDGE_CURVE('',#840,#865,#173,.T.);
#764=EDGE_CURVE('',#874,#831,#32,.T.);
#765=EDGE_CURVE('',#834,#871,#33,.T.);
#766=EDGE_CURVE('',#798,#861,#174,.T.);
#767=EDGE_CURVE('',#822,#804,#175,.T.);
#768=EDGE_CURVE('',#851,#887,#176,.T.);
#769=EDGE_CURVE('',#887,#863,#177,.T.);
#770=EDGE_CURVE('',#887,#888,#178,.T.);
#771=EDGE_CURVE('',#888,#864,#179,.T.);
#772=EDGE_CURVE('',#857,#888,#180,.T.);
#773=EDGE_CURVE('',#889,#818,#181,.T.);
#774=EDGE_CURVE('',#844,#889,#182,.T.);
#775=EDGE_CURVE('',#890,#817,#183,.T.);
#776=EDGE_CURVE('',#889,#890,#184,.T.);
#777=EDGE_CURVE('',#849,#890,#185,.T.);
#778=EDGE_CURVE('',#891,#891,#917,.T.);
#779=EDGE_CURVE('',#892,#892,#918,.F.);
#780=EDGE_CURVE('',#893,#893,#919,.T.);
#781=EDGE_CURVE('',#894,#894,#920,.T.);
#782=EDGE_CURVE('',#895,#895,#921,.T.);
#783=EDGE_CURVE('',#896,#896,#922,.T.);
#784=EDGE_CURVE('',#882,#884,#186,.T.);
#785=EDGE_CURVE('',#883,#885,#187,.T.);
#786=EDGE_CURVE('',#881,#886,#188,.T.);
#787=VERTEX_POINT('',#1581);
#788=VERTEX_POINT('',#1582);
#789=VERTEX_POINT('',#1584);
#790=VERTEX_POINT('',#1586);
#791=VERTEX_POINT('',#1590);
#792=VERTEX_POINT('',#1592);
#793=VERTEX_POINT('',#1594);
#794=VERTEX_POINT('',#1596);
#795=VERTEX_POINT('',#1598);
#796=VERTEX_POINT('',#1600);
#797=VERTEX_POINT('',#1602);
#798=VERTEX_POINT('',#1604);
#799=VERTEX_POINT('',#1608);
#800=VERTEX_POINT('',#1610);
#801=VERTEX_POINT('',#1614);
#802=VERTEX_POINT('',#1615);
#803=VERTEX_POINT('',#1617);
#804=VERTEX_POINT('',#1619);
#805=VERTEX_POINT('',#1621);
#806=VERTEX_POINT('',#1623);
#807=VERTEX_POINT('',#1625);
#808=VERTEX_POINT('',#1627);
#809=VERTEX_POINT('',#1629);
#810=VERTEX_POINT('',#1631);
#811=VERTEX_POINT('',#1635);
#812=VERTEX_POINT('',#1636);
#813=VERTEX_POINT('',#1638);
#814=VERTEX_POINT('',#1640);
#815=VERTEX_POINT('',#1642);
#816=VERTEX_POINT('',#1644);
#817=VERTEX_POINT('',#1646);
#818=VERTEX_POINT('',#1648);
#819=VERTEX_POINT('',#1650);
#820=VERTEX_POINT('',#1652);
#821=VERTEX_POINT('',#1654);
#822=VERTEX_POINT('',#1656);
#823=VERTEX_POINT('',#1667);
#824=VERTEX_POINT('',#1669);
#825=VERTEX_POINT('',#1671);
#826=VERTEX_POINT('',#1673);
#827=VERTEX_POINT('',#1675);
#828=VERTEX_POINT('',#1677);
#829=VERTEX_POINT('',#1679);
#830=VERTEX_POINT('',#1681);
#831=VERTEX_POINT('',#1687);
#832=VERTEX_POINT('',#1689);
#833=VERTEX_POINT('',#1691);
#834=VERTEX_POINT('',#1693);
#835=VERTEX_POINT('',#1699);
#836=VERTEX_POINT('',#1701);
#837=VERTEX_POINT('',#1703);
#838=VERTEX_POINT('',#1705);
#839=VERTEX_POINT('',#1707);
#840=VERTEX_POINT('',#1709);
#841=VERTEX_POINT('',#1711);
#842=VERTEX_POINT('',#1714);
#843=VERTEX_POINT('',#1716);
#844=VERTEX_POINT('',#1719);
#845=VERTEX_POINT('',#1721);
#846=VERTEX_POINT('',#1723);
#847=VERTEX_POINT('',#1725);
#848=VERTEX_POINT('',#1727);
#849=VERTEX_POINT('',#1729);
#850=VERTEX_POINT('',#1732);
#851=VERTEX_POINT('',#1739);
#852=VERTEX_POINT('',#1740);
#853=VERTEX_POINT('',#1742);
#854=VERTEX_POINT('',#1744);
#855=VERTEX_POINT('',#1746);
#856=VERTEX_POINT('',#1749);
#857=VERTEX_POINT('',#1751);
#858=VERTEX_POINT('',#1753);
#859=VERTEX_POINT('',#1755);
#860=VERTEX_POINT('',#1757);
#861=VERTEX_POINT('',#1765);
#862=VERTEX_POINT('',#1767);
#863=VERTEX_POINT('',#1770);
#864=VERTEX_POINT('',#1772);
#865=VERTEX_POINT('',#1778);
#866=VERTEX_POINT('',#1780);
#867=VERTEX_POINT('',#1782);
#868=VERTEX_POINT('',#1784);
#869=VERTEX_POINT('',#1786);
#870=VERTEX_POINT('',#1788);
#871=VERTEX_POINT('',#1794);
#872=VERTEX_POINT('',#1796);
#873=VERTEX_POINT('',#1798);
#874=VERTEX_POINT('',#1800);
#875=VERTEX_POINT('',#1806);
#876=VERTEX_POINT('',#1808);
#877=VERTEX_POINT('',#1810);
#878=VERTEX_POINT('',#1812);
#879=VERTEX_POINT('',#1814);
#880=VERTEX_POINT('',#1816);
#881=VERTEX_POINT('',#1826);
#882=VERTEX_POINT('',#1827);
#883=VERTEX_POINT('',#1829);
#884=VERTEX_POINT('',#1841);
#885=VERTEX_POINT('',#1842);
#886=VERTEX_POINT('',#1844);
#887=VERTEX_POINT('',#1899);
#888=VERTEX_POINT('',#1903);
#889=VERTEX_POINT('',#1910);
#890=VERTEX_POINT('',#1914);
#891=VERTEX_POINT('',#1921);
#892=VERTEX_POINT('',#1924);
#893=VERTEX_POINT('',#1927);
#894=VERTEX_POINT('',#1930);
#895=VERTEX_POINT('',#1933);
#896=VERTEX_POINT('',#1937);
#897=CIRCLE('',#1159,0.00195);
#898=CIRCLE('',#1160,0.00195);
#899=CIRCLE('',#1164,0.00195);
#900=CIRCLE('',#1166,0.00195);
#901=CIRCLE('',#1180,0.00225);
#902=CIRCLE('',#1181,0.00225);
#903=CIRCLE('',#1184,0.00195);
#904=CIRCLE('',#1185,0.00195);
#905=CIRCLE('',#1190,0.002);
#906=CIRCLE('',#1191,0.002);
#907=CIRCLE('',#1192,0.002);
#908=CIRCLE('',#1193,0.002);
#909=CIRCLE('',#1196,0.002);
#910=CIRCLE('',#1197,0.002);
#911=CIRCLE('',#1198,0.002);
#912=CIRCLE('',#1199,0.002);
#913=CIRCLE('',#1205,0.003);
#914=CIRCLE('',#1208,0.00195);
#915=CIRCLE('',#1209,0.00195);
#916=CIRCLE('',#1212,0.003);
#917=CIRCLE('',#1239,0.00225);
#918=CIRCLE('',#1241,0.00165);
#919=CIRCLE('',#1243,0.00225);
#920=CIRCLE('',#1245,0.00165);
#921=CIRCLE('',#1247,0.00165);
#922=CIRCLE('',#1250,0.00165);
#923=EDGE_LOOP('',(#304,#305,#306,#307));
#924=EDGE_LOOP('',(#308,#309,#310,#311,#312,#313,#314,#315,#316,#317));
#925=EDGE_LOOP('',(#318,#319,#320,#321));
#926=EDGE_LOOP('',(#322,#323,#324,#325,#326,#327,#328,#329,#330,#331));
#927=EDGE_LOOP('',(#332,#333,#334,#335,#336,#337,#338,#339,#340,#341,#342,
#343));
#928=EDGE_LOOP('',(#344,#345,#346,#347));
#929=EDGE_LOOP('',(#348,#349,#350,#351));
#930=EDGE_LOOP('',(#352,#353,#354,#355,#356,#357,#358,#359,#360,#361,#362,
#363,#364,#365,#366,#367,#368,#369,#370,#371,#372,#373,#374,#375,#376,#377));
#931=EDGE_LOOP('',(#378));
#932=EDGE_LOOP('',(#379));
#933=EDGE_LOOP('',(#380,#381,#382,#383,#384,#385,#386,#387,#388,#389,#390,
#391));
#934=EDGE_LOOP('',(#392,#393,#394,#395));
#935=EDGE_LOOP('',(#396,#397,#398,#399,#400,#401,#402,#403,#404,#405,#406,
#407));
#936=EDGE_LOOP('',(#408,#409,#410,#411));
#937=EDGE_LOOP('',(#412,#413,#414,#415,#416,#417,#418,#419,#420,#421,#422,
#423));
#938=EDGE_LOOP('',(#424,#425,#426,#427,#428,#429,#430,#431,#432,#433,#434,
#435,#436,#437,#438,#439,#440,#441,#442,#443,#444,#445,#446,#447,#448,#449));
#939=EDGE_LOOP('',(#450,#451,#452,#453));
#940=EDGE_LOOP('',(#454,#455,#456,#457));
#941=EDGE_LOOP('',(#458,#459,#460));
#942=EDGE_LOOP('',(#461,#462,#463,#464));
#943=EDGE_LOOP('',(#465,#466,#467,#468));
#944=EDGE_LOOP('',(#469,#470,#471,#472));
#945=EDGE_LOOP('',(#473,#474,#475,#476));
#946=EDGE_LOOP('',(#477,#478,#479));
#947=EDGE_LOOP('',(#480,#481,#482,#483));
#948=EDGE_LOOP('',(#484,#485,#486,#487));
#949=EDGE_LOOP('',(#488,#489,#490,#491));
#950=EDGE_LOOP('',(#492,#493,#494,#495));
#951=EDGE_LOOP('',(#496,#497,#498,#499));
#952=EDGE_LOOP('',(#500,#501,#502,#503));
#953=EDGE_LOOP('',(#504,#505,#506,#507));
#954=EDGE_LOOP('',(#508,#509,#510,#511));
#955=EDGE_LOOP('',(#512,#513,#514,#515));
#956=EDGE_LOOP('',(#516,#517,#518,#519));
#957=EDGE_LOOP('',(#520,#521,#522,#523));
#958=EDGE_LOOP('',(#524,#525,#526,#527));
#959=EDGE_LOOP('',(#528,#529,#530,#531));
#960=EDGE_LOOP('',(#532,#533,#534,#535));
#961=EDGE_LOOP('',(#536,#537,#538,#539));
#962=EDGE_LOOP('',(#540,#541,#542,#543));
#963=EDGE_LOOP('',(#544,#545));
#964=EDGE_LOOP('',(#546,#547));
#965=EDGE_LOOP('',(#548,#549,#550,#551));
#966=EDGE_LOOP('',(#552,#553,#554,#555));
#967=EDGE_LOOP('',(#556,#557,#558,#559));
#968=EDGE_LOOP('',(#560,#561,#562,#563,#564,#565));
#969=EDGE_LOOP('',(#566,#567,#568,#569));
#970=EDGE_LOOP('',(#570,#571,#572,#573));
#971=EDGE_LOOP('',(#574,#575,#576,#577));
#972=EDGE_LOOP('',(#578,#579,#580,#581,#582,#583));
#973=EDGE_LOOP('',(#584));
#974=EDGE_LOOP('',(#585));
#975=EDGE_LOOP('',(#586));
#976=EDGE_LOOP('',(#587));
#977=EDGE_LOOP('',(#588));
#978=EDGE_LOOP('',(#589));
#979=EDGE_LOOP('',(#590));
#980=EDGE_LOOP('',(#591));
#981=EDGE_LOOP('',(#592));
#982=EDGE_LOOP('',(#593));
#983=EDGE_LOOP('',(#594));
#984=EDGE_LOOP('',(#595));
#985=EDGE_LOOP('',(#596));
#986=EDGE_LOOP('',(#597));
#987=EDGE_LOOP('',(#598,#599,#600,#601));
#988=EDGE_LOOP('',(#602,#603,#604,#605));
#989=EDGE_LOOP('',(#606,#607,#608,#609));
#990=EDGE_LOOP('',(#610,#611,#612,#613));
#991=EDGE_LOOP('',(#614,#615,#616,#617));
#992=EDGE_LOOP('',(#618,#619,#620,#621));
#993=EDGE_LOOP('',(#622,#623,#624,#625));
#994=FACE_BOUND('',#923,.T.);
#995=FACE_BOUND('',#924,.T.);
#996=FACE_BOUND('',#925,.T.);
#997=FACE_BOUND('',#926,.T.);
#998=FACE_BOUND('',#927,.T.);
#999=FACE_BOUND('',#928,.T.);
#1000=FACE_BOUND('',#929,.T.);
#1001=FACE_BOUND('',#930,.T.);
#1002=FACE_BOUND('',#931,.T.);
#1003=FACE_BOUND('',#932,.T.);
#1004=FACE_BOUND('',#933,.T.);
#1005=FACE_BOUND('',#934,.T.);
#1006=FACE_BOUND('',#935,.T.);
#1007=FACE_BOUND('',#936,.T.);
#1008=FACE_BOUND('',#937,.T.);
#1009=FACE_BOUND('',#938,.T.);
#1010=FACE_BOUND('',#939,.T.);
#1011=FACE_BOUND('',#940,.T.);
#1012=FACE_BOUND('',#941,.T.);
#1013=FACE_BOUND('',#942,.T.);
#1014=FACE_BOUND('',#943,.T.);
#1015=FACE_BOUND('',#944,.T.);
#1016=FACE_BOUND('',#945,.T.);
#1017=FACE_BOUND('',#946,.T.);
#1018=FACE_BOUND('',#947,.T.);
#1019=FACE_BOUND('',#948,.T.);
#1020=FACE_BOUND('',#949,.T.);
#1021=FACE_BOUND('',#950,.T.);
#1022=FACE_BOUND('',#951,.T.);
#1023=FACE_BOUND('',#952,.T.);
#1024=FACE_BOUND('',#953,.T.);
#1025=FACE_BOUND('',#954,.T.);
#1026=FACE_BOUND('',#955,.T.);
#1027=FACE_BOUND('',#956,.T.);
#1028=FACE_BOUND('',#957,.T.);
#1029=FACE_BOUND('',#958,.T.);
#1030=FACE_BOUND('',#959,.T.);
#1031=FACE_BOUND('',#960,.T.);
#1032=FACE_BOUND('',#961,.T.);
#1033=FACE_BOUND('',#962,.T.);
#1034=FACE_BOUND('',#963,.T.);
#1035=FACE_BOUND('',#964,.T.);
#1036=FACE_BOUND('',#965,.T.);
#1037=FACE_BOUND('',#966,.T.);
#1038=FACE_BOUND('',#967,.T.);
#1039=FACE_BOUND('',#968,.T.);
#1040=FACE_BOUND('',#969,.T.);
#1041=FACE_BOUND('',#970,.T.);
#1042=FACE_BOUND('',#971,.T.);
#1043=FACE_BOUND('',#972,.T.);
#1044=FACE_BOUND('',#973,.T.);
#1045=FACE_BOUND('',#974,.T.);
#1046=FACE_BOUND('',#975,.T.);
#1047=FACE_BOUND('',#976,.T.);
#1048=FACE_BOUND('',#977,.T.);
#1049=FACE_BOUND('',#978,.T.);
#1050=FACE_BOUND('',#979,.T.);
#1051=FACE_BOUND('',#980,.T.);
#1052=FACE_BOUND('',#981,.T.);
#1053=FACE_BOUND('',#982,.T.);
#1054=FACE_BOUND('',#983,.T.);
#1055=FACE_BOUND('',#984,.T.);
#1056=FACE_BOUND('',#985,.T.);
#1057=FACE_BOUND('',#986,.T.);
#1058=FACE_BOUND('',#987,.T.);
#1059=FACE_BOUND('',#988,.T.);
#1060=FACE_BOUND('',#989,.T.);
#1061=FACE_BOUND('',#990,.T.);
#1062=FACE_BOUND('',#991,.T.);
#1063=FACE_BOUND('',#992,.T.);
#1064=FACE_BOUND('',#993,.T.);
#1065=CYLINDRICAL_SURFACE('',#1158,0.00195);
#1066=CYLINDRICAL_SURFACE('',#1167,0.00195);
#1067=CYLINDRICAL_SURFACE('',#1183,0.00195);
#1068=CYLINDRICAL_SURFACE('',#1207,0.00195);
#1069=CYLINDRICAL_SURFACE('',#1214,0.002);
#1070=CYLINDRICAL_SURFACE('',#1215,0.002);
#1071=CYLINDRICAL_SURFACE('',#1216,0.002);
#1072=CYLINDRICAL_SURFACE('',#1217,0.002);
#1073=CYLINDRICAL_SURFACE('',#1218,0.002);
#1074=CYLINDRICAL_SURFACE('',#1219,0.002);
#1075=CYLINDRICAL_SURFACE('',#1220,0.002);
#1076=CYLINDRICAL_SURFACE('',#1221,0.002);
#1077=CYLINDRICAL_SURFACE('',#1222,0.002);
#1078=CYLINDRICAL_SURFACE('',#1224,0.002);
#1079=CYLINDRICAL_SURFACE('',#1238,0.00225);
#1080=CYLINDRICAL_SURFACE('',#1242,0.00225);
#1081=CYLINDRICAL_SURFACE('',#1246,0.00165);
#1082=CYLINDRICAL_SURFACE('',#1249,0.00165);
#1083=CYLINDRICAL_SURFACE('',#1252,0.003);
#1084=ADVANCED_FACE('',(#994),#1065,.F.);
#1085=ADVANCED_FACE('',(#995),#34,.T.);
#1086=ADVANCED_FACE('',(#996),#35,.T.);
#1087=ADVANCED_FACE('',(#997),#36,.F.);
#1088=ADVANCED_FACE('',(#998),#37,.T.);
#1089=ADVANCED_FACE('',(#999),#1066,.F.);
#1090=ADVANCED_FACE('',(#1000),#38,.T.);
#1091=ADVANCED_FACE('',(#1001,#1002,#1003),#39,.F.);
#1092=ADVANCED_FACE('',(#1004),#40,.T.);
#1093=ADVANCED_FACE('',(#1005),#1067,.F.);
#1094=ADVANCED_FACE('',(#1006),#41,.T.);
#1095=ADVANCED_FACE('',(#1007),#42,.T.);
#1096=ADVANCED_FACE('',(#1008),#43,.T.);
#1097=ADVANCED_FACE('',(#1009),#44,.T.);
#1098=ADVANCED_FACE('',(#1010),#45,.T.);
#1099=ADVANCED_FACE('',(#1011),#46,.T.);
#1100=ADVANCED_FACE('',(#1012,#1013),#47,.F.);
#1101=ADVANCED_FACE('',(#1014),#48,.T.);
#1102=ADVANCED_FACE('',(#1015),#1068,.F.);
#1103=ADVANCED_FACE('',(#1016),#49,.T.);
#1104=ADVANCED_FACE('',(#1017,#1018),#50,.T.);
#1105=ADVANCED_FACE('',(#1019),#51,.F.);
#1106=ADVANCED_FACE('',(#1020),#1069,.T.);
#1107=ADVANCED_FACE('',(#1021),#1070,.F.);
#1108=ADVANCED_FACE('',(#1022),#1071,.T.);
#1109=ADVANCED_FACE('',(#1023),#1072,.F.);
#1110=ADVANCED_FACE('',(#1024),#1073,.T.);
#1111=ADVANCED_FACE('',(#1025),#1074,.F.);
#1112=ADVANCED_FACE('',(#1026),#1075,.T.);
#1113=ADVANCED_FACE('',(#1027),#1076,.F.);
#1114=ADVANCED_FACE('',(#1028),#1077,.T.);
#1115=ADVANCED_FACE('',(#1029),#12,.F.);
#1116=ADVANCED_FACE('',(#1030),#1078,.T.);
#1117=ADVANCED_FACE('',(#1031),#13,.F.);
#1118=ADVANCED_FACE('',(#1032),#52,.T.);
#1119=ADVANCED_FACE('',(#1033),#53,.T.);
#1120=ADVANCED_FACE('',(#1034),#54,.F.);
#1121=ADVANCED_FACE('',(#1035),#55,.T.);
#1122=ADVANCED_FACE('',(#1036),#56,.T.);
#1123=ADVANCED_FACE('',(#1037),#57,.T.);
#1124=ADVANCED_FACE('',(#1038),#58,.F.);
#1125=ADVANCED_FACE('',(#1039),#59,.F.);
#1126=ADVANCED_FACE('',(#1040),#60,.F.);
#1127=ADVANCED_FACE('',(#1041),#61,.F.);
#1128=ADVANCED_FACE('',(#1042),#62,.T.);
#1129=ADVANCED_FACE('',(#1043),#63,.T.);
#1130=ADVANCED_FACE('',(#1044,#1045),#1079,.F.);
#1131=ADVANCED_FACE('',(#1046,#1047),#64,.T.);
#1132=ADVANCED_FACE('',(#1048,#1049),#1080,.F.);
#1133=ADVANCED_FACE('',(#1050,#1051),#65,.T.);
#1134=ADVANCED_FACE('',(#1052,#1053),#1081,.F.);
#1135=ADVANCED_FACE('',(#1054),#66,.F.);
#1136=ADVANCED_FACE('',(#1055,#1056),#1082,.F.);
#1137=ADVANCED_FACE('',(#1057),#67,.F.);
#1138=ADVANCED_FACE('',(#1058),#1083,.F.);
#1139=ADVANCED_FACE('',(#1059),#68,.F.);
#1140=ADVANCED_FACE('',(#1060),#69,.F.);
#1141=ADVANCED_FACE('',(#1061),#70,.F.);
#1142=ADVANCED_FACE('',(#1062),#71,.T.);
#1143=ADVANCED_FACE('',(#1063),#72,.T.);
#1144=ADVANCED_FACE('',(#1064),#73,.F.);
#1145=CLOSED_SHELL('',(#1084,#1085,#1086,#1087,#1088,#1089,#1090,#1091,
#1092,#1093,#1094,#1095,#1096,#1097,#1098,#1099,#1100,#1101,#1102,#1103,
#1104,#1105,#1106,#1107,#1108,#1109,#1110,#1111,#1112,#1113,#1114,#1115,
#1116,#1117,#1118,#1119,#1120,#1121,#1122,#1123,#1124,#1125,#1126,#1127,
#1128,#1129,#1130,#1131,#1132,#1133,#1134,#1135,#1136,#1137,#1138,#1139,
#1140,#1141,#1142,#1143,#1144));
#1146=STYLED_ITEM('',(#1147),#1154);
#1147=PRESENTATION_STYLE_ASSIGNMENT((#1148));
#1148=SURFACE_STYLE_USAGE(.BOTH.,#1149);
#1149=SURFACE_SIDE_STYLE('',(#1150));
#1150=SURFACE_STYLE_FILL_AREA(#1151);
#1151=FILL_AREA_STYLE('',(#1152));
#1152=FILL_AREA_STYLE_COLOUR('',#1153);
#1153=COLOUR_RGB('',0.917647058823529,0.917647058823529,0.917647058823529);
#1154=MANIFOLD_SOLID_BREP('Bar L',#1145);
#1155=SHAPE_DEFINITION_REPRESENTATION(#1955,#1156);
#1156=SHAPE_REPRESENTATION('Bar L',(#1157),#1950);
#1157=AXIS2_PLACEMENT_3D('',#1578,#1259,#1260);
#1158=AXIS2_PLACEMENT_3D('',#1579,#1261,#1262);
#1159=AXIS2_PLACEMENT_3D('',#1580,#1263,#1264);
#1160=AXIS2_PLACEMENT_3D('',#1585,#1266,#1267);
#1161=AXIS2_PLACEMENT_3D('',#1588,#1269,#1270);
#1162=AXIS2_PLACEMENT_3D('',#1606,#1280,#1281);
#1163=AXIS2_PLACEMENT_3D('',#1612,#1285,#1286);
#1164=AXIS2_PLACEMENT_3D('',#1616,#1288,#1289);
#1165=AXIS2_PLACEMENT_3D('',#1633,#1298,#1299);
#1166=AXIS2_PLACEMENT_3D('',#1634,#1300,#1301);
#1167=AXIS2_PLACEMENT_3D('',#1658,#1313,#1314);
#1168=AXIS2_PLACEMENT_3D('',#1661,#1317,#1318);
#1169=AXIS2_PLACEMENT_3D('',#1664,#1321,#1322);
#1170=AXIS2_PLACEMENT_3D('',#1670,#1326,#1327);
#1171=AXIS2_PLACEMENT_3D('',#1672,#1328,#1329);
#1172=AXIS2_PLACEMENT_3D('',#1676,#1331,#1332);
#1173=AXIS2_PLACEMENT_3D('',#1678,#1333,#1334);
#1174=AXIS2_PLACEMENT_3D('',#1688,#1336,#1337);
#1175=AXIS2_PLACEMENT_3D('',#1692,#1339,#1340);
#1176=AXIS2_PLACEMENT_3D('',#1702,#1342,#1343);
#1177=AXIS2_PLACEMENT_3D('',#1704,#1344,#1345);
#1178=AXIS2_PLACEMENT_3D('',#1708,#1347,#1348);
#1179=AXIS2_PLACEMENT_3D('',#1710,#1349,#1350);
#1180=AXIS2_PLACEMENT_3D('',#1713,#1352,#1353);
#1181=AXIS2_PLACEMENT_3D('',#1715,#1354,#1355);
#1182=AXIS2_PLACEMENT_3D('',#1717,#1356,#1357);
#1183=AXIS2_PLACEMENT_3D('',#1734,#1367,#1368);
#1184=AXIS2_PLACEMENT_3D('',#1735,#1369,#1370);
#1185=AXIS2_PLACEMENT_3D('',#1736,#1371,#1372);
#1186=AXIS2_PLACEMENT_3D('',#1737,#1373,#1374);
#1187=AXIS2_PLACEMENT_3D('',#1759,#1386,#1387);
#1188=AXIS2_PLACEMENT_3D('',#1762,#1390,#1391);
#1189=AXIS2_PLACEMENT_3D('',#1774,#1399,#1400);
#1190=AXIS2_PLACEMENT_3D('',#1777,#1403,#1404);
#1191=AXIS2_PLACEMENT_3D('',#1779,#1405,#1406);
#1192=AXIS2_PLACEMENT_3D('',#1783,#1408,#1409);
#1193=AXIS2_PLACEMENT_3D('',#1785,#1410,#1411);
#1194=AXIS2_PLACEMENT_3D('',#1795,#1413,#1414);
#1195=AXIS2_PLACEMENT_3D('',#1799,#1416,#1417);
#1196=AXIS2_PLACEMENT_3D('',#1809,#1419,#1420);
#1197=AXIS2_PLACEMENT_3D('',#1811,#1421,#1422);
#1198=AXIS2_PLACEMENT_3D('',#1815,#1424,#1425);
#1199=AXIS2_PLACEMENT_3D('',#1817,#1426,#1427);
#1200=AXIS2_PLACEMENT_3D('',#1818,#1428,#1429);
#1201=AXIS2_PLACEMENT_3D('',#1820,#1431,#1432);
#1202=AXIS2_PLACEMENT_3D('',#1821,#1433,#1434);
#1203=AXIS2_PLACEMENT_3D('',#1823,#1436,#1437);
#1204=AXIS2_PLACEMENT_3D('',#1824,#1438,#1439);
#1205=AXIS2_PLACEMENT_3D('',#1828,#1441,#1442);
#1206=AXIS2_PLACEMENT_3D('',#1832,#1445,#1446);
#1207=AXIS2_PLACEMENT_3D('',#1833,#1447,#1448);
#1208=AXIS2_PLACEMENT_3D('',#1834,#1449,#1450);
#1209=AXIS2_PLACEMENT_3D('',#1835,#1451,#1452);
#1210=AXIS2_PLACEMENT_3D('',#1836,#1453,#1454);
#1211=AXIS2_PLACEMENT_3D('',#1839,#1457,#1458);
#1212=AXIS2_PLACEMENT_3D('',#1840,#1459,#1460);
#1213=AXIS2_PLACEMENT_3D('',#1848,#1465,#1466);
#1214=AXIS2_PLACEMENT_3D('',#1851,#1469,#1470);
#1215=AXIS2_PLACEMENT_3D('',#1853,#1472,#1473);
#1216=AXIS2_PLACEMENT_3D('',#1854,#1474,#1475);
#1217=AXIS2_PLACEMENT_3D('',#1856,#1477,#1478);
#1218=AXIS2_PLACEMENT_3D('',#1857,#1479,#1480);
#1219=AXIS2_PLACEMENT_3D('',#1859,#1482,#1483);
#1220=AXIS2_PLACEMENT_3D('',#1860,#1484,#1485);
#1221=AXIS2_PLACEMENT_3D('',#1862,#1487,#1488);
#1222=AXIS2_PLACEMENT_3D('',#1863,#1489,#1490);
#1223=AXIS2_PLACEMENT_3D('',#1864,#1491,#1492);
#1224=AXIS2_PLACEMENT_3D('',#1877,#1493,#1494);
#1225=AXIS2_PLACEMENT_3D('',#1878,#1495,#1496);
#1226=AXIS2_PLACEMENT_3D('',#1891,#1497,#1498);
#1227=AXIS2_PLACEMENT_3D('',#1893,#1500,#1501);
#1228=AXIS2_PLACEMENT_3D('',#1895,#1503,#1504);
#1229=AXIS2_PLACEMENT_3D('',#1896,#1505,#1506);
#1230=AXIS2_PLACEMENT_3D('',#1897,#1507,#1508);
#1231=AXIS2_PLACEMENT_3D('',#1901,#1511,#1512);
#1232=AXIS2_PLACEMENT_3D('',#1905,#1515,#1516);
#1233=AXIS2_PLACEMENT_3D('',#1907,#1518,#1519);
#1234=AXIS2_PLACEMENT_3D('',#1908,#1520,#1521);
#1235=AXIS2_PLACEMENT_3D('',#1912,#1524,#1525);
#1236=AXIS2_PLACEMENT_3D('',#1916,#1528,#1529);
#1237=AXIS2_PLACEMENT_3D('',#1918,#1531,#1532);
#1238=AXIS2_PLACEMENT_3D('',#1919,#1533,#1534);
#1239=AXIS2_PLACEMENT_3D('',#1920,#1535,#1536);
#1240=AXIS2_PLACEMENT_3D('',#1922,#1537,#1538);
#1241=AXIS2_PLACEMENT_3D('',#1923,#1539,#1540);
#1242=AXIS2_PLACEMENT_3D('',#1925,#1541,#1542);
#1243=AXIS2_PLACEMENT_3D('',#1926,#1543,#1544);
#1244=AXIS2_PLACEMENT_3D('',#1928,#1545,#1546);
#1245=AXIS2_PLACEMENT_3D('',#1929,#1547,#1548);
#1246=AXIS2_PLACEMENT_3D('',#1931,#1549,#1550);
#1247=AXIS2_PLACEMENT_3D('',#1932,#1551,#1552);
#1248=AXIS2_PLACEMENT_3D('',#1934,#1553,#1554);
#1249=AXIS2_PLACEMENT_3D('',#1935,#1555,#1556);
#1250=AXIS2_PLACEMENT_3D('',#1936,#1557,#1558);
#1251=AXIS2_PLACEMENT_3D('',#1938,#1559,#1560);
#1252=AXIS2_PLACEMENT_3D('',#1939,#1561,#1562);
#1253=AXIS2_PLACEMENT_3D('',#1942,#1565,#1566);
#1254=AXIS2_PLACEMENT_3D('',#1944,#1568,#1569);
#1255=AXIS2_PLACEMENT_3D('',#1945,#1570,#1571);
#1256=AXIS2_PLACEMENT_3D('',#1946,#1572,#1573);
#1257=AXIS2_PLACEMENT_3D('',#1947,#1574,#1575);
#1258=AXIS2_PLACEMENT_3D('',#1948,#1576,#1577);
#1259=DIRECTION('',(0.,0.,1.));
#1260=DIRECTION('',(1.,0.,0.));
#1261=DIRECTION('',(-1.,7.49879891330929E-33,-1.22464679914735E-16));
#1262=DIRECTION('',(1.22464679914735E-16,1.22464679914735E-16,-1.));
#1263=DIRECTION('',(1.,-7.49879891330929E-33,1.22464679914735E-16));
#1264=DIRECTION('',(-1.22464679914735E-16,-1.22464679914735E-16,1.));
#1265=DIRECTION('',(1.,-7.49879891330929E-33,1.22464679914735E-16));
#1266=DIRECTION('',(1.,-7.49879891330929E-33,1.22464679914735E-16));
#1267=DIRECTION('',(-1.22464679914735E-16,-1.22464679914735E-16,1.));
#1268=DIRECTION('',(1.,-7.49879891330929E-33,1.22464679914735E-16));
#1269=DIRECTION('',(-1.,7.49879891330929E-33,-1.22464679914735E-16));
#1270=DIRECTION('',(1.22464679914735E-16,1.22464679914735E-16,-1.));
#1271=DIRECTION('',(-8.65956056235493E-17,-0.707106781186548,0.707106781186547));
#1272=DIRECTION('',(1.22464679914735E-16,1.22464679914735E-16,-1.));
#1273=DIRECTION('',(6.40930612932372E-18,-0.998629534754574,-0.052335956242944));
#1274=DIRECTION('',(-1.22464679914735E-16,-1.22464679914735E-16,1.));
#1275=DIRECTION('',(7.49879891330929E-33,-1.,-1.22464679914735E-16));
#1276=DIRECTION('',(-1.22464679914735E-16,-1.22464679914735E-16,1.));
#1277=DIRECTION('',(7.49879891330929E-33,-1.,-1.22464679914735E-16));
#1278=DIRECTION('',(1.22464679914735E-16,1.22464679914735E-16,-1.));
#1279=DIRECTION('',(-8.65956056235494E-17,-0.707106781186548,0.707106781186548));
#1280=DIRECTION('',(7.49879891330929E-33,-1.,-1.22464679914735E-16));
#1281=DIRECTION('',(-1.,7.49879891330929E-33,-1.22464679914735E-16));
#1282=DIRECTION('',(1.,-7.49879891330929E-33,1.22464679914735E-16));
#1283=DIRECTION('',(1.22464679914735E-16,1.22464679914735E-16,-1.));
#1284=DIRECTION('',(-1.,7.49879891330929E-33,-1.22464679914735E-16));
#1285=DIRECTION('',(-1.,7.49879891330929E-33,-1.22464679914735E-16));
#1286=DIRECTION('',(1.22464679914735E-16,1.22464679914735E-16,-1.));
#1287=DIRECTION('',(-8.65956056235493E-17,-0.707106781186548,0.707106781186547));
#1288=DIRECTION('',(1.,-7.49879891330929E-33,1.22464679914735E-16));
#1289=DIRECTION('',(-1.22464679914735E-16,-1.22464679914735E-16,1.));
#1290=DIRECTION('',(-8.65956056235494E-17,-0.707106781186548,0.707106781186548));
#1291=DIRECTION('',(1.22464679914735E-16,1.22464679914735E-16,-1.));
#1292=DIRECTION('',(7.49879891330929E-33,-1.,-1.22464679914735E-16));
#1293=DIRECTION('',(-1.22464679914735E-16,-1.22464679914735E-16,1.));
#1294=DIRECTION('',(7.49879891330929E-33,-1.,-1.22464679914735E-16));
#1295=DIRECTION('',(-1.22464679914735E-16,-1.22464679914735E-16,1.));
#1296=DIRECTION('',(6.40930612932372E-18,-0.998629534754574,-0.052335956242944));
#1297=DIRECTION('',(1.22464679914735E-16,1.22464679914735E-16,-1.));
#1298=DIRECTION('',(-1.,7.49879891330929E-33,-1.22464679914735E-16));
#1299=DIRECTION('',(7.49879891330929E-33,-1.,-1.22464679914735E-16));
#1300=DIRECTION('',(1.,-7.49879891330929E-33,1.22464679914735E-16));
#1301=DIRECTION('',(-1.22464679914735E-16,-1.22464679914735E-16,1.));
#1302=DIRECTION('',(-8.65956056235493E-17,-0.707106781186548,0.707106781186547));
#1303=DIRECTION('',(-1.22464679914735E-16,-1.22464679914735E-16,1.));
#1304=DIRECTION('',(6.40930612932372E-18,-0.998629534754574,-0.052335956242944));
#1305=DIRECTION('',(1.22464679914735E-16,3.15211732801047E-16,-1.));
#1306=DIRECTION('',(-2.61340932313862E-32,1.,2.74633405877613E-16));
#1307=DIRECTION('',(-1.22464679914735E-16,-1.79527952150814E-16,1.));
#1308=DIRECTION('',(-7.49879891330929E-33,1.,1.22464679914735E-16));
#1309=DIRECTION('',(1.22464679914735E-16,3.15211732801047E-16,-1.));
#1310=DIRECTION('',(7.49879891330929E-33,-1.,-1.22464679914735E-16));
#1311=DIRECTION('',(-1.22464679914735E-16,-1.22464679914735E-16,1.));
#1312=DIRECTION('',(-8.65956056235494E-17,-0.707106781186548,0.707106781186548));
#1313=DIRECTION('',(1.,-7.49879891330929E-33,1.22464679914735E-16));
#1314=DIRECTION('',(1.22464679914735E-16,1.22464679914735E-16,-1.));
#1315=DIRECTION('',(1.,-7.49879891330929E-33,1.22464679914735E-16));
#1316=DIRECTION('',(1.,-7.49879891330929E-33,1.22464679914735E-16));
#1317=DIRECTION('',(7.49879891330929E-33,-1.,-1.22464679914735E-16));
#1318=DIRECTION('',(-1.,7.49879891330929E-33,-1.22464679914735E-16));
#1319=DIRECTION('',(1.,-7.49879891330929E-33,1.22464679914735E-16));
#1320=DIRECTION('',(-1.,7.49879891330929E-33,-1.22464679914735E-16));
#1321=DIRECTION('',(1.2229684632712E-16,0.052335956242944,-0.998629534754574));
#1322=DIRECTION('',(1.,-7.49879891330929E-33,1.22464679914735E-16));
#1323=DIRECTION('',(1.,-7.49879891330929E-33,1.22464679914735E-16));
#1324=DIRECTION('',(6.40930612932372E-18,-0.998629534754574,-0.052335956242944));
#1325=DIRECTION('',(1.,-7.49879891330929E-33,1.22464679914735E-16));
#1326=DIRECTION('',(1.2229684632712E-16,0.052335956242944,-0.998629534754574));
#1327=DIRECTION('',(-6.40930612932372E-18,0.998629534754574,0.052335956242944));
#1328=DIRECTION('',(1.2229684632712E-16,0.052335956242944,-0.998629534754574));
#1329=DIRECTION('',(-6.40930612932372E-18,0.998629534754574,0.052335956242944));
#1330=DIRECTION('',(-1.,-2.43945488809238E-16,-1.35249321249343E-16));
#1331=DIRECTION('',(1.2229684632712E-16,0.052335956242944,-0.998629534754574));
#1332=DIRECTION('',(6.40930612932372E-18,-0.998629534754574,-0.052335956242944));
#1333=DIRECTION('',(1.2229684632712E-16,0.052335956242944,-0.998629534754574));
#1334=DIRECTION('',(6.40930612932372E-18,-0.998629534754574,-0.052335956242944));
#1335=DIRECTION('',(1.,-7.49879891330929E-33,1.22464679914735E-16));
#1336=DIRECTION('',(1.2229684632712E-16,0.052335956242944,-0.998629534754574));
#1337=DIRECTION('',(-3.15851167342926E-16,0.998629534754574,0.052335956242944));
#1338=DIRECTION('',(1.,1.07866476172347E-16,1.28117722390015E-16));
#1339=DIRECTION('',(1.2229684632712E-16,0.052335956242944,-0.998629534754574));
#1340=DIRECTION('',(3.15851167342926E-16,-0.998629534754574,-0.052335956242944));
#1341=DIRECTION('',(1.,-7.49879891330929E-33,1.22464679914735E-16));
#1342=DIRECTION('',(1.2229684632712E-16,0.052335956242944,-0.998629534754574));
#1343=DIRECTION('',(-6.40930612932372E-18,0.998629534754574,0.052335956242944));
#1344=DIRECTION('',(1.2229684632712E-16,0.052335956242944,-0.998629534754574));
#1345=DIRECTION('',(6.40930612932372E-18,-0.998629534754574,-0.052335956242944));
#1346=DIRECTION('',(1.,1.0842021724855E-16,1.28146742730117E-16));
#1347=DIRECTION('',(1.2229684632712E-16,0.052335956242944,-0.998629534754574));
#1348=DIRECTION('',(-6.40930612932372E-18,0.998629534754574,0.052335956242944));
#1349=DIRECTION('',(1.2229684632712E-16,0.052335956242944,-0.998629534754574));
#1350=DIRECTION('',(6.40930612932372E-18,-0.998629534754574,-0.052335956242944));
#1351=DIRECTION('',(1.,-7.49879891330929E-33,1.22464679914735E-16));
#1352=DIRECTION('',(1.2229684632712E-16,0.052335956242944,-0.998629534754574));
#1353=DIRECTION('',(-1.,7.49879891330929E-33,-1.22464679914735E-16));
#1354=DIRECTION('',(-1.2229684632712E-16,-0.052335956242944,0.998629534754574));
#1355=DIRECTION('',(1.,-7.49879891330929E-33,1.22464679914735E-16));
#1356=DIRECTION('',(3.11035050495401E-32,-1.,-3.15211732801047E-16));
#1357=DIRECTION('',(1.22464679914735E-16,3.15211732801047E-16,-1.));
#1358=DIRECTION('',(1.,-7.49879891330929E-33,1.22464679914735E-16));
#1359=DIRECTION('',(-1.22464679914735E-16,-3.15211732801047E-16,1.));
#1360=DIRECTION('',(1.,-7.49879891330929E-33,1.22464679914735E-16));
#1361=DIRECTION('',(-1.22464679914735E-16,-3.15211732801047E-16,1.));
#1362=DIRECTION('',(1.,-7.49879891330929E-33,1.22464679914735E-16));
#1363=DIRECTION('',(-1.22464679914735E-16,-3.15211732801047E-16,1.));
#1364=DIRECTION('',(1.,-7.49879891330929E-33,1.22464679914735E-16));
#1365=DIRECTION('',(1.22464679914735E-16,3.15211732801047E-16,-1.));
#1366=DIRECTION('',(1.,-7.49879891330929E-33,1.22464679914735E-16));
#1367=DIRECTION('',(1.,-7.49879891330929E-33,1.22464679914735E-16));
#1368=DIRECTION('',(1.22464679914735E-16,1.22464679914735E-16,-1.));
#1369=DIRECTION('',(1.,-7.49879891330929E-33,1.22464679914735E-16));
#1370=DIRECTION('',(-1.22464679914735E-16,-1.22464679914735E-16,1.));
#1371=DIRECTION('',(1.,-7.49879891330929E-33,1.22464679914735E-16));
#1372=DIRECTION('',(-1.22464679914735E-16,-1.22464679914735E-16,1.));
#1373=DIRECTION('',(3.11035050495401E-32,-1.,-3.15211732801047E-16));
#1374=DIRECTION('',(1.22464679914735E-16,3.15211732801047E-16,-1.));
#1375=DIRECTION('',(-1.22464679914735E-16,-3.15211732801047E-16,1.));
#1376=DIRECTION('',(-1.,7.49879891330929E-33,-1.22464679914735E-16));
#1377=DIRECTION('',(-1.22464679914735E-16,-3.15211732801047E-16,1.));
#1378=DIRECTION('',(1.,-7.49879891330929E-33,1.22464679914735E-16));
#1379=DIRECTION('',(1.22464679914735E-16,3.15211732801047E-16,-1.));
#1380=DIRECTION('',(-1.22464679914735E-16,-3.15211732801047E-16,1.));
#1381=DIRECTION('',(-1.,7.49879891330929E-33,-1.22464679914735E-16));
#1382=DIRECTION('',(-1.22464679914735E-16,-3.15211732801047E-16,1.));
#1383=DIRECTION('',(-1.,7.49879891330929E-33,-1.22464679914735E-16));
#1384=DIRECTION('',(-1.22464679914735E-16,-3.15211732801047E-16,1.));
#1385=DIRECTION('',(-1.,7.49879891330929E-33,-1.22464679914735E-16));
#1386=DIRECTION('',(7.49879891330929E-33,-1.,-1.22464679914735E-16));
#1387=DIRECTION('',(1.22464679914735E-16,1.22464679914735E-16,-1.));
#1388=DIRECTION('',(1.,-7.49879891330929E-33,1.22464679914735E-16));
#1389=DIRECTION('',(1.,-7.49879891330929E-33,1.22464679914735E-16));
#1390=DIRECTION('',(1.,-7.49879891330929E-33,1.22464679914735E-16));
#1391=DIRECTION('',(7.49879891330929E-33,-1.,-1.22464679914735E-16));
#1392=DIRECTION('',(-8.65956056235493E-17,-0.707106781186548,0.707106781186547));
#1393=DIRECTION('',(-8.65956056235494E-17,-0.707106781186548,0.707106781186548));
#1394=DIRECTION('',(1.22464679914735E-16,1.22464679914735E-16,-1.));
#1395=DIRECTION('',(-7.49879891330929E-33,1.,1.22464679914735E-16));
#1396=DIRECTION('',(-7.49879891330929E-33,1.,1.22464679914735E-16));
#1397=DIRECTION('',(-1.22464679914735E-16,-1.79527952150814E-16,1.));
#1398=DIRECTION('',(-2.61340932313862E-32,1.,2.74633405877613E-16));
#1399=DIRECTION('',(-1.22464679914735E-16,-1.22464679914735E-16,1.));
#1400=DIRECTION('',(-1.,7.49879891330929E-33,-1.22464679914735E-16));
#1401=DIRECTION('',(-1.,7.49879891330929E-33,-1.22464679914735E-16));
#1402=DIRECTION('',(-1.,7.49879891330929E-33,-1.22464679914735E-16));
#1403=DIRECTION('',(-1.22464679914735E-16,-1.22464679914735E-16,1.));
#1404=DIRECTION('',(-1.,7.49879891330929E-33,-1.22464679914735E-16));
#1405=DIRECTION('',(-1.22464679914735E-16,-1.22464679914735E-16,1.));
#1406=DIRECTION('',(-1.,7.49879891330929E-33,-1.22464679914735E-16));
#1407=DIRECTION('',(-1.,-1.0842021724855E-16,-1.22464679914735E-16));
#1408=DIRECTION('',(-1.22464679914735E-16,-1.22464679914735E-16,1.));
#1409=DIRECTION('',(-1.,7.49879891330929E-33,-1.22464679914735E-16));
#1410=DIRECTION('',(-1.22464679914735E-16,-1.22464679914735E-16,1.));
#1411=DIRECTION('',(-1.,7.49879891330929E-33,-1.22464679914735E-16));
#1412=DIRECTION('',(1.,-7.49879891330929E-33,1.22464679914735E-16));
#1413=DIRECTION('',(-1.22464679914735E-16,-1.22464679914735E-16,1.));
#1414=DIRECTION('',(1.23908819712629E-16,-1.,-1.22464679914735E-16));
#1415=DIRECTION('',(-1.,-1.08479156057063E-16,-1.21114759262855E-16));
#1416=DIRECTION('',(-1.22464679914735E-16,-1.22464679914735E-16,1.));
#1417=DIRECTION('',(-1.23908819712629E-16,1.,1.22464679914735E-16));
#1418=DIRECTION('',(1.,-7.49879891330929E-33,1.22464679914735E-16));
#1419=DIRECTION('',(-1.22464679914735E-16,-1.22464679914735E-16,1.));
#1420=DIRECTION('',(-1.,7.49879891330929E-33,-1.22464679914735E-16));
#1421=DIRECTION('',(-1.22464679914735E-16,-1.22464679914735E-16,1.));
#1422=DIRECTION('',(-1.,7.49879891330929E-33,-1.22464679914735E-16));
#1423=DIRECTION('',(1.,2.43945488809238E-16,1.22464679914735E-16));
#1424=DIRECTION('',(-1.22464679914735E-16,-1.22464679914735E-16,1.));
#1425=DIRECTION('',(-1.,7.49879891330929E-33,-1.22464679914735E-16));
#1426=DIRECTION('',(-1.22464679914735E-16,-1.22464679914735E-16,1.));
#1427=DIRECTION('',(-1.,7.49879891330929E-33,-1.22464679914735E-16));
#1428=DIRECTION('',(3.11035050495401E-32,-1.,-3.15211732801047E-16));
#1429=DIRECTION('',(1.22464679914735E-16,3.15211732801047E-16,-1.));
#1430=DIRECTION('',(1.22464679914735E-16,3.15211732801047E-16,-1.));
#1431=DIRECTION('',(3.11035050495401E-32,-1.,-3.15211732801047E-16));
#1432=DIRECTION('',(1.11624062879003E-16,3.15211732801047E-16,-1.));
#1433=DIRECTION('',(3.11035050495401E-32,-1.,-3.15211732801047E-16));
#1434=DIRECTION('',(1.22464679914735E-16,3.15211732801047E-16,-1.));
#1435=DIRECTION('',(1.22464679914735E-16,3.15211732801047E-16,-1.));
#1436=DIRECTION('',(3.11035050495401E-32,-1.,-3.15211732801047E-16));
#1437=DIRECTION('',(-1.11624062879003E-16,-3.15211732801047E-16,1.));
#1438=DIRECTION('',(7.49879891330929E-33,-1.,-1.22464679914735E-16));
#1439=DIRECTION('',(1.22464679914735E-16,1.22464679914735E-16,-1.));
#1440=DIRECTION('',(-0.707106781186546,8.65956056235496E-17,-0.70710678118655));
#1441=DIRECTION('',(7.49879891330929E-33,-1.,-1.22464679914735E-16));
#1442=DIRECTION('',(1.22464679914735E-16,1.22464679914735E-16,-1.));
#1443=DIRECTION('',(-0.70710678118655,-8.65956056235491E-17,0.707106781186546));
#1444=DIRECTION('',(1.,-7.49879891330929E-33,1.22464679914735E-16));
#1445=DIRECTION('',(1.22464679914735E-16,1.22464679914735E-16,-1.));
#1446=DIRECTION('',(1.,-7.49879891330929E-33,1.22464679914735E-16));
#1447=DIRECTION('',(-1.,7.49879891330929E-33,-1.22464679914735E-16));
#1448=DIRECTION('',(1.22464679914735E-16,1.22464679914735E-16,-1.));
#1449=DIRECTION('',(1.,-7.49879891330929E-33,1.22464679914735E-16));
#1450=DIRECTION('',(-1.22464679914735E-16,-1.22464679914735E-16,1.));
#1451=DIRECTION('',(1.,-7.49879891330929E-33,1.22464679914735E-16));
#1452=DIRECTION('',(-1.22464679914735E-16,-1.22464679914735E-16,1.));
#1453=DIRECTION('',(1.18622206918771E-16,-0.996194698091746,-0.0871557427476583));
#1454=DIRECTION('',(-1.,-1.08479156057063E-16,-1.21114759262855E-16));
#1455=DIRECTION('',(1.11199299619522E-16,0.0871557427476583,-0.996194698091746));
#1456=DIRECTION('',(1.11199299619522E-16,0.0871557427476583,-0.996194698091746));
#1457=DIRECTION('',(1.0842021724855E-16,-1.,-1.22464679914735E-16));
#1458=DIRECTION('',(-1.,-1.0842021724855E-16,-1.22464679914735E-16));
#1459=DIRECTION('',(1.0842021724855E-16,-1.,-1.22464679914735E-16));
#1460=DIRECTION('',(-0.707106781186547,-8.65956056235495E-17,0.707106781186549));
#1461=DIRECTION('',(-0.707106781186546,9.93093478938099E-18,-0.70710678118655));
#1462=DIRECTION('',(-0.70710678118655,-1.63260276457718E-16,0.707106781186546));
#1463=DIRECTION('',(1.22464679914735E-16,1.22464679914735E-16,-1.));
#1464=DIRECTION('',(1.22464679914735E-16,1.22464679914735E-16,-1.));
#1465=DIRECTION('',(-2.43945488809238E-16,1.,1.22464679914735E-16));
#1466=DIRECTION('',(1.,2.43945488809238E-16,1.22464679914735E-16));
#1467=DIRECTION('',(1.22464679914735E-16,1.22464679914735E-16,-1.));
#1468=DIRECTION('',(1.22464679914735E-16,1.22464679914735E-16,-1.));
#1469=DIRECTION('',(1.22464679914735E-16,1.22464679914735E-16,-1.));
#1470=DIRECTION('',(1.,-7.49879891330929E-33,1.22464679914735E-16));
#1471=DIRECTION('',(1.22464679914735E-16,1.22464679914735E-16,-1.));
#1472=DIRECTION('',(1.22464679914735E-16,3.15211732801047E-16,-1.));
#1473=DIRECTION('',(-3.11035050495401E-32,1.,3.15211732801047E-16));
#1474=DIRECTION('',(-1.22464679914735E-16,-1.22464679914735E-16,1.));
#1475=DIRECTION('',(-1.,7.49879891330929E-33,-1.22464679914735E-16));
#1476=DIRECTION('',(1.22464679914735E-16,1.22464679914735E-16,-1.));
#1477=DIRECTION('',(-1.22464679914735E-16,-3.15211732801047E-16,1.));
#1478=DIRECTION('',(3.11035050495401E-32,-1.,-3.15211732801047E-16));
#1479=DIRECTION('',(1.22464679914735E-16,1.22464679914735E-16,-1.));
#1480=DIRECTION('',(1.,-7.49879891330929E-33,1.22464679914735E-16));
#1481=DIRECTION('',(1.22464679914735E-16,1.22464679914735E-16,-1.));
#1482=DIRECTION('',(-1.22464679914735E-16,-3.15211732801047E-16,1.));
#1483=DIRECTION('',(3.11035050495401E-32,-1.,-3.15211732801047E-16));
#1484=DIRECTION('',(-1.22464679914735E-16,-1.22464679914735E-16,1.));
#1485=DIRECTION('',(-1.,7.49879891330929E-33,-1.22464679914735E-16));
#1486=DIRECTION('',(1.22464679914735E-16,1.22464679914735E-16,-1.));
#1487=DIRECTION('',(1.22464679914735E-16,3.15211732801047E-16,-1.));
#1488=DIRECTION('',(-3.11035050495401E-32,1.,3.15211732801047E-16));
#1489=DIRECTION('',(1.11199299619522E-16,0.0871557427476583,-0.996194698091746));
#1490=DIRECTION('',(1.,4.71510468102019E-19,1.11665314699695E-16));
#1491=DIRECTION('',(-4.85969160492686E-18,0.999051848558439,0.0435362365388422));
#1492=DIRECTION('',(1.22348564851934E-16,0.0435362365388422,-0.999051848558439));
#1493=DIRECTION('',(-1.11199299619522E-16,-0.0871557427476583,0.996194698091746));
#1494=DIRECTION('',(-1.,-4.71510468102019E-19,-1.11665314699695E-16));
#1495=DIRECTION('',(-4.85969160492686E-18,0.999051848558439,0.0435362365388422));
#1496=DIRECTION('',(-1.22348564851934E-16,-0.0435362365388422,0.999051848558439));
#1497=DIRECTION('',(7.49879891330929E-33,-1.,-1.22464679914735E-16));
#1498=DIRECTION('',(-1.,7.49879891330929E-33,-1.22464679914735E-16));
#1499=DIRECTION('',(1.,-7.49879891330929E-33,1.22464679914735E-16));
#1500=DIRECTION('',(7.49879891330929E-33,-1.,-1.22464679914735E-16));
#1501=DIRECTION('',(-1.,7.49879891330929E-33,-1.22464679914735E-16));
#1502=DIRECTION('',(1.,-7.49879891330929E-33,1.22464679914735E-16));
#1503=DIRECTION('',(1.,-7.49879891330929E-33,1.22464679914735E-16));
#1504=DIRECTION('',(7.49879891330929E-33,-1.,-1.22464679914735E-16));
#1505=DIRECTION('',(1.,-7.49879891330929E-33,1.22464679914735E-16));
#1506=DIRECTION('',(7.49879891330929E-33,-1.,-1.22464679914735E-16));
#1507=DIRECTION('',(-1.22464679914735E-16,-1.22464679914735E-16,1.));
#1508=DIRECTION('',(-1.,7.49879891330929E-33,-1.22464679914735E-16));
#1509=DIRECTION('',(-7.49879891330929E-33,1.,1.22464679914735E-16));
#1510=DIRECTION('',(-1.,7.49879891330929E-33,-1.22464679914735E-16));
#1511=DIRECTION('',(1.44870342825881E-32,-1.,-1.79527952150814E-16));
#1512=DIRECTION('',(1.22464679914735E-16,1.79527952150814E-16,-1.));
#1513=DIRECTION('',(-1.22464679914735E-16,-1.79527952150814E-16,1.));
#1514=DIRECTION('',(-1.,7.49879891330929E-33,-1.22464679914735E-16));
#1515=DIRECTION('',(-1.22464679914735E-16,-2.74633405877613E-16,1.));
#1516=DIRECTION('',(2.61340932313862E-32,-1.,-2.74633405877613E-16));
#1517=DIRECTION('',(-2.61340932313862E-32,1.,2.74633405877613E-16));
#1518=DIRECTION('',(1.,-7.49879891330929E-33,1.22464679914735E-16));
#1519=DIRECTION('',(7.49879891330929E-33,-1.,-1.22464679914735E-16));
#1520=DIRECTION('',(1.22464679914735E-16,1.22464679914735E-16,-1.));
#1521=DIRECTION('',(1.,-7.49879891330929E-33,1.22464679914735E-16));
#1522=DIRECTION('',(1.,-7.49879891330929E-33,1.22464679914735E-16));
#1523=DIRECTION('',(-7.49879891330929E-33,1.,1.22464679914735E-16));
#1524=DIRECTION('',(-1.44870342825881E-32,1.,1.79527952150814E-16));
#1525=DIRECTION('',(-1.22464679914735E-16,-1.79527952150814E-16,1.));
#1526=DIRECTION('',(1.,-7.49879891330929E-33,1.22464679914735E-16));
#1527=DIRECTION('',(-1.22464679914735E-16,-1.79527952150814E-16,1.));
#1528=DIRECTION('',(1.22464679914735E-16,2.74633405877613E-16,-1.));
#1529=DIRECTION('',(-2.61340932313862E-32,1.,2.74633405877613E-16));
#1530=DIRECTION('',(-2.61340932313862E-32,1.,2.74633405877613E-16));
#1531=DIRECTION('',(1.,-7.49879891330929E-33,1.22464679914735E-16));
#1532=DIRECTION('',(7.49879891330929E-33,-1.,-1.22464679914735E-16));
#1533=DIRECTION('',(-1.2229684632712E-16,-0.052335956242944,0.998629534754574));
#1534=DIRECTION('',(6.40930612932372E-18,-0.998629534754574,-0.052335956242944));
#1535=DIRECTION('',(1.2229684632712E-16,0.052335956242944,-0.998629534754574));
#1536=DIRECTION('',(-1.,7.49879891330929E-33,-1.22464679914735E-16));
#1537=DIRECTION('',(-1.2229684632712E-16,-0.052335956242944,0.998629534754574));
#1538=DIRECTION('',(1.,-7.49879891330929E-33,1.22464679914735E-16));
#1539=DIRECTION('',(-1.2229684632712E-16,-0.052335956242944,0.998629534754574));
#1540=DIRECTION('',(6.40930612932372E-18,-0.998629534754574,-0.052335956242944));
#1541=DIRECTION('',(-1.2229684632712E-16,-0.052335956242944,0.998629534754574));
#1542=DIRECTION('',(6.40930612932372E-18,-0.998629534754574,-0.052335956242944));
#1543=DIRECTION('',(-1.2229684632712E-16,-0.052335956242944,0.998629534754574));
#1544=DIRECTION('',(1.,-7.49879891330929E-33,1.22464679914735E-16));
#1545=DIRECTION('',(-1.2229684632712E-16,-0.052335956242944,0.998629534754574));
#1546=DIRECTION('',(1.,-7.49879891330929E-33,1.22464679914735E-16));
#1547=DIRECTION('',(-1.2229684632712E-16,-0.052335956242944,0.998629534754574));
#1548=DIRECTION('',(6.40930612932372E-18,-0.998629534754574,-0.052335956242944));
#1549=DIRECTION('',(-1.2229684632712E-16,-0.052335956242944,0.998629534754574));
#1550=DIRECTION('',(6.40930612932372E-18,-0.998629534754574,-0.052335956242944));
#1551=DIRECTION('',(-1.2229684632712E-16,-0.052335956242944,0.998629534754574));
#1552=DIRECTION('',(1.,-7.49879891330929E-33,1.22464679914735E-16));
#1553=DIRECTION('',(1.2229684632712E-16,0.052335956242944,-0.998629534754574));
#1554=DIRECTION('',(1.,-7.49879891330929E-33,1.22464679914735E-16));
#1555=DIRECTION('',(-1.2229684632712E-16,-0.052335956242944,0.998629534754574));
#1556=DIRECTION('',(6.40930612932372E-18,-0.998629534754574,-0.052335956242944));
#1557=DIRECTION('',(1.2229684632712E-16,0.052335956242944,-0.998629534754574));
#1558=DIRECTION('',(-1.,7.49879891330929E-33,-1.22464679914735E-16));
#1559=DIRECTION('',(1.2229684632712E-16,0.052335956242944,-0.998629534754574));
#1560=DIRECTION('',(1.,-7.49879891330929E-33,1.22464679914735E-16));
#1561=DIRECTION('',(1.08420217248551E-16,-1.,-1.22464679914735E-16));
#1562=DIRECTION('',(-1.,-1.0842021724855E-16,-1.22464679914735E-16));
#1563=DIRECTION('',(1.08420217248551E-16,-1.,-1.22464679914735E-16));
#1564=DIRECTION('',(1.08420217248551E-16,-1.,-1.22464679914735E-16));
#1565=DIRECTION('',(0.707106781186546,-9.93093478938099E-18,0.70710678118655));
#1566=DIRECTION('',(-0.70710678118655,-8.65956056235491E-17,0.707106781186546));
#1567=DIRECTION('',(1.08420217248551E-16,-1.,-1.22464679914735E-16));
#1568=DIRECTION('',(-0.70710678118655,-1.63260276457718E-16,0.707106781186546));
#1569=DIRECTION('',(-0.707106781186546,8.65956056235496E-17,-0.70710678118655));
#1570=DIRECTION('',(-8.65956056235494E-17,0.707106781186547,0.707106781186548));
#1571=DIRECTION('',(-8.65956056235493E-17,-0.707106781186548,0.707106781186547));
#1572=DIRECTION('',(-8.65956056235494E-17,0.707106781186548,0.707106781186548));
#1573=DIRECTION('',(-8.65956056235494E-17,-0.707106781186548,0.707106781186548));
#1574=DIRECTION('',(-8.65956056235494E-17,0.707106781186548,0.707106781186548));
#1575=DIRECTION('',(-8.65956056235494E-17,-0.707106781186548,0.707106781186548));
#1576=DIRECTION('',(-8.65956056235494E-17,0.707106781186547,0.707106781186548));
#1577=DIRECTION('',(-8.65956056235493E-17,-0.707106781186548,0.707106781186547));
#1578=CARTESIAN_POINT('',(0.,0.,0.));
#1579=CARTESIAN_POINT('',(0.008,-0.00375,-0.006));
#1580=CARTESIAN_POINT('',(0.008,-0.00375,-0.006));
#1581=CARTESIAN_POINT('',(0.008,-0.00512885822331377,-0.00737885822331377));
#1582=CARTESIAN_POINT('',(0.008,-0.00237114177668624,-0.00462114177668623));
#1583=CARTESIAN_POINT('',(-1.9999999999997E-6,-0.00237114177668624,-0.00462114177668623));
#1584=CARTESIAN_POINT('',(5.65926648522491E-19,-0.00237114177668624,-0.00462114177668623));
#1585=CARTESIAN_POINT('',(7.34788079488412E-19,-0.00375,-0.006));
#1586=CARTESIAN_POINT('',(9.03649510454333E-19,-0.00512885822331377,-0.00737885822331377));
#1587=CARTESIAN_POINT('',(-1.99999999999936E-6,-0.00512885822331377,-0.00737885822331377));
#1588=CARTESIAN_POINT('',(1.46957615897682E-18,-0.004,-0.012));
#1589=CARTESIAN_POINT('',(3.43723168135453E-19,-0.00418557088834312,-0.00280671266502935));
#1590=CARTESIAN_POINT('',(1.21519687748415E-19,-0.006,-0.000992283553372465));
#1591=CARTESIAN_POINT('',(5.51091059616309E-19,-0.006,-0.0045));
#1592=CARTESIAN_POINT('',(-8.18744147913509E-19,-0.006,0.00668555332430175));
#1593=CARTESIAN_POINT('',(-8.31615534885852E-19,-0.00399451813901829,0.00679065617502822));
#1594=CARTESIAN_POINT('',(-8.57252759403147E-19,-8.57252759403147E-19,0.007));
#1595=CARTESIAN_POINT('',(1.46957615897682E-18,1.46957615897682E-18,-0.012));
#1596=CARTESIAN_POINT('',(1.46957615897682E-18,1.46957615897682E-18,-0.012));
#1597=CARTESIAN_POINT('',(1.46957615897682E-18,-0.004,-0.012));
#1598=CARTESIAN_POINT('',(1.46957615897682E-18,-0.008,-0.012));
#1599=CARTESIAN_POINT('',(1.46957615897682E-18,-0.008,-0.012));
#1600=CARTESIAN_POINT('',(1.10218211923262E-18,-0.008,-0.009));
#1601=CARTESIAN_POINT('',(1.10218211923262E-18,-0.006,-0.009));
#1602=CARTESIAN_POINT('',(1.10218211923262E-18,-0.006,-0.009));
#1603=CARTESIAN_POINT('',(5.51091059616309E-19,-0.006,-0.0045));
#1604=CARTESIAN_POINT('',(7.969654116121E-19,-0.006,-0.00650771644662754));
#1605=CARTESIAN_POINT('',(8.50307461033216E-19,-0.00556442911165688,-0.00694328733497065));
#1606=CARTESIAN_POINT('',(0.1524,-0.006,-0.0045));
#1607=CARTESIAN_POINT('',(-2.00000000000014E-6,-0.006,-0.000992283553372465));
#1608=CARTESIAN_POINT('',(0.008,-0.006,-0.000992283553372464));
#1609=CARTESIAN_POINT('',(0.008,-0.006,-0.006));
#1610=CARTESIAN_POINT('',(0.008,-0.006,0.00668555332430175));
#1611=CARTESIAN_POINT('',(0.1524,-0.006,0.00668555332430177));
#1612=CARTESIAN_POINT('',(0.3048,-0.004,-0.012));
#1613=CARTESIAN_POINT('',(0.3048,-0.00418557088834312,-0.00280671266502931));
#1614=CARTESIAN_POINT('',(0.3048,-0.00237114177668624,-0.00462114177668619));
#1615=CARTESIAN_POINT('',(0.3048,-0.006,-0.000992283553372428));
#1616=CARTESIAN_POINT('',(0.3048,-0.00375,-0.006));
#1617=CARTESIAN_POINT('',(0.3048,-0.00512885822331377,-0.00737885822331373));
#1618=CARTESIAN_POINT('',(0.3048,-0.00556442911165688,-0.00694328733497061));
#1619=CARTESIAN_POINT('',(0.3048,-0.006,-0.0065077164466275));
#1620=CARTESIAN_POINT('',(0.3048,-0.006,-0.0045));
#1621=CARTESIAN_POINT('',(0.3048,-0.006,-0.009));
#1622=CARTESIAN_POINT('',(0.3048,-0.006,-0.009));
#1623=CARTESIAN_POINT('',(0.3048,-0.008,-0.009));
#1624=CARTESIAN_POINT('',(0.3048,-0.008,-0.012));
#1625=CARTESIAN_POINT('',(0.3048,-0.008,-0.012));
#1626=CARTESIAN_POINT('',(0.3048,-0.004,-0.012));
#1627=CARTESIAN_POINT('',(0.3048,1.46957615897682E-18,-0.012));
#1628=CARTESIAN_POINT('',(0.3048,1.46957615897682E-18,-0.012));
#1629=CARTESIAN_POINT('',(0.3048,-8.57252759403149E-19,0.007));
#1630=CARTESIAN_POINT('',(0.3048,-0.00399451813901829,0.00679065617502826));
#1631=CARTESIAN_POINT('',(0.3048,-0.006,0.00668555332430179));
#1632=CARTESIAN_POINT('',(0.3048,-0.006,-0.0045));
#1633=CARTESIAN_POINT('',(0.2968,-0.004,-0.006));
#1634=CARTESIAN_POINT('',(0.2968,-0.00375,-0.006));
#1635=CARTESIAN_POINT('',(0.2968,-0.00512885822331377,-0.00737885822331373));
#1636=CARTESIAN_POINT('',(0.2968,-0.00237114177668624,-0.0046211417766862));
#1637=CARTESIAN_POINT('',(0.2968,-0.00418557088834312,-0.00280671266502931));
#1638=CARTESIAN_POINT('',(0.2968,-0.006,-0.000992283553372429));
#1639=CARTESIAN_POINT('',(0.2968,-0.006,-0.006));
#1640=CARTESIAN_POINT('',(0.2968,-0.006,0.00668555332430179));
#1641=CARTESIAN_POINT('',(0.2968,-0.00399451813901829,0.00679065617502826));
#1642=CARTESIAN_POINT('',(0.2968,-0.002,0.00689518444143395));
#1643=CARTESIAN_POINT('',(0.2968,-0.002,-0.0045));
#1644=CARTESIAN_POINT('',(0.2968,-0.002,-0.00314999999999996));
#1645=CARTESIAN_POINT('',(0.2968,-0.00375,-0.00314999999999996));
#1646=CARTESIAN_POINT('',(0.2968,-0.0009,-0.00314999999999996));
#1647=CARTESIAN_POINT('',(0.2968,-0.0009,-0.006));
#1648=CARTESIAN_POINT('',(0.2968,-0.0009,-0.00885));
#1649=CARTESIAN_POINT('',(0.2968,-0.00375,-0.00885));
#1650=CARTESIAN_POINT('',(0.2968,-0.002,-0.00885));
#1651=CARTESIAN_POINT('',(0.2968,-0.002,-0.0045));
#1652=CARTESIAN_POINT('',(0.2968,-0.002,-0.009));
#1653=CARTESIAN_POINT('',(0.2968,-0.005,-0.009));
#1654=CARTESIAN_POINT('',(0.2968,-0.006,-0.009));
#1655=CARTESIAN_POINT('',(0.2968,-0.006,-0.006));
#1656=CARTESIAN_POINT('',(0.2968,-0.006,-0.0065077164466275));
#1657=CARTESIAN_POINT('',(0.2968,-0.00556442911165688,-0.00694328733497062));
#1658=CARTESIAN_POINT('',(0.2968,-0.00375,-0.006));
#1659=CARTESIAN_POINT('',(0.296798,-0.00512885822331377,-0.00737885822331373));
#1660=CARTESIAN_POINT('',(0.296798,-0.00237114177668624,-0.0046211417766862));
#1661=CARTESIAN_POINT('',(0.1524,-0.006,-0.0045));
#1662=CARTESIAN_POINT('',(0.296798,-0.006,-0.000992283553372429));
#1663=CARTESIAN_POINT('',(0.1524,-0.006,0.00668555332430177));
#1664=CARTESIAN_POINT('',(0.1524,-0.00399451813901829,0.00679065617502824));
#1665=CARTESIAN_POINT('',(0.1524,-8.57252759403148E-19,0.007));
#1666=CARTESIAN_POINT('',(0.008,-0.00399451813901829,0.00679065617502823));
#1667=CARTESIAN_POINT('',(0.008,-0.002,0.00689518444143392));
#1668=CARTESIAN_POINT('',(-0.000351016580858899,-0.002,0.00689518444143392));
#1669=CARTESIAN_POINT('',(0.0544,-0.002,0.00689518444143392));
#1670=CARTESIAN_POINT('',(0.0544,-0.004,0.00679036888286784));
#1671=CARTESIAN_POINT('',(0.0564,-0.004,0.00679036888286784));
#1672=CARTESIAN_POINT('',(0.0584,-0.004,0.00679036888286784));
#1673=CARTESIAN_POINT('',(0.0584,-0.006,0.00668555332430176));
#1674=CARTESIAN_POINT('',(0.0724,-0.006,0.00668555332430176));
#1675=CARTESIAN_POINT('',(0.0864,-0.006,0.00668555332430176));
#1676=CARTESIAN_POINT('',(0.0864,-0.004,0.00679036888286784));
#1677=CARTESIAN_POINT('',(0.0884,-0.004,0.00679036888286784));
#1678=CARTESIAN_POINT('',(0.0904,-0.004,0.00679036888286785));
#1679=CARTESIAN_POINT('',(0.0904,-0.002,0.00689518444143393));
#1680=CARTESIAN_POINT('',(-0.000351016580858899,-0.002,0.00689518444143392));
#1681=CARTESIAN_POINT('',(0.134644761531783,-0.002,0.00689518444143393));
#1682=CARTESIAN_POINT('',(0.134644761531783,-0.002,0.00689518444143393));
#1683=CARTESIAN_POINT('',(0.135290632455281,-0.00200000000000002,0.00689518444143393));
#1684=CARTESIAN_POINT('',(0.136546773623743,-0.00266485267840332,0.00686034098900843));
#1685=CARTESIAN_POINT('',(0.136742288708046,-0.00407678365958405,0.00678634482178383));
#1686=CARTESIAN_POINT('',(0.136521091644828,-0.00468274114266571,0.00675458793575558));
#1687=CARTESIAN_POINT('',(0.136521091644828,-0.0046827411426657,0.00675458793575558));
#1688=CARTESIAN_POINT('',(0.1384,-0.00536756817657972,0.00671869767171515));
#1689=CARTESIAN_POINT('',(0.1384,-0.00736604465779558,0.00661396188651119));
#1690=CARTESIAN_POINT('',(0.1524,-0.00736604466396796,0.00661396195706176));
#1691=CARTESIAN_POINT('',(0.1664,-0.00736604465779558,0.00661396188651119));
#1692=CARTESIAN_POINT('',(0.1664,-0.00536756817657972,0.00671869767171515));
#1693=CARTESIAN_POINT('',(0.168278908355172,-0.0046827411426657,0.00675458793575558));
#1694=CARTESIAN_POINT('',(0.168278908355172,-0.0046827411426657,0.00675458793575558));
#1695=CARTESIAN_POINT('',(0.168057707128872,-0.00407677225504431,0.00678634541947043));
#1696=CARTESIAN_POINT('',(0.16824920510476,-0.002670629741907,0.00686003822593943));
#1697=CARTESIAN_POINT('',(0.169509349452841,-0.00199999999999999,0.00689518444143394));
#1698=CARTESIAN_POINT('',(0.170155238468217,-0.002,0.00689518444143394));
#1699=CARTESIAN_POINT('',(0.170155238468217,-0.002,0.00689518444143394));
#1700=CARTESIAN_POINT('',(-0.000351016580858899,-0.002,0.00689518444143392));
#1701=CARTESIAN_POINT('',(0.2144,-0.002,0.00689518444143394));
#1702=CARTESIAN_POINT('',(0.2144,-0.004,0.00679036888286786));
#1703=CARTESIAN_POINT('',(0.2164,-0.004,0.00679036888286786));
#1704=CARTESIAN_POINT('',(0.2184,-0.004,0.00679036888286786));
#1705=CARTESIAN_POINT('',(0.2184,-0.006,0.00668555332430178));
#1706=CARTESIAN_POINT('',(0.2324,-0.006,0.00668555332430178));
#1707=CARTESIAN_POINT('',(0.2464,-0.006,0.00668555332430178));
#1708=CARTESIAN_POINT('',(0.2464,-0.004,0.00679036888286786));
#1709=CARTESIAN_POINT('',(0.2484,-0.004,0.00679036888286786));
#1710=CARTESIAN_POINT('',(0.2504,-0.004,0.00679036888286787));
#1711=CARTESIAN_POINT('',(0.2504,-0.002,0.00689518444143395));
#1712=CARTESIAN_POINT('',(-0.000351016580858899,-0.002,0.00689518444143392));
#1713=CARTESIAN_POINT('',(0.1584,-0.00359506632511647,0.00681159055752542));
#1714=CARTESIAN_POINT('',(0.15615,-0.00359506632511647,0.00681159055752542));
#1715=CARTESIAN_POINT('',(0.1464,-0.00359506632511647,0.00681159055752542));
#1716=CARTESIAN_POINT('',(0.14865,-0.00359506632511647,0.00681159055752542));
#1717=CARTESIAN_POINT('',(-0.000351016580858898,-0.002,-0.0045));
#1718=CARTESIAN_POINT('',(-0.000351016580858897,-0.002,-0.00885));
#1719=CARTESIAN_POINT('',(0.2925,-0.002,-0.00885));
#1720=CARTESIAN_POINT('',(0.2925,-0.002,-0.0045));
#1721=CARTESIAN_POINT('',(0.2925,-0.002,-0.00686023252670422));
#1722=CARTESIAN_POINT('',(0.2898,-0.002,-0.00686023252670422));
#1723=CARTESIAN_POINT('',(0.2898,-0.002,-0.00686023252670422));
#1724=CARTESIAN_POINT('',(0.2898,-0.002,-0.0045));
#1725=CARTESIAN_POINT('',(0.2898,-0.002,-0.0051397674732957));
#1726=CARTESIAN_POINT('',(0.2898,-0.002,-0.0051397674732957));
#1727=CARTESIAN_POINT('',(0.2925,-0.002,-0.0051397674732957));
#1728=CARTESIAN_POINT('',(0.2925,-0.002,-0.0045));
#1729=CARTESIAN_POINT('',(0.2925,-0.002,-0.00314999999999996));
#1730=CARTESIAN_POINT('',(-0.000351016580858898,-0.002,-0.00315));
#1731=CARTESIAN_POINT('',(0.2504,-0.002,-0.0045));
#1732=CARTESIAN_POINT('',(0.2504,-0.002,-0.009));
#1733=CARTESIAN_POINT('',(-0.000351016580858897,-0.002,-0.009));
#1734=CARTESIAN_POINT('',(0.2968,-0.00375,-0.006));
#1735=CARTESIAN_POINT('',(0.2925,-0.00375,-0.006));
#1736=CARTESIAN_POINT('',(0.2898,-0.00375,-0.006));
#1737=CARTESIAN_POINT('',(-0.000351016580858898,-0.002,-0.0045));
#1738=CARTESIAN_POINT('',(0.0123,-0.002,-0.0045));
#1739=CARTESIAN_POINT('',(0.0123,-0.002,-0.00885));
#1740=CARTESIAN_POINT('',(0.0123,-0.002,-0.00686023252670426));
#1741=CARTESIAN_POINT('',(-0.000351016580858897,-0.002,-0.00885));
#1742=CARTESIAN_POINT('',(0.008,-0.002,-0.00885));
#1743=CARTESIAN_POINT('',(0.008,-0.002,-0.0045));
#1744=CARTESIAN_POINT('',(0.008,-0.002,-0.009));
#1745=CARTESIAN_POINT('',(-0.000351016580858897,-0.002,-0.009));
#1746=CARTESIAN_POINT('',(0.0544,-0.002,-0.009));
#1747=CARTESIAN_POINT('',(0.0544,-0.002,6.41724334230405E-18));
#1748=CARTESIAN_POINT('',(0.008,-0.002,-0.0045));
#1749=CARTESIAN_POINT('',(0.008,-0.002,-0.00315));
#1750=CARTESIAN_POINT('',(-0.000351016580858898,-0.002,-0.00315));
#1751=CARTESIAN_POINT('',(0.0123,-0.002,-0.00315));
#1752=CARTESIAN_POINT('',(0.0123,-0.002,-0.0045));
#1753=CARTESIAN_POINT('',(0.0123,-0.002,-0.00513976747329574));
#1754=CARTESIAN_POINT('',(0.015,-0.002,-0.00513976747329574));
#1755=CARTESIAN_POINT('',(0.015,-0.002,-0.00513976747329574));
#1756=CARTESIAN_POINT('',(0.015,-0.002,-0.0045));
#1757=CARTESIAN_POINT('',(0.015,-0.002,-0.00686023252670426));
#1758=CARTESIAN_POINT('',(0.015,-0.002,-0.00686023252670426));
#1759=CARTESIAN_POINT('',(0.1524,-0.008,-0.012));
#1760=CARTESIAN_POINT('',(-0.000351016580858897,-0.008,-0.009));
#1761=CARTESIAN_POINT('',(0.1524,-0.008,-0.012));
#1762=CARTESIAN_POINT('',(0.008,-0.004,-0.006));
#1763=CARTESIAN_POINT('',(0.008,-0.00418557088834312,-0.00280671266502935));
#1764=CARTESIAN_POINT('',(0.008,-0.00556442911165688,-0.00694328733497065));
#1765=CARTESIAN_POINT('',(0.008,-0.006,-0.00650771644662753));
#1766=CARTESIAN_POINT('',(0.008,-0.006,-0.006));
#1767=CARTESIAN_POINT('',(0.008,-0.006,-0.009));
#1768=CARTESIAN_POINT('',(0.008,-0.005,-0.009));
#1769=CARTESIAN_POINT('',(0.008,-0.00375,-0.00885));
#1770=CARTESIAN_POINT('',(0.008,-0.0009,-0.00885));
#1771=CARTESIAN_POINT('',(0.008,-0.0009,-0.006));
#1772=CARTESIAN_POINT('',(0.008,-0.0009,-0.00315));
#1773=CARTESIAN_POINT('',(0.008,-0.00375,-0.00315));
#1774=CARTESIAN_POINT('',(-0.000351016580858897,-0.005,-0.009));
#1775=CARTESIAN_POINT('',(0.1524,-0.006,-0.009));
#1776=CARTESIAN_POINT('',(0.1524,-0.006,-0.009));
#1777=CARTESIAN_POINT('',(0.2504,-0.004,-0.009));
#1778=CARTESIAN_POINT('',(0.2484,-0.004,-0.009));
#1779=CARTESIAN_POINT('',(0.2464,-0.004,-0.009));
#1780=CARTESIAN_POINT('',(0.2464,-0.006,-0.009));
#1781=CARTESIAN_POINT('',(0.2324,-0.006,-0.009));
#1782=CARTESIAN_POINT('',(0.2184,-0.006,-0.009));
#1783=CARTESIAN_POINT('',(0.2184,-0.004,-0.009));
#1784=CARTESIAN_POINT('',(0.2164,-0.004,-0.009));
#1785=CARTESIAN_POINT('',(0.2144,-0.004,-0.009));
#1786=CARTESIAN_POINT('',(0.2144,-0.002,-0.009));
#1787=CARTESIAN_POINT('',(-0.000351016580858897,-0.002,-0.009));
#1788=CARTESIAN_POINT('',(0.170399992759832,-0.002,-0.009));
#1789=CARTESIAN_POINT('',(0.170399992759832,-0.002,-0.009));
#1790=CARTESIAN_POINT('',(0.169872417698788,-0.00200000000000004,-0.009));
#1791=CARTESIAN_POINT('',(0.168838552701715,-0.00243356414467648,-0.00899999999999996));
#1792=CARTESIAN_POINT('',(0.168401000136172,-0.00346862061941846,-0.009));
#1793=CARTESIAN_POINT('',(0.16839999635226,-0.0039961947257478,-0.009));
#1794=CARTESIAN_POINT('',(0.16839999635226,-0.0039961947257478,-0.009));
#1795=CARTESIAN_POINT('',(0.1664,-0.0039923603249133,-0.009));
#1796=CARTESIAN_POINT('',(0.1664,-0.006,-0.009));
#1797=CARTESIAN_POINT('',(0.1524,-0.006,-0.009));
#1798=CARTESIAN_POINT('',(0.1384,-0.006,-0.009));
#1799=CARTESIAN_POINT('',(0.1384,-0.00399236032491331,-0.009));
#1800=CARTESIAN_POINT('',(0.13640000364774,-0.00399619472574781,-0.009));
#1801=CARTESIAN_POINT('',(0.13640000364774,-0.00399619472574781,-0.009));
#1802=CARTESIAN_POINT('',(0.136398999863828,-0.00346862061954657,-0.009));
#1803=CARTESIAN_POINT('',(0.135963469412308,-0.00243558241483327,-0.00899999999999996));
#1804=CARTESIAN_POINT('',(0.134927582301083,-0.00200000000000004,-0.009));
#1805=CARTESIAN_POINT('',(0.134400007240168,-0.002,-0.009));
#1806=CARTESIAN_POINT('',(0.134400007240168,-0.002,-0.009));
#1807=CARTESIAN_POINT('',(-0.000351016580858897,-0.002,-0.009));
#1808=CARTESIAN_POINT('',(0.0904,-0.002,-0.009));
#1809=CARTESIAN_POINT('',(0.0904,-0.004,-0.009));
#1810=CARTESIAN_POINT('',(0.0884,-0.004,-0.009));
#1811=CARTESIAN_POINT('',(0.0864,-0.004,-0.009));
#1812=CARTESIAN_POINT('',(0.0864,-0.006,-0.009));
#1813=CARTESIAN_POINT('',(0.0724,-0.006,-0.009));
#1814=CARTESIAN_POINT('',(0.0584,-0.006,-0.009));
#1815=CARTESIAN_POINT('',(0.0584,-0.004,-0.009));
#1816=CARTESIAN_POINT('',(0.0564,-0.004,-0.009));
#1817=CARTESIAN_POINT('',(0.0544,-0.004,-0.009));
#1818=CARTESIAN_POINT('',(-0.000351016580858898,-0.002,-0.0045));
#1819=CARTESIAN_POINT('',(0.0904,-0.002,-0.0045));
#1820=CARTESIAN_POINT('',(0.1384,-0.002,-0.00891267811418303));
#1821=CARTESIAN_POINT('',(-0.000351016580858898,-0.002,-0.0045));
#1822=CARTESIAN_POINT('',(0.2144,-0.002,2.64452729976559E-17));
#1823=CARTESIAN_POINT('',(0.1664,-0.002,-0.00891267811418299));
#1824=CARTESIAN_POINT('',(0.1524,1.46957615897682E-18,-0.012));
#1825=CARTESIAN_POINT('',(0.184857291325365,5.44444795203696E-18,-0.044457291325365));
#1826=CARTESIAN_POINT('',(0.2324,-3.77854648081745E-19,0.0030854173492702));
#1827=CARTESIAN_POINT('',(0.23027867965644,-1.18067831211093E-19,0.000964097005710527));
#1828=CARTESIAN_POINT('',(0.2324,1.41718985659558E-19,-0.00115722333784914));
#1829=CARTESIAN_POINT('',(0.234521320343559,-1.18067831211096E-19,0.000964097005710554));
#1830=CARTESIAN_POINT('',(0.199942708674635,-4.35272644114188E-18,0.0355427086746352));
#1831=CARTESIAN_POINT('',(0.1524,1.46957615897682E-18,-0.012));
#1832=CARTESIAN_POINT('',(0.1524,-0.004,-0.012));
#1833=CARTESIAN_POINT('',(0.008,-0.00375,-0.006));
#1834=CARTESIAN_POINT('',(0.0123,-0.00375,-0.006));
#1835=CARTESIAN_POINT('',(0.015,-0.00375,-0.006));
#1836=CARTESIAN_POINT('',(0.1524,-0.00678457599621442,-3.22553277780885E-5));
#1837=CARTESIAN_POINT('',(0.1384,-0.00678457599621442,-3.22553277780902E-5));
#1838=CARTESIAN_POINT('',(0.1664,-0.00678440168472892,-3.42477171742705E-5));
#1839=CARTESIAN_POINT('',(0.2324,-0.006,2.00000000002799E-6));
#1840=CARTESIAN_POINT('',(0.2324,-0.006,-0.00115722333784914));
#1841=CARTESIAN_POINT('',(0.23027867965644,-0.006,0.000964097005710528));
#1842=CARTESIAN_POINT('',(0.234521320343559,-0.006,0.000964097005710553));
#1843=CARTESIAN_POINT('',(0.23133933982822,-0.006,0.00202475717749037));
#1844=CARTESIAN_POINT('',(0.2324,-0.006,0.0030854173492702));
#1845=CARTESIAN_POINT('',(0.23346066017178,-0.006,0.00202475717749037));
#1846=CARTESIAN_POINT('',(0.2184,-0.006,2.00000000002627E-6));
#1847=CARTESIAN_POINT('',(0.2464,-0.006,2.94405090515024E-17));
#1848=CARTESIAN_POINT('',(0.0724,-0.006,2.00000000000839E-6));
#1849=CARTESIAN_POINT('',(0.0864,-0.006,2.00000000001011E-6));
#1850=CARTESIAN_POINT('',(0.0584,-0.006,-0.009));
#1851=CARTESIAN_POINT('',(0.0864,-0.004,2.00000000001035E-6));
#1852=CARTESIAN_POINT('',(0.0884,-0.004,2.0000000000106E-6));
#1853=CARTESIAN_POINT('',(0.0904,-0.004,-0.0045));
#1854=CARTESIAN_POINT('',(0.0584,-0.004,2.00000000000692E-6));
#1855=CARTESIAN_POINT('',(0.0564,-0.004,6.41714922753213E-18));
#1856=CARTESIAN_POINT('',(0.0544,-0.004,2.00000000000625E-6));
#1857=CARTESIAN_POINT('',(0.2184,-0.004,2.00000000002652E-6));
#1858=CARTESIAN_POINT('',(0.2164,-0.004,2.00000000002627E-6));
#1859=CARTESIAN_POINT('',(0.2144,-0.004,2.00000000002584E-6));
#1860=CARTESIAN_POINT('',(0.2464,-0.004,2.00000000002995E-6));
#1861=CARTESIAN_POINT('',(0.2484,-0.004,-0.009));
#1862=CARTESIAN_POINT('',(0.2504,-0.004,-0.0045));
#1863=CARTESIAN_POINT('',(0.1384,-0.00479218660003093,0.000142056157717226));
#1864=CARTESIAN_POINT('',(0.1384,-0.004,-0.00891267811418303));
#1865=CARTESIAN_POINT('',(0.136524149819793,-0.00469103614403732,0.00694493825339695));
#1866=CARTESIAN_POINT('',(0.137514460033033,-0.00200000000000001,0.00691302098950579));
#1867=CARTESIAN_POINT('',(0.134648299639585,-0.00200000000000001,0.00700539608208688));
#1868=CARTESIAN_POINT('',(0.136441317665983,-0.00446789236070159,0.00182432547318114));
#1869=CARTESIAN_POINT('',(0.137028199720029,-0.00199999999999758,0.00221859964560748));
#1870=CARTESIAN_POINT('',(0.13448263533198,-0.002,0.0018652607504973));
#1871=CARTESIAN_POINT('',(0.13639905291642,-0.00422987332959391,-0.00363763844326603));
#1872=CARTESIAN_POINT('',(0.136641852561112,-0.00200000000000008,-0.00329368292944487));
#1873=CARTESIAN_POINT('',(0.134398105832903,-0.002,-0.00361752713288879));
#1874=CARTESIAN_POINT('',(0.136400016271583,-0.00399196310603603,-0.00909710548801461));
#1875=CARTESIAN_POINT('',(0.136392011609316,-0.002,-0.00909710830222506));
#1876=CARTESIAN_POINT('',(0.134400032543166,-0.002,-0.00909780862512641));
#1877=CARTESIAN_POINT('',(0.1664,-0.00479218660003093,0.00014205615771723));
#1878=CARTESIAN_POINT('',(0.1664,-0.004,-0.00891267811418299));
#1879=CARTESIAN_POINT('',(0.168399983728978,-0.00399196324450431,-0.00909710231050083));
#1880=CARTESIAN_POINT('',(0.168407988253886,-0.002,-0.0090971051246145));
#1881=CARTESIAN_POINT('',(0.170399967457956,-0.002,-0.00909780543549823));
#1882=CARTESIAN_POINT('',(0.16840094703602,-0.00422986568312466,-0.00363781391114126));
#1883=CARTESIAN_POINT('',(0.168158155938835,-0.00199999999991197,-0.00329388158758061));
#1884=CARTESIAN_POINT('',(0.17040189407209,-0.002,-0.00361770326972831));
#1885=CARTESIAN_POINT('',(0.168358685096528,-0.0044678769254124,0.00182397127085105));
#1886=CARTESIAN_POINT('',(0.167771827290258,-0.00199999999999982,0.00221821786952275));
#1887=CARTESIAN_POINT('',(0.170317370193141,-0.002,0.00186490519775581));
#1888=CARTESIAN_POINT('',(0.168275858263272,-0.00469101436846082,0.00694443855632417));
#1889=CARTESIAN_POINT('',(0.16728559146287,-0.002,0.00691252383484708));
#1890=CARTESIAN_POINT('',(0.170151716526544,-0.00200000000000001,0.00700489447989802));
#1891=CARTESIAN_POINT('',(0.1524,-0.006,-0.0045));
#1892=CARTESIAN_POINT('',(-1.99999999999947E-6,-0.006,-0.00650771644662754));
#1893=CARTESIAN_POINT('',(0.1524,-0.006,-0.0045));
#1894=CARTESIAN_POINT('',(0.296798,-0.006,-0.0065077164466275));
#1895=CARTESIAN_POINT('',(0.015,-0.004,-0.006));
#1896=CARTESIAN_POINT('',(0.2898,-0.004,-0.006));
#1897=CARTESIAN_POINT('',(0.0103,-0.00375,-0.00885));
#1898=CARTESIAN_POINT('',(0.0123,-0.00375,-0.00885));
#1899=CARTESIAN_POINT('',(0.0123,-0.0009,-0.00885));
#1900=CARTESIAN_POINT('',(0.0103,-0.0009,-0.00885));
#1901=CARTESIAN_POINT('',(0.0103,-0.0009,-0.006));
#1902=CARTESIAN_POINT('',(0.0123,-0.0009,-0.006));
#1903=CARTESIAN_POINT('',(0.0123,-0.0009,-0.00315));
#1904=CARTESIAN_POINT('',(0.0103,-0.0009,-0.00315));
#1905=CARTESIAN_POINT('',(0.0103,-0.00375,-0.00315));
#1906=CARTESIAN_POINT('',(0.0123,-0.00375,-0.00315));
#1907=CARTESIAN_POINT('',(0.0123,-0.00375,-0.006));
#1908=CARTESIAN_POINT('',(0.2945,-0.00375,-0.00885));
#1909=CARTESIAN_POINT('',(0.2945,-0.0009,-0.00885));
#1910=CARTESIAN_POINT('',(0.2925,-0.0009,-0.00885));
#1911=CARTESIAN_POINT('',(0.2925,-0.00375,-0.00885));
#1912=CARTESIAN_POINT('',(0.2945,-0.0009,-0.006));
#1913=CARTESIAN_POINT('',(0.2945,-0.0009,-0.00314999999999996));
#1914=CARTESIAN_POINT('',(0.2925,-0.0009,-0.00314999999999996));
#1915=CARTESIAN_POINT('',(0.2925,-0.0009,-0.006));
#1916=CARTESIAN_POINT('',(0.2945,-0.00375,-0.00314999999999996));
#1917=CARTESIAN_POINT('',(0.2925,-0.00375,-0.00314999999999996));
#1918=CARTESIAN_POINT('',(0.2925,-0.00375,-0.006));
#1919=CARTESIAN_POINT('',(0.1584,-0.00333338654390174,0.00181844288375255));
#1920=CARTESIAN_POINT('',(0.1584,-0.00333338654390174,0.00181844288375255));
#1921=CARTESIAN_POINT('',(0.15615,-0.00333338654390174,0.00181844288375255));
#1922=CARTESIAN_POINT('',(0.1524,-0.00342134255076926,0.00181383330475802));
#1923=CARTESIAN_POINT('',(0.1584,-0.00333338654390174,0.00181844288375255));
#1924=CARTESIAN_POINT('',(0.1584,-0.00498112527624679,0.0017320885559517));
#1925=CARTESIAN_POINT('',(0.1464,-0.00333338654390175,0.00181844288375255));
#1926=CARTESIAN_POINT('',(0.1464,-0.00333338654390175,0.00181844288375255));
#1927=CARTESIAN_POINT('',(0.14865,-0.00333338654390175,0.00181844288375255));
#1928=CARTESIAN_POINT('',(0.1524,-0.00342134255076926,0.00181383330475802));
#1929=CARTESIAN_POINT('',(0.1464,-0.00333338654390175,0.00181844288375255));
#1930=CARTESIAN_POINT('',(0.1464,-0.0049811252762468,0.0017320885559517));
#1931=CARTESIAN_POINT('',(0.1464,-0.00312404271892997,-0.00217607525526574));
#1932=CARTESIAN_POINT('',(0.1464,-0.00312404271892997,-0.00217607525526574));
#1933=CARTESIAN_POINT('',(0.14805,-0.00312404271892997,-0.00217607525526574));
#1934=CARTESIAN_POINT('',(0.1524,-0.0035234945328318,-0.00219700963776292));
#1935=CARTESIAN_POINT('',(0.1584,-0.00312404271892997,-0.00217607525526574));
#1936=CARTESIAN_POINT('',(0.1584,-0.00312404271892997,-0.00217607525526574));
#1937=CARTESIAN_POINT('',(0.15675,-0.00312404271892997,-0.00217607525526574));
#1938=CARTESIAN_POINT('',(0.1524,-0.0035234945328318,-0.00219700963776292));
#1939=CARTESIAN_POINT('',(0.2324,0.019,-0.00115722333784914));
#1940=CARTESIAN_POINT('',(0.23027867965644,0.019,0.000964097005710531));
#1941=CARTESIAN_POINT('',(0.234521320343559,0.019,0.000964097005710557));
#1942=CARTESIAN_POINT('',(0.23346066017178,0.019,0.00202475717749038));
#1943=CARTESIAN_POINT('',(0.2324,0.019,0.00308541734927021));
#1944=CARTESIAN_POINT('',(0.23133933982822,0.019,0.00202475717749037));
#1945=CARTESIAN_POINT('',(0.296798,-0.00418557088834312,-0.00280671266502931));
#1946=CARTESIAN_POINT('',(0.296798,-0.00556442911165688,-0.00694328733497062));
#1947=CARTESIAN_POINT('',(-1.99999999999942E-6,-0.00556442911165688,-0.00694328733497065));
#1948=CARTESIAN_POINT('',(-1.99999999999992E-6,-0.00418557088834312,-0.00280671266502935));
#1949=MECHANICAL_DESIGN_GEOMETRIC_PRESENTATION_REPRESENTATION('',(#1146),
#1950);
#1950=(
GEOMETRIC_REPRESENTATION_CONTEXT(3)
GLOBAL_UNCERTAINTY_ASSIGNED_CONTEXT((#1951))
GLOBAL_UNIT_ASSIGNED_CONTEXT((#1954,#1953,#1952))
REPRESENTATION_CONTEXT('Bar L','TOP_LEVEL_ASSEMBLY_PART')
);
#1951=UNCERTAINTY_MEASURE_WITH_UNIT(LENGTH_MEASURE(2.E-5),#1954,
'DISTANCE_ACCURACY_VALUE','Maximum Tolerance applied to model');
#1952=(
NAMED_UNIT(*)
SI_UNIT($,.STERADIAN.)
SOLID_ANGLE_UNIT()
);
#1953=(
NAMED_UNIT(*)
PLANE_ANGLE_UNIT()
SI_UNIT($,.RADIAN.)
);
#1954=(
LENGTH_UNIT()
NAMED_UNIT(*)
SI_UNIT($,.METRE.)
);
#1955=PRODUCT_DEFINITION_SHAPE('','',#1956);
#1956=PRODUCT_DEFINITION('','',#1958,#1957);
#1957=PRODUCT_DEFINITION_CONTEXT('',#1964,'design');
#1958=PRODUCT_DEFINITION_FORMATION_WITH_SPECIFIED_SOURCE('','',#1960,
 .NOT_KNOWN.);
#1959=PRODUCT_RELATED_PRODUCT_CATEGORY('','',(#1960));
#1960=PRODUCT('Bar L','Bar L','Bar L',(#1962));
#1961=PRODUCT_CATEGORY('','');
#1962=PRODUCT_CONTEXT('',#1964,'mechanical');
#1963=APPLICATION_PROTOCOL_DEFINITION('international standard',
'ap242_managed_model_based_3d_engineering',2020,#1964);
#1964=APPLICATION_CONTEXT('managed model based 3d engineering');
ENDSEC;
END-ISO-10303-21;
