ISO-10303-21;
HEADER;
/* Generated by software containing ST-Developer
 * from STEP Tools, Inc. (www.steptools.com) 
 */
/* OPTION: using custom renumber hook */

FILE_DESCRIPTION(
/* description */ ('STEP AP242 Edition 2',
'CAx-IF Rec.Pracs.---Representation and Presentation of Product Manufa
cturing Information (PMI)---4.0---2014-10-13',
'CAx-IF Rec.Pracs.---3D Tessellated Geometry---0.4---2014-09-14','2;1',
'CAx-IF Rec.Pracs.---User Defined Attributes---1.5---2016-08-15'),
/* implementation_level */ '2;1');

FILE_NAME(
/* name */ 'Short bar - Bar S',
/* time_stamp */ '2026-09-19T20:01:05Z',
/* author */ (''),
/* organization */ (''),
/* preprocessor_version */ 'ST-DEVELOPER v20',
/* originating_system */ 'ONSHAPE BY PTC INC, 1.221',
/* authorisation */ '  ');

FILE_SCHEMA (('AP242_MANAGED_MODEL_BASED_3D_ENGINEERING_MIM_LF { 1 0 10303 442 3 1 4 }'));
ENDSEC;

DATA;
#10=SHAPE_REPRESENTATION_RELATIONSHIP('','',#333,#11);
#11=ADVANCED_BREP_SHAPE_REPRESENTATION('',(#331),#547);
#12=CYLINDRICAL_SURFACE('',#347,0.00165);
#13=CYLINDRICAL_SURFACE('',#348,0.00165);
#14=CYLINDRICAL_SURFACE('',#349,0.00225);
#15=CYLINDRICAL_SURFACE('',#353,0.00225);
#16=CYLINDRICAL_SURFACE('',#357,0.00165);
#17=CYLINDRICAL_SURFACE('',#360,0.00165);
#18=CIRCLE('',#336,0.00165);
#19=CIRCLE('',#337,0.00165);
#20=CIRCLE('',#339,0.00165);
#21=CIRCLE('',#340,0.00165);
#22=CIRCLE('',#342,0.00225);
#23=CIRCLE('',#343,0.00225);
#24=CIRCLE('',#350,0.00225);
#25=CIRCLE('',#352,0.00165);
#26=CIRCLE('',#354,0.00225);
#27=CIRCLE('',#356,0.00165);
#28=CIRCLE('',#358,0.00165);
#29=CIRCLE('',#361,0.00165);
#30=ORIENTED_EDGE('',*,*,#106,.F.);
#31=ORIENTED_EDGE('',*,*,#107,.F.);
#32=ORIENTED_EDGE('',*,*,#108,.T.);
#33=ORIENTED_EDGE('',*,*,#109,.T.);
#34=ORIENTED_EDGE('',*,*,#110,.T.);
#35=ORIENTED_EDGE('',*,*,#111,.T.);
#36=ORIENTED_EDGE('',*,*,#112,.T.);
#37=ORIENTED_EDGE('',*,*,#113,.F.);
#38=ORIENTED_EDGE('',*,*,#114,.T.);
#39=ORIENTED_EDGE('',*,*,#115,.T.);
#40=ORIENTED_EDGE('',*,*,#116,.F.);
#41=ORIENTED_EDGE('',*,*,#117,.T.);
#42=ORIENTED_EDGE('',*,*,#118,.F.);
#43=ORIENTED_EDGE('',*,*,#119,.T.);
#44=ORIENTED_EDGE('',*,*,#120,.F.);
#45=ORIENTED_EDGE('',*,*,#121,.F.);
#46=ORIENTED_EDGE('',*,*,#122,.T.);
#47=ORIENTED_EDGE('',*,*,#123,.F.);
#48=ORIENTED_EDGE('',*,*,#124,.F.);
#49=ORIENTED_EDGE('',*,*,#125,.F.);
#50=ORIENTED_EDGE('',*,*,#126,.T.);
#51=ORIENTED_EDGE('',*,*,#106,.T.);
#52=ORIENTED_EDGE('',*,*,#127,.F.);
#53=ORIENTED_EDGE('',*,*,#119,.F.);
#54=ORIENTED_EDGE('',*,*,#128,.T.);
#55=ORIENTED_EDGE('',*,*,#129,.F.);
#56=ORIENTED_EDGE('',*,*,#126,.F.);
#57=ORIENTED_EDGE('',*,*,#122,.F.);
#58=ORIENTED_EDGE('',*,*,#130,.T.);
#59=ORIENTED_EDGE('',*,*,#107,.T.);
#60=ORIENTED_EDGE('',*,*,#127,.T.);
#61=ORIENTED_EDGE('',*,*,#109,.F.);
#62=ORIENTED_EDGE('',*,*,#131,.F.);
#63=ORIENTED_EDGE('',*,*,#120,.T.);
#64=ORIENTED_EDGE('',*,*,#130,.F.);
#65=ORIENTED_EDGE('',*,*,#121,.T.);
#66=ORIENTED_EDGE('',*,*,#131,.T.);
#67=ORIENTED_EDGE('',*,*,#108,.F.);
#68=ORIENTED_EDGE('',*,*,#124,.T.);
#69=ORIENTED_EDGE('',*,*,#132,.T.);
#70=ORIENTED_EDGE('',*,*,#113,.T.);
#71=ORIENTED_EDGE('',*,*,#133,.F.);
#72=ORIENTED_EDGE('',*,*,#134,.T.);
#73=ORIENTED_EDGE('',*,*,#110,.F.);
#74=ORIENTED_EDGE('',*,*,#135,.F.);
#75=ORIENTED_EDGE('',*,*,#117,.F.);
#76=ORIENTED_EDGE('',*,*,#136,.T.);
#77=ORIENTED_EDGE('',*,*,#128,.F.);
#78=ORIENTED_EDGE('',*,*,#136,.F.);
#79=ORIENTED_EDGE('',*,*,#137,.T.);
#80=ORIENTED_EDGE('',*,*,#138,.F.);
#81=ORIENTED_EDGE('',*,*,#129,.T.);
#82=ORIENTED_EDGE('',*,*,#139,.F.);
#83=ORIENTED_EDGE('',*,*,#138,.T.);
#84=ORIENTED_EDGE('',*,*,#139,.T.);
#85=ORIENTED_EDGE('',*,*,#140,.F.);
#86=ORIENTED_EDGE('',*,*,#140,.T.);
#87=ORIENTED_EDGE('',*,*,#137,.F.);
#88=ORIENTED_EDGE('',*,*,#141,.T.);
#89=ORIENTED_EDGE('',*,*,#141,.F.);
#90=ORIENTED_EDGE('',*,*,#116,.T.);
#91=ORIENTED_EDGE('',*,*,#142,.T.);
#92=ORIENTED_EDGE('',*,*,#111,.F.);
#93=ORIENTED_EDGE('',*,*,#134,.F.);
#94=ORIENTED_EDGE('',*,*,#118,.T.);
#95=ORIENTED_EDGE('',*,*,#135,.T.);
#96=ORIENTED_EDGE('',*,*,#112,.F.);
#97=ORIENTED_EDGE('',*,*,#142,.F.);
#98=ORIENTED_EDGE('',*,*,#123,.T.);
#99=ORIENTED_EDGE('',*,*,#143,.T.);
#100=ORIENTED_EDGE('',*,*,#114,.F.);
#101=ORIENTED_EDGE('',*,*,#132,.F.);
#102=ORIENTED_EDGE('',*,*,#125,.T.);
#103=ORIENTED_EDGE('',*,*,#133,.T.);
#104=ORIENTED_EDGE('',*,*,#115,.F.);
#105=ORIENTED_EDGE('',*,*,#143,.F.);
#106=EDGE_CURVE('',#144,#145,#172,.T.);
#107=EDGE_CURVE('',#146,#144,#173,.T.);
#108=EDGE_CURVE('',#146,#147,#174,.T.);
#109=EDGE_CURVE('',#147,#145,#175,.T.);
#110=EDGE_CURVE('',#148,#149,#18,.F.);
#111=EDGE_CURVE('',#149,#150,#176,.T.);
#112=EDGE_CURVE('',#150,#148,#177,.T.);
#113=EDGE_CURVE('',#151,#152,#19,.T.);
#114=EDGE_CURVE('',#151,#153,#178,.T.);
#115=EDGE_CURVE('',#153,#152,#179,.T.);
#116=EDGE_CURVE('',#154,#155,#180,.T.);
#117=EDGE_CURVE('',#154,#156,#20,.F.);
#118=EDGE_CURVE('',#155,#156,#181,.T.);
#119=EDGE_CURVE('',#157,#158,#182,.T.);
#120=EDGE_CURVE('',#159,#158,#183,.T.);
#121=EDGE_CURVE('',#160,#159,#184,.T.);
#122=EDGE_CURVE('',#160,#157,#185,.T.);
#123=EDGE_CURVE('',#161,#162,#186,.T.);
#124=EDGE_CURVE('',#163,#161,#21,.T.);
#125=EDGE_CURVE('',#162,#163,#187,.T.);
#126=EDGE_CURVE('',#157,#144,#188,.T.);
#127=EDGE_CURVE('',#158,#145,#189,.T.);
#128=EDGE_CURVE('',#164,#164,#22,.T.);
#129=EDGE_CURVE('',#165,#165,#23,.T.);
#130=EDGE_CURVE('',#160,#146,#190,.T.);
#131=EDGE_CURVE('',#159,#147,#191,.T.);
#132=EDGE_CURVE('',#161,#151,#192,.T.);
#133=EDGE_CURVE('',#163,#152,#193,.T.);
#134=EDGE_CURVE('',#154,#149,#194,.T.);
#135=EDGE_CURVE('',#156,#148,#195,.T.);
#136=EDGE_CURVE('',#166,#166,#24,.T.);
#137=EDGE_CURVE('',#167,#167,#25,.F.);
#138=EDGE_CURVE('',#168,#168,#26,.T.);
#139=EDGE_CURVE('',#169,#169,#27,.T.);
#140=EDGE_CURVE('',#170,#170,#28,.T.);
#141=EDGE_CURVE('',#171,#171,#29,.T.);
#142=EDGE_CURVE('',#155,#150,#196,.T.);
#143=EDGE_CURVE('',#162,#153,#197,.T.);
#144=VERTEX_POINT('',#462);
#145=VERTEX_POINT('',#463);
#146=VERTEX_POINT('',#465);
#147=VERTEX_POINT('',#467);
#148=VERTEX_POINT('',#470);
#149=VERTEX_POINT('',#471);
#150=VERTEX_POINT('',#473);
#151=VERTEX_POINT('',#476);
#152=VERTEX_POINT('',#477);
#153=VERTEX_POINT('',#479);
#154=VERTEX_POINT('',#483);
#155=VERTEX_POINT('',#484);
#156=VERTEX_POINT('',#486);
#157=VERTEX_POINT('',#489);
#158=VERTEX_POINT('',#490);
#159=VERTEX_POINT('',#492);
#160=VERTEX_POINT('',#494);
#161=VERTEX_POINT('',#497);
#162=VERTEX_POINT('',#498);
#163=VERTEX_POINT('',#500);
#164=VERTEX_POINT('',#506);
#165=VERTEX_POINT('',#508);
#166=VERTEX_POINT('',#522);
#167=VERTEX_POINT('',#525);
#168=VERTEX_POINT('',#528);
#169=VERTEX_POINT('',#531);
#170=VERTEX_POINT('',#534);
#171=VERTEX_POINT('',#538);
#172=LINE('',#461,#198);
#173=LINE('',#464,#199);
#174=LINE('',#466,#200);
#175=LINE('',#468,#201);
#176=LINE('',#472,#202);
#177=LINE('',#474,#203);
#178=LINE('',#478,#204);
#179=LINE('',#480,#205);
#180=LINE('',#482,#206);
#181=LINE('',#487,#207);
#182=LINE('',#488,#208);
#183=LINE('',#491,#209);
#184=LINE('',#493,#210);
#185=LINE('',#495,#211);
#186=LINE('',#496,#212);
#187=LINE('',#501,#213);
#188=LINE('',#503,#214);
#189=LINE('',#504,#215);
#190=LINE('',#510,#216);
#191=LINE('',#512,#217);
#192=LINE('',#515,#218);
#193=LINE('',#516,#219);
#194=LINE('',#518,#220);
#195=LINE('',#519,#221);
#196=LINE('',#541,#222);
#197=LINE('',#544,#223);
#198=VECTOR('',#371,1.);
#199=VECTOR('',#372,1.);
#200=VECTOR('',#373,1.);
#201=VECTOR('',#374,1.);
#202=VECTOR('',#377,1.);
#203=VECTOR('',#378,1.);
#204=VECTOR('',#381,1.);
#205=VECTOR('',#382,1.);
#206=VECTOR('',#385,1.);
#207=VECTOR('',#388,1.);
#208=VECTOR('',#389,1.);
#209=VECTOR('',#390,1.);
#210=VECTOR('',#391,1.);
#211=VECTOR('',#392,1.);
#212=VECTOR('',#393,1.);
#213=VECTOR('',#396,1.);
#214=VECTOR('',#399,1.);
#215=VECTOR('',#400,1.);
#216=VECTOR('',#407,1.);
#217=VECTOR('',#410,1.);
#218=VECTOR('',#415,1.);
#219=VECTOR('',#416,1.);
#220=VECTOR('',#419,1.);
#221=VECTOR('',#420,1.);
#222=VECTOR('',#451,1.);
#223=VECTOR('',#456,1.);
#224=EDGE_LOOP('',(#30,#31,#32,#33));
#225=EDGE_LOOP('',(#34,#35,#36));
#226=EDGE_LOOP('',(#37,#38,#39));
#227=EDGE_LOOP('',(#40,#41,#42));
#228=EDGE_LOOP('',(#43,#44,#45,#46));
#229=EDGE_LOOP('',(#47,#48,#49));
#230=EDGE_LOOP('',(#50,#51,#52,#53));
#231=EDGE_LOOP('',(#54));
#232=EDGE_LOOP('',(#55));
#233=EDGE_LOOP('',(#56,#57,#58,#59));
#234=EDGE_LOOP('',(#60,#61,#62,#63));
#235=EDGE_LOOP('',(#64,#65,#66,#67));
#236=EDGE_LOOP('',(#68,#69,#70,#71));
#237=EDGE_LOOP('',(#72,#73,#74,#75));
#238=EDGE_LOOP('',(#76));
#239=EDGE_LOOP('',(#77));
#240=EDGE_LOOP('',(#78));
#241=EDGE_LOOP('',(#79));
#242=EDGE_LOOP('',(#80));
#243=EDGE_LOOP('',(#81));
#244=EDGE_LOOP('',(#82));
#245=EDGE_LOOP('',(#83));
#246=EDGE_LOOP('',(#84));
#247=EDGE_LOOP('',(#85));
#248=EDGE_LOOP('',(#86));
#249=EDGE_LOOP('',(#87));
#250=EDGE_LOOP('',(#88));
#251=EDGE_LOOP('',(#89));
#252=EDGE_LOOP('',(#90,#91,#92,#93));
#253=EDGE_LOOP('',(#94,#95,#96,#97));
#254=EDGE_LOOP('',(#98,#99,#100,#101));
#255=EDGE_LOOP('',(#102,#103,#104,#105));
#256=FACE_BOUND('',#224,.T.);
#257=FACE_BOUND('',#225,.T.);
#258=FACE_BOUND('',#226,.T.);
#259=FACE_BOUND('',#227,.T.);
#260=FACE_BOUND('',#228,.T.);
#261=FACE_BOUND('',#229,.T.);
#262=FACE_BOUND('',#230,.T.);
#263=FACE_BOUND('',#231,.T.);
#264=FACE_BOUND('',#232,.T.);
#265=FACE_BOUND('',#233,.T.);
#266=FACE_BOUND('',#234,.T.);
#267=FACE_BOUND('',#235,.T.);
#268=FACE_BOUND('',#236,.T.);
#269=FACE_BOUND('',#237,.T.);
#270=FACE_BOUND('',#238,.T.);
#271=FACE_BOUND('',#239,.T.);
#272=FACE_BOUND('',#240,.T.);
#273=FACE_BOUND('',#241,.T.);
#274=FACE_BOUND('',#242,.T.);
#275=FACE_BOUND('',#243,.T.);
#276=FACE_BOUND('',#244,.T.);
#277=FACE_BOUND('',#245,.T.);
#278=FACE_BOUND('',#246,.T.);
#279=FACE_BOUND('',#247,.T.);
#280=FACE_BOUND('',#248,.T.);
#281=FACE_BOUND('',#249,.T.);
#282=FACE_BOUND('',#250,.T.);
#283=FACE_BOUND('',#251,.T.);
#284=FACE_BOUND('',#252,.T.);
#285=FACE_BOUND('',#253,.T.);
#286=FACE_BOUND('',#254,.T.);
#287=FACE_BOUND('',#255,.T.);
#288=PLANE('',#335);
#289=PLANE('',#338);
#290=PLANE('',#341);
#291=PLANE('',#344);
#292=PLANE('',#345);
#293=PLANE('',#346);
#294=PLANE('',#351);
#295=PLANE('',#355);
#296=PLANE('',#359);
#297=PLANE('',#362);
#298=PLANE('',#363);
#299=PLANE('',#364);
#300=PLANE('',#365);
#301=PLANE('',#366);
#302=ADVANCED_FACE('',(#256,#257,#258),#288,.T.);
#303=ADVANCED_FACE('',(#259,#260,#261),#289,.F.);
#304=ADVANCED_FACE('',(#262,#263,#264),#290,.F.);
#305=ADVANCED_FACE('',(#265),#291,.T.);
#306=ADVANCED_FACE('',(#266),#292,.F.);
#307=ADVANCED_FACE('',(#267),#293,.T.);
#308=ADVANCED_FACE('',(#268),#12,.F.);
#309=ADVANCED_FACE('',(#269),#13,.F.);
#310=ADVANCED_FACE('',(#270,#271),#14,.F.);
#311=ADVANCED_FACE('',(#272,#273),#294,.T.);
#312=ADVANCED_FACE('',(#274,#275),#15,.F.);
#313=ADVANCED_FACE('',(#276,#277),#295,.T.);
#314=ADVANCED_FACE('',(#278,#279),#16,.F.);
#315=ADVANCED_FACE('',(#280),#296,.F.);
#316=ADVANCED_FACE('',(#281,#282),#17,.F.);
#317=ADVANCED_FACE('',(#283),#297,.F.);
#318=ADVANCED_FACE('',(#284),#298,.T.);
#319=ADVANCED_FACE('',(#285),#299,.T.);
#320=ADVANCED_FACE('',(#286),#300,.T.);
#321=ADVANCED_FACE('',(#287),#301,.T.);
#322=CLOSED_SHELL('',(#302,#303,#304,#305,#306,#307,#308,#309,#310,#311,
#312,#313,#314,#315,#316,#317,#318,#319,#320,#321));
#323=STYLED_ITEM('',(#324),#331);
#324=PRESENTATION_STYLE_ASSIGNMENT((#325));
#325=SURFACE_STYLE_USAGE(.BOTH.,#326);
#326=SURFACE_SIDE_STYLE('',(#327));
#327=SURFACE_STYLE_FILL_AREA(#328);
#328=FILL_AREA_STYLE('',(#329));
#329=FILL_AREA_STYLE_COLOUR('',#330);
#330=COLOUR_RGB('',0.447058823529412,0.243137254901961,0.);
#331=MANIFOLD_SOLID_BREP('Bar S',#322);
#332=SHAPE_DEFINITION_REPRESENTATION(#552,#333);
#333=SHAPE_REPRESENTATION('Bar S',(#334),#547);
#334=AXIS2_PLACEMENT_3D('',#459,#367,#368);
#335=AXIS2_PLACEMENT_3D('',#460,#369,#370);
#336=AXIS2_PLACEMENT_3D('',#469,#375,#376);
#337=AXIS2_PLACEMENT_3D('',#475,#379,#380);
#338=AXIS2_PLACEMENT_3D('',#481,#383,#384);
#339=AXIS2_PLACEMENT_3D('',#485,#386,#387);
#340=AXIS2_PLACEMENT_3D('',#499,#394,#395);
#341=AXIS2_PLACEMENT_3D('',#502,#397,#398);
#342=AXIS2_PLACEMENT_3D('',#505,#401,#402);
#343=AXIS2_PLACEMENT_3D('',#507,#403,#404);
#344=AXIS2_PLACEMENT_3D('',#509,#405,#406);
#345=AXIS2_PLACEMENT_3D('',#511,#408,#409);
#346=AXIS2_PLACEMENT_3D('',#513,#411,#412);
#347=AXIS2_PLACEMENT_3D('',#514,#413,#414);
#348=AXIS2_PLACEMENT_3D('',#517,#417,#418);
#349=AXIS2_PLACEMENT_3D('',#520,#421,#422);
#350=AXIS2_PLACEMENT_3D('',#521,#423,#424);
#351=AXIS2_PLACEMENT_3D('',#523,#425,#426);
#352=AXIS2_PLACEMENT_3D('',#524,#427,#428);
#353=AXIS2_PLACEMENT_3D('',#526,#429,#430);
#354=AXIS2_PLACEMENT_3D('',#527,#431,#432);
#355=AXIS2_PLACEMENT_3D('',#529,#433,#434);
#356=AXIS2_PLACEMENT_3D('',#530,#435,#436);
#357=AXIS2_PLACEMENT_3D('',#532,#437,#438);
#358=AXIS2_PLACEMENT_3D('',#533,#439,#440);
#359=AXIS2_PLACEMENT_3D('',#535,#441,#442);
#360=AXIS2_PLACEMENT_3D('',#536,#443,#444);
#361=AXIS2_PLACEMENT_3D('',#537,#445,#446);
#362=AXIS2_PLACEMENT_3D('',#539,#447,#448);
#363=AXIS2_PLACEMENT_3D('',#540,#449,#450);
#364=AXIS2_PLACEMENT_3D('',#542,#452,#453);
#365=AXIS2_PLACEMENT_3D('',#543,#454,#455);
#366=AXIS2_PLACEMENT_3D('',#545,#457,#458);
#367=DIRECTION('',(0.,0.,1.));
#368=DIRECTION('',(1.,0.,0.));
#369=DIRECTION('',(7.49879891330929E-33,-1.,-1.22464679914735E-16));
#370=DIRECTION('',(1.22464679914735E-16,1.22464679914735E-16,-1.));
#371=DIRECTION('',(0.998659636225305,6.33857471033061E-18,-0.05175839037626));
#372=DIRECTION('',(-1.22464679914735E-16,-1.22464679914735E-16,1.));
#373=DIRECTION('',(1.,-7.49879891330929E-33,1.22464679914735E-16));
#374=DIRECTION('',(-1.22464679914735E-16,-1.22464679914735E-16,1.));
#375=DIRECTION('',(7.49879891330929E-33,-1.,-1.22464679914735E-16));
#376=DIRECTION('',(1.22464679914735E-16,1.22464679914735E-16,-1.));
#377=DIRECTION('',(0.707106781186544,-8.65956056235497E-17,0.707106781186551));
#378=DIRECTION('',(0.707106781186551,8.6595605623549E-17,-0.707106781186544));
#379=DIRECTION('',(7.49879891330929E-33,-1.,-1.22464679914735E-16));
#380=DIRECTION('',(1.22464679914735E-16,1.22464679914735E-16,-1.));
#381=DIRECTION('',(0.707106781186547,-8.65956056235494E-17,0.707106781186548));
#382=DIRECTION('',(0.707106781186548,8.65956056235494E-17,-0.707106781186548));
#383=DIRECTION('',(7.49879891330929E-33,-1.,-1.22464679914735E-16));
#384=DIRECTION('',(1.22464679914735E-16,1.22464679914735E-16,-1.));
#385=DIRECTION('',(0.707106781186544,-8.65956056235497E-17,0.707106781186551));
#386=DIRECTION('',(-7.49879891330929E-33,1.,1.22464679914735E-16));
#387=DIRECTION('',(-1.22464679914735E-16,-1.22464679914735E-16,1.));
#388=DIRECTION('',(0.707106781186551,8.6595605623549E-17,-0.707106781186544));
#389=DIRECTION('',(0.998659636225305,6.33857471033061E-18,-0.05175839037626));
#390=DIRECTION('',(-1.22464679914735E-16,-1.22464679914735E-16,1.));
#391=DIRECTION('',(1.,-7.49879891330929E-33,1.22464679914735E-16));
#392=DIRECTION('',(-1.22464679914735E-16,-1.22464679914735E-16,1.));
#393=DIRECTION('',(0.707106781186547,-8.65956056235494E-17,0.707106781186548));
#394=DIRECTION('',(-7.49879891330929E-33,1.,1.22464679914735E-16));
#395=DIRECTION('',(-1.22464679914735E-16,-1.22464679914735E-16,1.));
#396=DIRECTION('',(0.707106781186548,8.65956056235494E-17,-0.707106781186548));
#397=DIRECTION('',(-0.05175839037626,1.22300532694098E-16,-0.998659636225305));
#398=DIRECTION('',(0.998659636225305,6.33857471033061E-18,-0.05175839037626));
#399=DIRECTION('',(7.49879891330929E-33,-1.,-1.22464679914735E-16));
#400=DIRECTION('',(7.49879891330929E-33,-1.,-1.22464679914735E-16));
#401=DIRECTION('',(-0.05175839037626,1.22300532694098E-16,-0.998659636225305));
#402=DIRECTION('',(-0.998649614774997,-0.00447992195814345,0.0517578709859509));
#403=DIRECTION('',(0.05175839037626,-1.22300532694098E-16,0.998659636225305));
#404=DIRECTION('',(0.998649614774997,-0.00447992195814343,-0.0517578709859507));
#405=DIRECTION('',(-1.,7.49879891330929E-33,-1.22464679914735E-16));
#406=DIRECTION('',(1.22464679914735E-16,1.22464679914735E-16,-1.));
#407=DIRECTION('',(7.49879891330929E-33,-1.,-1.22464679914735E-16));
#408=DIRECTION('',(-1.,7.49879891330929E-33,-1.22464679914735E-16));
#409=DIRECTION('',(1.22464679914735E-16,1.22464679914735E-16,-1.));
#410=DIRECTION('',(7.49879891330929E-33,-1.,-1.22464679914735E-16));
#411=DIRECTION('',(1.22464679914735E-16,1.22464679914735E-16,-1.));
#412=DIRECTION('',(1.,-7.49879891330929E-33,1.22464679914735E-16));
#413=DIRECTION('',(-7.49879891330929E-33,1.,1.22464679914735E-16));
#414=DIRECTION('',(-1.22464679914735E-16,-1.22464679914735E-16,1.));
#415=DIRECTION('',(7.49879891330929E-33,-1.,-1.22464679914735E-16));
#416=DIRECTION('',(7.49879891330929E-33,-1.,-1.22464679914735E-16));
#417=DIRECTION('',(-7.49879891330929E-33,1.,1.22464679914735E-16));
#418=DIRECTION('',(-1.22464679914735E-16,-1.22464679914735E-16,1.));
#419=DIRECTION('',(7.49879891330929E-33,-1.,-1.22464679914735E-16));
#420=DIRECTION('',(7.49879891330929E-33,-1.,-1.22464679914735E-16));
#421=DIRECTION('',(0.05175839037626,-1.22300532694098E-16,0.998659636225305));
#422=DIRECTION('',(-0.998659636225305,-6.33857471033061E-18,0.05175839037626));
#423=DIRECTION('',(-0.05175839037626,1.22300532694098E-16,-0.998659636225305));
#424=DIRECTION('',(-0.998649614774997,-0.00447992195814345,0.0517578709859509));
#425=DIRECTION('',(0.05175839037626,-1.22300532694098E-16,0.998659636225305));
#426=DIRECTION('',(0.998659636225305,6.33857471033061E-18,-0.05175839037626));
#427=DIRECTION('',(0.05175839037626,-1.22300532694098E-16,0.998659636225305));
#428=DIRECTION('',(-0.998659636225305,-6.33857471033061E-18,0.05175839037626));
#429=DIRECTION('',(0.05175839037626,-1.22300532694098E-16,0.998659636225305));
#430=DIRECTION('',(-0.998659636225305,-6.33857471033061E-18,0.05175839037626));
#431=DIRECTION('',(0.05175839037626,-1.22300532694098E-16,0.998659636225305));
#432=DIRECTION('',(0.998649614774997,-0.00447992195814343,-0.0517578709859507));
#433=DIRECTION('',(0.05175839037626,-1.22300532694098E-16,0.998659636225305));
#434=DIRECTION('',(0.998659636225305,6.33857471033061E-18,-0.05175839037626));
#435=DIRECTION('',(0.05175839037626,-1.22300532694098E-16,0.998659636225305));
#436=DIRECTION('',(-0.998659636225305,-6.33857471033061E-18,0.05175839037626));
#437=DIRECTION('',(0.05175839037626,-1.22300532694098E-16,0.998659636225305));
#438=DIRECTION('',(-0.998659636225305,-6.33857471033061E-18,0.05175839037626));
#439=DIRECTION('',(0.05175839037626,-1.22300532694098E-16,0.998659636225305));
#440=DIRECTION('',(0.998659636225305,6.3385747103306E-18,-0.05175839037626));
#441=DIRECTION('',(-0.05175839037626,1.22300532694098E-16,-0.998659636225305));
#442=DIRECTION('',(0.998659636225305,6.33857471033061E-18,-0.05175839037626));
#443=DIRECTION('',(0.05175839037626,-1.22300532694098E-16,0.998659636225305));
#444=DIRECTION('',(-0.998659636225305,-6.33857471033061E-18,0.05175839037626));
#445=DIRECTION('',(-0.05175839037626,1.22300532694098E-16,-0.998659636225305));
#446=DIRECTION('',(-0.998659636225305,-6.33857471033064E-18,0.0517583903762603));
#447=DIRECTION('',(-0.05175839037626,1.22300532694098E-16,-0.998659636225305));
#448=DIRECTION('',(0.998659636225305,6.33857471033061E-18,-0.05175839037626));
#449=DIRECTION('',(0.707106781186551,8.6595605623549E-17,-0.707106781186544));
#450=DIRECTION('',(0.707106781186544,-8.65956056235497E-17,0.707106781186551));
#451=DIRECTION('',(7.49879891330929E-33,-1.,-1.22464679914735E-16));
#452=DIRECTION('',(-0.707106781186544,8.65956056235497E-17,-0.707106781186551));
#453=DIRECTION('',(0.707106781186551,8.6595605623549E-17,-0.707106781186544));
#454=DIRECTION('',(0.707106781186548,8.65956056235493E-17,-0.707106781186547));
#455=DIRECTION('',(0.707106781186547,-8.65956056235494E-17,0.707106781186548));
#456=DIRECTION('',(7.49879891330929E-33,-1.,-1.22464679914735E-16));
#457=DIRECTION('',(-0.707106781186548,8.65956056235493E-17,-0.707106781186548));
#458=DIRECTION('',(0.707106781186548,8.65956056235494E-17,-0.707106781186548));
#459=CARTESIAN_POINT('',(0.,0.,0.));
#460=CARTESIAN_POINT('',(0.06753125,-0.008,-0.012));
#461=CARTESIAN_POINT('',(0.0676217664411599,-0.008,0.00349530880009683));
#462=CARTESIAN_POINT('',(-8.57252777382589E-19,-0.008,0.00700000014681328));
#463=CARTESIAN_POINT('',(0.1350625,-0.008,1.38259449156892E-17));
#464=CARTESIAN_POINT('',(1.46957615897682E-18,-0.008,-0.012));
#465=CARTESIAN_POINT('',(1.46957615897682E-18,-0.008,-0.012));
#466=CARTESIAN_POINT('',(0.06753125,-0.008,-0.012));
#467=CARTESIAN_POINT('',(0.1350625,-0.008,-0.012));
#468=CARTESIAN_POINT('',(0.1350625,-0.008,-0.012));
#469=CARTESIAN_POINT('',(0.1313125,-0.008,-0.006));
#470=CARTESIAN_POINT('',(0.132479226188958,-0.008,-0.00483327381104219));
#471=CARTESIAN_POINT('',(0.130145773811042,-0.008,-0.0048332738110422));
#472=CARTESIAN_POINT('',(0.130729136905521,-0.008,-0.00424991071656327));
#473=CARTESIAN_POINT('',(0.1313125,-0.008,-0.00366654762208435));
#474=CARTESIAN_POINT('',(0.131895863094479,-0.008,-0.00424991071656325));
#475=CARTESIAN_POINT('',(0.00375,-0.008,-0.006));
#476=CARTESIAN_POINT('',(0.0025832738110422,-0.008,-0.00483327381104218));
#477=CARTESIAN_POINT('',(0.00491672618895781,-0.008,-0.00483327381104218));
#478=CARTESIAN_POINT('',(0.0031666369055211,-0.008,-0.00424991071656328));
#479=CARTESIAN_POINT('',(0.00375,-0.008,-0.00366654762208438));
#480=CARTESIAN_POINT('',(0.00433336309447891,-0.008,-0.00424991071656328));
#481=CARTESIAN_POINT('',(0.06753125,1.46957615897682E-18,-0.012));
#482=CARTESIAN_POINT('',(0.0952551488110425,4.86477455285962E-18,-0.0397238988110422));
#483=CARTESIAN_POINT('',(0.130145773811042,5.91905330209557E-19,-0.0048332738110422));
#484=CARTESIAN_POINT('',(0.1313125,4.49022580930696E-19,-0.00366654762208435));
#485=CARTESIAN_POINT('',(0.1313125,7.34788079488411E-19,-0.006));
#486=CARTESIAN_POINT('',(0.132479226188958,5.91905330209552E-19,-0.00483327381104216));
#487=CARTESIAN_POINT('',(0.103588601188957,-2.9461758129521E-18,0.0240573511889579));
#488=CARTESIAN_POINT('',(0.0676217664411599,-4.28051873407015E-19,0.00349530880009683));
#489=CARTESIAN_POINT('',(-8.57252777382589E-19,-8.57252777382589E-19,0.00700000014681328));
#490=CARTESIAN_POINT('',(0.1350625,-1.01280652822884E-33,1.65403858309839E-17));
#491=CARTESIAN_POINT('',(0.1350625,1.46957615897682E-18,-0.012));
#492=CARTESIAN_POINT('',(0.1350625,1.46957615897682E-18,-0.012));
#493=CARTESIAN_POINT('',(0.06753125,1.46957615897682E-18,-0.012));
#494=CARTESIAN_POINT('',(1.46957615897682E-18,1.46957615897682E-18,-0.012));
#495=CARTESIAN_POINT('',(1.46957615897682E-18,1.46957615897682E-18,-0.012));
#496=CARTESIAN_POINT('',(0.0314738988110422,-2.94617581295209E-18,0.0240573511889578));
#497=CARTESIAN_POINT('',(0.0025832738110422,5.91905330209554E-19,-0.00483327381104218));
#498=CARTESIAN_POINT('',(0.00375,4.49022580930697E-19,-0.00366654762208438));
#499=CARTESIAN_POINT('',(0.00375,7.3478807948841E-19,-0.006));
#500=CARTESIAN_POINT('',(0.00491672618895781,5.91905330209554E-19,-0.00483327381104218));
#501=CARTESIAN_POINT('',(0.0398073511889578,4.86477455285962E-18,-0.0397238988110422));
#502=CARTESIAN_POINT('',(0.0676217664411599,-0.004,0.00349530880009683));
#503=CARTESIAN_POINT('',(-8.57252777382589E-19,-0.004,0.00700000014681328));
#504=CARTESIAN_POINT('',(0.1350625,-0.004,1.6050527111325E-17));
#505=CARTESIAN_POINT('',(0.00998659636225303,-0.004,0.00648241624305068));
#506=CARTESIAN_POINT('',(0.00773963472900929,-0.00401007982440582,0.00659887145276907));
#507=CARTESIAN_POINT('',(0.125075903637747,-0.004,0.000517583903762615));
#508=CARTESIAN_POINT('',(0.127322865270991,-0.00401007982440582,0.000401128694044226));
#509=CARTESIAN_POINT('',(1.46957615897682E-18,-0.004,-0.012));
#510=CARTESIAN_POINT('',(1.46957615897682E-18,-0.004,-0.012));
#511=CARTESIAN_POINT('',(0.1350625,-0.004,-0.012));
#512=CARTESIAN_POINT('',(0.1350625,-0.004,-0.012));
#513=CARTESIAN_POINT('',(0.06753125,-0.004,-0.012));
#514=CARTESIAN_POINT('',(0.00375,-0.135840331319076,-0.006));
#515=CARTESIAN_POINT('',(0.0025832738110422,0.017,-0.00483327381104218));
#516=CARTESIAN_POINT('',(0.00491672618895781,0.017,-0.00483327381104218));
#517=CARTESIAN_POINT('',(0.1313125,-0.135840331319076,-0.006));
#518=CARTESIAN_POINT('',(0.130145773811042,0.017,-0.0048332738110422));
#519=CARTESIAN_POINT('',(0.132479226188958,0.017,-0.00483327381104218));
#520=CARTESIAN_POINT('',(0.00972780441037173,-0.004,0.00148911806192416));
#521=CARTESIAN_POINT('',(0.00972780441037173,-0.004,0.00148911806192416));
#522=CARTESIAN_POINT('',(0.00748084277712799,-0.00401007982440582,0.00160557327164255));
#523=CARTESIAN_POINT('',(0.0672724580481187,-0.004,-0.00149329810771988));
#524=CARTESIAN_POINT('',(0.00972780441037173,-0.004,0.00148911806192416));
#525=CARTESIAN_POINT('',(0.00808001601059998,-0.004,0.00157451940604499));
#526=CARTESIAN_POINT('',(0.124817111685866,-0.004,-0.00447571427736391));
#527=CARTESIAN_POINT('',(0.124817111685866,-0.004,-0.00447571427736391));
#528=CARTESIAN_POINT('',(0.127064073319109,-0.00401007982440582,-0.0045921694870823));
#529=CARTESIAN_POINT('',(0.0672724580481187,-0.004,-0.00149329810771988));
#530=CARTESIAN_POINT('',(0.124817111685866,-0.004,-0.00447571427736391));
#531=CARTESIAN_POINT('',(0.123169323286094,-0.004,-0.00439031293324308));
#532=CARTESIAN_POINT('',(0.124558319733984,-0.004,-0.00946901245849044));
#533=CARTESIAN_POINT('',(0.124558319733984,-0.004,-0.00946901245849044));
#534=CARTESIAN_POINT('',(0.126206108133756,-0.004,-0.00955441380261127));
#535=CARTESIAN_POINT('',(0.0671041825373973,-0.004,-0.00649128756215622));
#536=CARTESIAN_POINT('',(0.00946901245849043,-0.004,-0.00350418011920236));
#537=CARTESIAN_POINT('',(0.00946901245849043,-0.004,-0.00350418011920236));
#538=CARTESIAN_POINT('',(0.00782122405871868,-0.004,-0.00341877877508154));
#539=CARTESIAN_POINT('',(0.0671041825373973,-0.004,-0.00649128756215622));
#540=CARTESIAN_POINT('',(0.130729136905521,0.017,-0.00424991071656326));
#541=CARTESIAN_POINT('',(0.1313125,0.017,-0.00366654762208435));
#542=CARTESIAN_POINT('',(0.131895863094479,0.017,-0.00424991071656325));
#543=CARTESIAN_POINT('',(0.0031666369055211,0.017,-0.00424991071656327));
#544=CARTESIAN_POINT('',(0.00375,0.017,-0.00366654762208438));
#545=CARTESIAN_POINT('',(0.00433336309447891,0.017,-0.00424991071656327));
#546=MECHANICAL_DESIGN_GEOMETRIC_PRESENTATION_REPRESENTATION('',(#323),
#547);
#547=(
GEOMETRIC_REPRESENTATION_CONTEXT(3)
GLOBAL_UNCERTAINTY_ASSIGNED_CONTEXT((#548))
GLOBAL_UNIT_ASSIGNED_CONTEXT((#551,#550,#549))
REPRESENTATION_CONTEXT('Bar S','TOP_LEVEL_ASSEMBLY_PART')
);
#548=UNCERTAINTY_MEASURE_WITH_UNIT(LENGTH_MEASURE(1.E-8),#551,
'DISTANCE_ACCURACY_VALUE','Maximum Tolerance applied to model');
#549=(
NAMED_UNIT(*)
SI_UNIT($,.STERADIAN.)
SOLID_ANGLE_UNIT()
);
#550=(
NAMED_UNIT(*)
PLANE_ANGLE_UNIT()
SI_UNIT($,.RADIAN.)
);
#551=(
LENGTH_UNIT()
NAMED_UNIT(*)
SI_UNIT($,.METRE.)
);
#552=PRODUCT_DEFINITION_SHAPE('','',#553);
#553=PRODUCT_DEFINITION('','',#555,#554);
#554=PRODUCT_DEFINITION_CONTEXT('',#561,'design');
#555=PRODUCT_DEFINITION_FORMATION_WITH_SPECIFIED_SOURCE('','',#557,
 .NOT_KNOWN.);
#556=PRODUCT_RELATED_PRODUCT_CATEGORY('','',(#557));
#557=PRODUCT('Bar S','Bar S','Bar S',(#559));
#558=PRODUCT_CATEGORY('','');
#559=PRODUCT_CONTEXT('',#561,'mechanical');
#560=APPLICATION_PROTOCOL_DEFINITION('international standard',
'ap242_managed_model_based_3d_engineering',2020,#561);
#561=APPLICATION_CONTEXT('managed model based 3d engineering');
ENDSEC;
END-ISO-10303-21;
