ISO-10303-21;
HEADER;
/* Generated by software containing ST-Developer
 * from STEP Tools, Inc. (www.steptools.com) 
 */
/* OPTION: using custom renumber hook */

FILE_DESCRIPTION(
/* description */ ('STEP AP242 Edition 2',
'CAx-IF Rec.Pracs.---Representation and Presentation of Product Manufa
cturing Information (PMI)---4.0---2014-10-13',
'CAx-IF Rec.Pracs.---3D Tessellated Geometry---0.4---2014-09-14','2;1',
'CAx-IF Rec.Pracs.---User Defined Attributes---1.5---2016-08-15'),
/* implementation_level */ '2;1');

FILE_NAME(
/* name */ 'Bottom Cover - BottomCover-R',
/* time_stamp */ '2026-09-19T19:58:07Z',
/* author */ (''),
/* organization */ (''),
/* preprocessor_version */ 'ST-DEVELOPER v20',
/* originating_system */ 'ONSHAPE BY PTC INC, 1.221',
/* authorisation */ '  ');

FILE_SCHEMA (('AP242_MANAGED_MODEL_BASED_3D_ENGINEERING_MIM_LF { 1 0 10303 442 3 1 4 }'));
ENDSEC;

DATA;
#10=SHAPE_REPRESENTATION_RELATIONSHIP('','',#239,#11);
#11=ADVANCED_BREP_SHAPE_REPRESENTATION('',(#237),#783);
#12=CIRCLE('',#244,0.00165);
#13=CIRCLE('',#245,0.00165);
#14=CIRCLE('',#246,0.00165);
#15=CIRCLE('',#248,0.00165);
#16=B_SPLINE_CURVE_WITH_KNOTS('',3,(#329,#330,#331,#332,#333,#334,#335,
#336,#337,#338,#339,#340,#341,#342,#343,#344,#345,#346,#347,#348,#349,#350,
#351,#352,#353,#354,#355,#356,#357,#358,#359,#360,#361,#362,#363),
 .UNSPECIFIED.,.T.,.F.,(1,1,1,1,1,1,1,1,1,1,1,1,1,1,1,1,1,1,1,1,1,1,1,1,
1,1,1,1,1,1,1,1,1,1,1,1,1,1,1),(-0.0435410877869205,-0.0217705438934653,
-0.0108852719467378,-1.02140518265514E-14,0.00690002441406199,0.0167455450693762,
0.0265910657246903,0.0462821070353187,0.0856641896565753,0.125046272277832,
0.164428354899089,0.174744589010875,0.18506082312266,0.205693291346232,
0.246958227793376,0.288223164240519,0.329488100687663,0.3708471798261,0.412206258964538,
0.494924417241414,0.536288203514417,0.577651989787419,0.619015776060422,
0.660379562333424,0.670720567740857,0.68106157314829,0.701743583963155,
0.743107605592886,0.784471627222618,0.825835648852349,0.869376736639259,
0.912917824426169,0.95645891221308,0.978229456106535,0.989114728053262,
0.99999999999999,1.00690002441406,1.01674554506938,1.02659106572469),
 .UNSPECIFIED.);
#17=B_SPLINE_CURVE_WITH_KNOTS('',3,(#389,#390,#391,#392,#393,#394,#395,
#396,#397,#398,#399,#400,#401,#402,#403,#404,#405,#406,#407,#408,#409,#410,
#411,#412,#413,#414,#415,#416,#417,#418,#419,#420,#421,#422,#423,#424,#425,
#426),.UNSPECIFIED.,.T.,.F.,(1,1,1,1,1,1,1,1,1,1,1,1,1,1,1,1,1,1,1,1,1,
1,1,1,1,1,1,1,1,1,1,1,1,1,1,1,1,1,1,1,1,1),(-0.0436896601911784,-0.0218448300955891,
-0.0109224150477946,0.,0.00368194580078125,0.0135509316126506,0.0234199174245199,
0.0431578890482585,0.0826338322957358,0.122109775543213,0.16158571879069,
0.171936647812526,0.182287576834361,0.202989434878032,0.244393150965373,
0.285796867052714,0.327200583140055,0.337575609322389,0.347950635504722,
0.36870068786939,0.410200792598725,0.451700897328059,0.493201002057394,
0.534705926218828,0.576210850380262,0.617715774541696,0.65922069870313,
0.66959698998639,0.679973281269649,0.700725863836169,0.742231028969208,
0.783736194102247,0.825241359235287,0.868931019426465,0.912620679617643,
0.956310339808822,0.978155169904411,0.989077584952205,1.,1.00368194580078,
1.01355093161265,1.02341991742452),.UNSPECIFIED.);
#18=B_SPLINE_CURVE_WITH_KNOTS('',3,(#452,#453,#454,#455,#456,#457,#458,
#459,#460,#461,#462,#463,#464,#465,#466,#467,#468,#469,#470,#471,#472,#473,
#474,#475,#476,#477,#478,#479,#480,#481,#482,#483,#484,#485,#486,#487,#488,
#489),.UNSPECIFIED.,.T.,.F.,(1,1,1,1,1,1,1,1,1,1,1,1,1,1,1,1,1,1,1,1,1,
1,1,1,1,1,1,1,1,1,1,1,1,1,1,1,1,1,1,1,1,1),(-0.0436896601911784,-0.0218448300955891,
-0.0109224150477946,0.,0.00368194580078125,0.0135509316126506,0.0234199174245199,
0.0431578890482585,0.0826338322957358,0.122109775543213,0.16158571879069,
0.171936647812526,0.182287576834361,0.202989434878032,0.244393150965373,
0.285796867052714,0.327200583140055,0.337575609322389,0.347950635504722,
0.36870068786939,0.410200792598725,0.451700897328059,0.493201002057394,
0.534705926218828,0.576210850380262,0.617715774541696,0.65922069870313,
0.66959698998639,0.679973281269649,0.700725863836169,0.742231028969208,
0.783736194102247,0.825241359235287,0.868931019426465,0.912620679617643,
0.956310339808822,0.978155169904411,0.989077584952205,1.,1.00368194580078,
1.01355093161265,1.02341991742452),.UNSPECIFIED.);
#19=B_SPLINE_CURVE_WITH_KNOTS('',3,(#518,#519,#520,#521,#522,#523,#524,
#525,#526,#527,#528,#529,#530,#531,#532,#533,#534,#535,#536,#537,#538,#539,
#540,#541,#542,#543,#544,#545,#546,#547,#548,#549,#550,#551,#552),
 .UNSPECIFIED.,.T.,.F.,(1,1,1,1,1,1,1,1,1,1,1,1,1,1,1,1,1,1,1,1,1,1,1,1,
1,1,1,1,1,1,1,1,1,1,1,1,1,1,1),(-0.0435410877869191,-0.0217705438934638,
-0.0108852719467361,-8.43769498715119E-15,0.00690002441406208,0.0167455450693762,
0.0265910657246904,0.0462821070353187,0.0856641896565754,0.125046272277832,
0.164428354899089,0.174744589010875,0.18506082312266,0.205693291346232,
0.246958227793376,0.288223164240519,0.329488100687663,0.3708471798261,0.412206258964538,
0.494924417241414,0.536288203514417,0.577651989787419,0.619015776060422,
0.660379562333424,0.670720567740857,0.68106157314829,0.701743583963155,
0.743107605592886,0.784471627222618,0.825835648852349,0.869376736639259,
0.91291782442617,0.956458912213081,0.978229456106536,0.989114728053264,
0.999999999999992,1.00690002441406,1.01674554506938,1.02659106572469),
 .UNSPECIFIED.);
#20=B_SPLINE_CURVE_WITH_KNOTS('',3,(#558,#559,#560,#561,#562,#563,#564,
#565,#566,#567,#568,#569,#570,#571,#572,#573,#574,#575,#576),
 .UNSPECIFIED.,.T.,.F.,(1,1,1,1,1,1,1,1,1,1,1,1,1,1,1,1,1,1,1,1,1,1,1),
(-0.190789473684211,-0.128289473684211,-0.0657894736842105,0.,0.059375,
0.12171875,0.1842109375,0.246710546875,0.30921052734375,0.371710526367187,
0.434210526318359,0.496710526315918,0.559210526315796,0.62171052631579,
0.684210526315789,0.746710526315789,0.809210526315789,0.871710526315789,
0.934210526315789,1.,1.059375,1.12171875,1.1842109375),.UNSPECIFIED.);
#21=B_SPLINE_CURVE_WITH_KNOTS('',3,(#578,#579,#580,#581,#582,#583,#584,
#585,#586,#587,#588,#589,#590,#591,#592,#593,#594,#595,#596),
 .UNSPECIFIED.,.T.,.F.,(1,1,1,1,1,1,1,1,1,1,1,1,1,1,1,1,1,1,1,1,1,1,1),
(-0.190789473684211,-0.128289473684211,-0.0657894736842105,0.,0.059375,
0.12171875,0.1842109375,0.246710546875,0.30921052734375,0.371710526367187,
0.434210526318359,0.496710526315918,0.559210526315796,0.62171052631579,
0.684210526315789,0.746710526315789,0.809210526315789,0.871710526315789,
0.934210526315789,1.,1.059375,1.12171875,1.1842109375),.UNSPECIFIED.);
#22=B_SPLINE_CURVE_WITH_KNOTS('',3,(#598,#599,#600,#601,#602,#603,#604,
#605,#606,#607,#608,#609,#610,#611,#612,#613,#614,#615,#616),
 .UNSPECIFIED.,.T.,.F.,(1,1,1,1,1,1,1,1,1,1,1,1,1,1,1,1,1,1,1,1,1,1,1),
(-0.190789473684211,-0.128289473684211,-0.0657894736842105,0.,0.059375,
0.12171875,0.1842109375,0.246710546875,0.30921052734375,0.371710526367187,
0.434210526318359,0.496710526315918,0.559210526315796,0.62171052631579,
0.684210526315789,0.746710526315789,0.809210526315789,0.871710526315789,
0.934210526315789,1.,1.059375,1.12171875,1.1842109375),.UNSPECIFIED.);
#23=B_SPLINE_CURVE_WITH_KNOTS('',3,(#618,#619,#620,#621,#622,#623,#624,
#625,#626,#627,#628,#629,#630,#631,#632,#633,#634,#635,#636),
 .UNSPECIFIED.,.T.,.F.,(1,1,1,1,1,1,1,1,1,1,1,1,1,1,1,1,1,1,1,1,1,1,1),
(-0.190789473684211,-0.128289473684211,-0.0657894736842105,0.,0.059375,
0.12171875,0.1842109375,0.246710546875,0.30921052734375,0.371710526367187,
0.434210526318359,0.496710526315918,0.559210526315796,0.62171052631579,
0.684210526315789,0.746710526315789,0.809210526315789,0.871710526315789,
0.934210526315789,1.,1.059375,1.12171875,1.1842109375),.UNSPECIFIED.);
#24=B_SPLINE_SURFACE_WITH_KNOTS('',3,1,((#307,#308),(#309,#310),(#311,#312),
(#313,#314),(#315,#316),(#317,#318),(#319,#320),(#321,#322),(#323,#324),
(#325,#326),(#327,#328)),.SURF_OF_LINEAR_EXTRUSION.,.T.,.F.,.F.,(1,1,1,
1,1,1,1,1,1,1,1,1,1,1,1),(2,2),(-2.35619449019234,-1.5707963267949,-0.785398163397448,
0.,0.785398163397448,1.5707963267949,2.35619449019234,3.14159265358979,
3.92699081698724,4.71238898038469,5.49778714378214,6.28318530717959,7.06858347057703,
7.85398163397448,8.63937979737193),(0.,1.),.UNSPECIFIED.);
#25=B_SPLINE_SURFACE_WITH_KNOTS('',3,1,((#367,#368),(#369,#370),(#371,#372),
(#373,#374),(#375,#376),(#377,#378),(#379,#380),(#381,#382),(#383,#384),
(#385,#386),(#387,#388)),.SURF_OF_LINEAR_EXTRUSION.,.T.,.F.,.F.,(1,1,1,
1,1,1,1,1,1,1,1,1,1,1,1),(2,2),(-2.35619449019234,-1.5707963267949,-0.785398163397448,
0.,0.785398163397448,1.5707963267949,2.35619449019234,3.14159265358979,
3.92699081698724,4.71238898038469,5.49778714378214,6.28318530717959,7.06858347057703,
7.85398163397448,8.63937979737193),(0.,1.),.UNSPECIFIED.);
#26=B_SPLINE_SURFACE_WITH_KNOTS('',3,1,((#430,#431),(#432,#433),(#434,#435),
(#436,#437),(#438,#439),(#440,#441),(#442,#443),(#444,#445),(#446,#447),
(#448,#449),(#450,#451)),.SURF_OF_LINEAR_EXTRUSION.,.T.,.F.,.F.,(1,1,1,
1,1,1,1,1,1,1,1,1,1,1,1),(2,2),(-2.35619449019234,-1.5707963267949,-0.785398163397448,
0.,0.785398163397448,1.5707963267949,2.35619449019234,3.14159265358979,
3.92699081698724,4.71238898038469,5.49778714378214,6.28318530717959,7.06858347057703,
7.85398163397448,8.63937979737193),(0.,1.),.UNSPECIFIED.);
#27=B_SPLINE_SURFACE_WITH_KNOTS('',3,1,((#496,#497),(#498,#499),(#500,#501),
(#502,#503),(#504,#505),(#506,#507),(#508,#509),(#510,#511),(#512,#513),
(#514,#515),(#516,#517)),.SURF_OF_LINEAR_EXTRUSION.,.T.,.F.,.F.,(1,1,1,
1,1,1,1,1,1,1,1,1,1,1,1),(2,2),(-2.35619449019234,-1.5707963267949,-0.785398163397448,
0.,0.785398163397448,1.5707963267949,2.35619449019234,3.14159265358979,
3.92699081698724,4.71238898038469,5.49778714378214,6.28318530717959,7.06858347057703,
7.85398163397448,8.63937979737193),(0.,1.),.UNSPECIFIED.);
#28=B_SPLINE_SURFACE_WITH_KNOTS('',1,3,((#638,#639,#640,#641,#642,#643,
#644,#645,#646,#647,#648,#649,#650,#651,#652,#653,#654,#655),(#656,#657,
#658,#659,#660,#661,#662,#663,#664,#665,#666,#667,#668,#669,#670,#671,#672,
#673)),.RULED_SURF.,.F.,.T.,.F.,(2,2),(2,2,2,2,2,2,2,2,2,2,2),(0.,1.),(-0.00225278355600842,
0.000170857828640024,0.00259449921328847,0.00501814059793691,0.00744178198258536,
0.0098654233672338,0.0122890647518822,0.0147127061365307,0.0171363475211792,
0.0195599889058276,0.021983630290476),.UNSPECIFIED.);
#29=B_SPLINE_SURFACE_WITH_KNOTS('',1,3,((#674,#675,#676,#677,#678,#679,
#680,#681,#682,#683,#684,#685,#686,#687,#688,#689,#690,#691),(#692,#693,
#694,#695,#696,#697,#698,#699,#700,#701,#702,#703,#704,#705,#706,#707,#708,
#709)),.RULED_SURF.,.F.,.T.,.F.,(2,2),(2,2,2,2,2,2,2,2,2,2,2),(0.,1.),(-0.00225278355600837,
0.000170857828640056,0.00259449921328849,0.00501814059793692,0.00744178198258535,
0.00986542336723378,0.0122890647518822,0.0147127061365306,0.0171363475211791,
0.0195599889058275,0.0219836302904759),.UNSPECIFIED.);
#30=B_SPLINE_SURFACE_WITH_KNOTS('',1,3,((#710,#711,#712,#713,#714,#715,
#716,#717,#718,#719,#720,#721,#722,#723,#724,#725,#726,#727),(#728,#729,
#730,#731,#732,#733,#734,#735,#736,#737,#738,#739,#740,#741,#742,#743,#744,
#745)),.RULED_SURF.,.F.,.T.,.F.,(2,2),(2,2,2,2,2,2,2,2,2,2,2),(0.,1.),(-0.0216419146331945,
-0.0192182732485462,-0.0167946318638979,-0.0143709904792496,-0.0119473490946014,
-0.00952370770995307,-0.00710006632530479,-0.00467642494065651,-0.00225278355600823,
0.000170857828640052,0.00259449921328834),.UNSPECIFIED.);
#31=B_SPLINE_SURFACE_WITH_KNOTS('',1,3,((#746,#747,#748,#749,#750,#751,
#752,#753,#754,#755,#756,#757,#758,#759,#760,#761,#762,#763),(#764,#765,
#766,#767,#768,#769,#770,#771,#772,#773,#774,#775,#776,#777,#778,#779,#780,
#781)),.RULED_SURF.,.F.,.T.,.F.,(2,2),(2,2,2,2,2,2,2,2,2,2,2),(0.,1.),(-0.0216419146331954,
-0.019218273248547,-0.0167946318638986,-0.0143709904792503,-0.0119473490946019,
-0.00952370770995349,-0.0071000663253051,-0.00467642494065672,-0.00225278355600833,
0.000170857828640056,0.00259449921328844),.UNSPECIFIED.);
#32=ORIENTED_EDGE('',*,*,#80,.T.);
#33=ORIENTED_EDGE('',*,*,#81,.F.);
#34=ORIENTED_EDGE('',*,*,#82,.F.);
#35=ORIENTED_EDGE('',*,*,#83,.T.);
#36=ORIENTED_EDGE('',*,*,#84,.F.);
#37=ORIENTED_EDGE('',*,*,#83,.F.);
#38=ORIENTED_EDGE('',*,*,#85,.T.);
#39=ORIENTED_EDGE('',*,*,#86,.T.);
#40=ORIENTED_EDGE('',*,*,#87,.F.);
#41=ORIENTED_EDGE('',*,*,#86,.F.);
#42=ORIENTED_EDGE('',*,*,#88,.T.);
#43=ORIENTED_EDGE('',*,*,#89,.T.);
#44=ORIENTED_EDGE('',*,*,#90,.F.);
#45=ORIENTED_EDGE('',*,*,#91,.T.);
#46=ORIENTED_EDGE('',*,*,#92,.F.);
#47=ORIENTED_EDGE('',*,*,#93,.F.);
#48=ORIENTED_EDGE('',*,*,#94,.F.);
#49=ORIENTED_EDGE('',*,*,#95,.F.);
#50=ORIENTED_EDGE('',*,*,#96,.T.);
#51=ORIENTED_EDGE('',*,*,#89,.F.);
#52=ORIENTED_EDGE('',*,*,#97,.F.);
#53=ORIENTED_EDGE('',*,*,#81,.T.);
#54=ORIENTED_EDGE('',*,*,#98,.F.);
#55=ORIENTED_EDGE('',*,*,#99,.T.);
#56=ORIENTED_EDGE('',*,*,#82,.T.);
#57=ORIENTED_EDGE('',*,*,#97,.T.);
#58=ORIENTED_EDGE('',*,*,#88,.F.);
#59=ORIENTED_EDGE('',*,*,#85,.F.);
#60=ORIENTED_EDGE('',*,*,#95,.T.);
#61=ORIENTED_EDGE('',*,*,#93,.T.);
#62=ORIENTED_EDGE('',*,*,#91,.F.);
#63=ORIENTED_EDGE('',*,*,#99,.F.);
#64=ORIENTED_EDGE('',*,*,#100,.F.);
#65=ORIENTED_EDGE('',*,*,#101,.F.);
#66=ORIENTED_EDGE('',*,*,#102,.F.);
#67=ORIENTED_EDGE('',*,*,#103,.F.);
#68=ORIENTED_EDGE('',*,*,#80,.F.);
#69=ORIENTED_EDGE('',*,*,#84,.T.);
#70=ORIENTED_EDGE('',*,*,#87,.T.);
#71=ORIENTED_EDGE('',*,*,#96,.F.);
#72=ORIENTED_EDGE('',*,*,#100,.T.);
#73=ORIENTED_EDGE('',*,*,#90,.T.);
#74=ORIENTED_EDGE('',*,*,#101,.T.);
#75=ORIENTED_EDGE('',*,*,#98,.T.);
#76=ORIENTED_EDGE('',*,*,#92,.T.);
#77=ORIENTED_EDGE('',*,*,#102,.T.);
#78=ORIENTED_EDGE('',*,*,#94,.T.);
#79=ORIENTED_EDGE('',*,*,#103,.T.);
#80=EDGE_CURVE('',#104,#105,#124,.T.);
#81=EDGE_CURVE('',#106,#105,#125,.T.);
#82=EDGE_CURVE('',#107,#106,#126,.T.);
#83=EDGE_CURVE('',#107,#104,#127,.T.);
#84=EDGE_CURVE('',#104,#108,#128,.T.);
#85=EDGE_CURVE('',#107,#109,#129,.T.);
#86=EDGE_CURVE('',#109,#108,#130,.T.);
#87=EDGE_CURVE('',#108,#110,#131,.T.);
#88=EDGE_CURVE('',#109,#111,#132,.T.);
#89=EDGE_CURVE('',#111,#110,#133,.T.);
#90=EDGE_CURVE('',#112,#112,#16,.T.);
#91=EDGE_CURVE('',#113,#113,#12,.T.);
#92=EDGE_CURVE('',#114,#114,#17,.T.);
#93=EDGE_CURVE('',#115,#115,#13,.T.);
#94=EDGE_CURVE('',#116,#116,#18,.T.);
#95=EDGE_CURVE('',#117,#117,#14,.T.);
#96=EDGE_CURVE('',#105,#110,#134,.T.);
#97=EDGE_CURVE('',#106,#111,#135,.T.);
#98=EDGE_CURVE('',#118,#118,#19,.T.);
#99=EDGE_CURVE('',#119,#119,#15,.T.);
#100=EDGE_CURVE('',#120,#120,#20,.T.);
#101=EDGE_CURVE('',#121,#121,#21,.T.);
#102=EDGE_CURVE('',#122,#122,#22,.T.);
#103=EDGE_CURVE('',#123,#123,#23,.T.);
#104=VERTEX_POINT('',#288);
#105=VERTEX_POINT('',#289);
#106=VERTEX_POINT('',#291);
#107=VERTEX_POINT('',#293);
#108=VERTEX_POINT('',#297);
#109=VERTEX_POINT('',#299);
#110=VERTEX_POINT('',#303);
#111=VERTEX_POINT('',#305);
#112=VERTEX_POINT('',#364);
#113=VERTEX_POINT('',#366);
#114=VERTEX_POINT('',#427);
#115=VERTEX_POINT('',#429);
#116=VERTEX_POINT('',#490);
#117=VERTEX_POINT('',#492);
#118=VERTEX_POINT('',#553);
#119=VERTEX_POINT('',#555);
#120=VERTEX_POINT('',#577);
#121=VERTEX_POINT('',#597);
#122=VERTEX_POINT('',#617);
#123=VERTEX_POINT('',#637);
#124=LINE('',#287,#136);
#125=LINE('',#290,#137);
#126=LINE('',#292,#138);
#127=LINE('',#294,#139);
#128=LINE('',#296,#140);
#129=LINE('',#298,#141);
#130=LINE('',#300,#142);
#131=LINE('',#302,#143);
#132=LINE('',#304,#144);
#133=LINE('',#306,#145);
#134=LINE('',#494,#146);
#135=LINE('',#495,#147);
#136=VECTOR('',#255,1.);
#137=VECTOR('',#256,1.);
#138=VECTOR('',#257,1.);
#139=VECTOR('',#258,1.);
#140=VECTOR('',#261,1.);
#141=VECTOR('',#262,1.);
#142=VECTOR('',#263,1.);
#143=VECTOR('',#266,1.);
#144=VECTOR('',#267,1.);
#145=VECTOR('',#268,1.);
#146=VECTOR('',#277,1.);
#147=VECTOR('',#278,1.);
#148=EDGE_LOOP('',(#32,#33,#34,#35));
#149=EDGE_LOOP('',(#36,#37,#38,#39));
#150=EDGE_LOOP('',(#40,#41,#42,#43));
#151=EDGE_LOOP('',(#44));
#152=EDGE_LOOP('',(#45));
#153=EDGE_LOOP('',(#46));
#154=EDGE_LOOP('',(#47));
#155=EDGE_LOOP('',(#48));
#156=EDGE_LOOP('',(#49));
#157=EDGE_LOOP('',(#50,#51,#52,#53));
#158=EDGE_LOOP('',(#54));
#159=EDGE_LOOP('',(#55));
#160=EDGE_LOOP('',(#56,#57,#58,#59));
#161=EDGE_LOOP('',(#60));
#162=EDGE_LOOP('',(#61));
#163=EDGE_LOOP('',(#62));
#164=EDGE_LOOP('',(#63));
#165=EDGE_LOOP('',(#64));
#166=EDGE_LOOP('',(#65));
#167=EDGE_LOOP('',(#66));
#168=EDGE_LOOP('',(#67));
#169=EDGE_LOOP('',(#68,#69,#70,#71));
#170=EDGE_LOOP('',(#72));
#171=EDGE_LOOP('',(#73));
#172=EDGE_LOOP('',(#74));
#173=EDGE_LOOP('',(#75));
#174=EDGE_LOOP('',(#76));
#175=EDGE_LOOP('',(#77));
#176=EDGE_LOOP('',(#78));
#177=EDGE_LOOP('',(#79));
#178=FACE_BOUND('',#148,.T.);
#179=FACE_BOUND('',#149,.T.);
#180=FACE_BOUND('',#150,.T.);
#181=FACE_BOUND('',#151,.T.);
#182=FACE_BOUND('',#152,.T.);
#183=FACE_BOUND('',#153,.T.);
#184=FACE_BOUND('',#154,.T.);
#185=FACE_BOUND('',#155,.T.);
#186=FACE_BOUND('',#156,.T.);
#187=FACE_BOUND('',#157,.T.);
#188=FACE_BOUND('',#158,.T.);
#189=FACE_BOUND('',#159,.T.);
#190=FACE_BOUND('',#160,.T.);
#191=FACE_BOUND('',#161,.T.);
#192=FACE_BOUND('',#162,.T.);
#193=FACE_BOUND('',#163,.T.);
#194=FACE_BOUND('',#164,.T.);
#195=FACE_BOUND('',#165,.T.);
#196=FACE_BOUND('',#166,.T.);
#197=FACE_BOUND('',#167,.T.);
#198=FACE_BOUND('',#168,.T.);
#199=FACE_BOUND('',#169,.T.);
#200=FACE_BOUND('',#170,.T.);
#201=FACE_BOUND('',#171,.T.);
#202=FACE_BOUND('',#172,.T.);
#203=FACE_BOUND('',#173,.T.);
#204=FACE_BOUND('',#174,.T.);
#205=FACE_BOUND('',#175,.T.);
#206=FACE_BOUND('',#176,.T.);
#207=FACE_BOUND('',#177,.T.);
#208=PLANE('',#241);
#209=PLANE('',#242);
#210=PLANE('',#243);
#211=PLANE('',#247);
#212=PLANE('',#249);
#213=PLANE('',#250);
#214=ADVANCED_FACE('',(#178),#208,.T.);
#215=ADVANCED_FACE('',(#179),#209,.F.);
#216=ADVANCED_FACE('',(#180),#210,.F.);
#217=ADVANCED_FACE('',(#181,#182),#24,.T.);
#218=ADVANCED_FACE('',(#183,#184),#25,.F.);
#219=ADVANCED_FACE('',(#185,#186),#26,.F.);
#220=ADVANCED_FACE('',(#187),#211,.T.);
#221=ADVANCED_FACE('',(#188,#189),#27,.T.);
#222=ADVANCED_FACE('',(#190,#191,#192,#193,#194),#212,.T.);
#223=ADVANCED_FACE('',(#195,#196,#197,#198,#199),#213,.F.);
#224=ADVANCED_FACE('',(#200,#201),#28,.F.);
#225=ADVANCED_FACE('',(#202,#203),#29,.F.);
#226=ADVANCED_FACE('',(#204,#205),#30,.F.);
#227=ADVANCED_FACE('',(#206,#207),#31,.F.);
#228=CLOSED_SHELL('',(#214,#215,#216,#217,#218,#219,#220,#221,#222,#223,
#224,#225,#226,#227));
#229=STYLED_ITEM('',(#230),#237);
#230=PRESENTATION_STYLE_ASSIGNMENT((#231));
#231=SURFACE_STYLE_USAGE(.BOTH.,#232);
#232=SURFACE_SIDE_STYLE('',(#233));
#233=SURFACE_STYLE_FILL_AREA(#234);
#234=FILL_AREA_STYLE('',(#235));
#235=FILL_AREA_STYLE_COLOUR('',#236);
#236=COLOUR_RGB('',0.917647058823529,0.917647058823529,0.917647058823529);
#237=MANIFOLD_SOLID_BREP('BottomCover-R',#228);
#238=SHAPE_DEFINITION_REPRESENTATION(#788,#239);
#239=SHAPE_REPRESENTATION('BottomCover-R',(#240),#783);
#240=AXIS2_PLACEMENT_3D('',#285,#251,#252);
#241=AXIS2_PLACEMENT_3D('',#286,#253,#254);
#242=AXIS2_PLACEMENT_3D('',#295,#259,#260);
#243=AXIS2_PLACEMENT_3D('',#301,#264,#265);
#244=AXIS2_PLACEMENT_3D('',#365,#269,#270);
#245=AXIS2_PLACEMENT_3D('',#428,#271,#272);
#246=AXIS2_PLACEMENT_3D('',#491,#273,#274);
#247=AXIS2_PLACEMENT_3D('',#493,#275,#276);
#248=AXIS2_PLACEMENT_3D('',#554,#279,#280);
#249=AXIS2_PLACEMENT_3D('',#556,#281,#282);
#250=AXIS2_PLACEMENT_3D('',#557,#283,#284);
#251=DIRECTION('',(0.,0.,1.));
#252=DIRECTION('',(1.,0.,0.));
#253=DIRECTION('',(1.,0.,0.));
#254=DIRECTION('',(0.,0.,1.));
#255=DIRECTION('',(0.,1.,0.));
#256=DIRECTION('',(0.,0.0517583903762606,-0.998659636225305));
#257=DIRECTION('',(0.,1.,0.));
#258=DIRECTION('',(0.,0.0517583903762606,-0.998659636225305));
#259=DIRECTION('',(0.,0.998659636225305,0.0517583903762606));
#260=DIRECTION('',(0.,-0.0517583903762606,0.998659636225305));
#261=DIRECTION('',(-1.,0.,0.));
#262=DIRECTION('',(-1.,0.,0.));
#263=DIRECTION('',(0.,0.0517583903762606,-0.998659636225305));
#264=DIRECTION('',(1.,0.,0.));
#265=DIRECTION('',(0.,0.,1.));
#266=DIRECTION('',(0.,1.,0.));
#267=DIRECTION('',(0.,1.,0.));
#268=DIRECTION('',(0.,0.0517583903762606,-0.998659636225305));
#269=DIRECTION('',(0.,0.,1.));
#270=DIRECTION('',(-1.,0.,0.));
#271=DIRECTION('',(0.,0.,-1.));
#272=DIRECTION('',(-1.,0.,0.));
#273=DIRECTION('',(0.,0.,-1.));
#274=DIRECTION('',(-1.,0.,0.));
#275=DIRECTION('',(0.,0.998659636225305,0.0517583903762606));
#276=DIRECTION('',(0.,-0.0517583903762606,0.998659636225305));
#277=DIRECTION('',(-1.,0.,0.));
#278=DIRECTION('',(-1.,0.,0.));
#279=DIRECTION('',(0.,0.,1.));
#280=DIRECTION('',(-1.,0.,0.));
#281=DIRECTION('',(0.,0.,1.));
#282=DIRECTION('',(-1.,0.,0.));
#283=DIRECTION('',(0.,0.,1.));
#284=DIRECTION('',(-1.,0.,0.));
#285=CARTESIAN_POINT('',(0.,0.,0.));
#286=CARTESIAN_POINT('',(0.3208,0.0675183732192475,0.00199731927245061));
#287=CARTESIAN_POINT('',(0.3208,0.06762189,0.));
#288=CARTESIAN_POINT('',(0.3208,0.,0.));
#289=CARTESIAN_POINT('',(0.3208,0.13524378,0.));
#290=CARTESIAN_POINT('',(0.3208,0.135140263219247,0.00199731927245061));
#291=CARTESIAN_POINT('',(0.3208,0.135140263219247,0.00199731927245061));
#292=CARTESIAN_POINT('',(0.3208,0.0675183732192475,0.00199731927245061));
#293=CARTESIAN_POINT('',(0.3208,-0.000103516780752521,0.00199731927245061));
#294=CARTESIAN_POINT('',(0.3208,-0.000103516780752521,0.00199731927245061));
#295=CARTESIAN_POINT('',(0.2406,-0.000103516780752521,0.00199731927245061));
#296=CARTESIAN_POINT('',(0.2406,0.,0.));
#297=CARTESIAN_POINT('',(0.1604,0.,0.));
#298=CARTESIAN_POINT('',(0.2406,-0.000103516780752521,0.00199731927245061));
#299=CARTESIAN_POINT('',(0.1604,-0.000103516780752521,0.00199731927245061));
#300=CARTESIAN_POINT('',(0.1604,-0.000103516780752521,0.00199731927245061));
#301=CARTESIAN_POINT('',(0.1604,0.0675183732192475,0.00199731927245061));
#302=CARTESIAN_POINT('',(0.1604,0.06762189,0.));
#303=CARTESIAN_POINT('',(0.1604,0.13524378,0.));
#304=CARTESIAN_POINT('',(0.1604,0.0675183732192475,0.00199731927245061));
#305=CARTESIAN_POINT('',(0.1604,0.135140263219247,0.00199731927245061));
#306=CARTESIAN_POINT('',(0.1604,0.135140263219247,0.00199731927245061));
#307=CARTESIAN_POINT('',(0.315507040818929,0.126433222400318,0.00199731927245061));
#308=CARTESIAN_POINT('',(0.315507040818929,0.126465503782906,0.00137446153753816));
#309=CARTESIAN_POINT('',(0.314971479590535,0.125140263219247,0.00199731927245061));
#310=CARTESIAN_POINT('',(0.314971479590535,0.125172544601836,0.00137446153753816));
#311=CARTESIAN_POINT('',(0.315507040818929,0.123847304038177,0.00199731927245061));
#312=CARTESIAN_POINT('',(0.315507040818929,0.123879585420765,0.00137446153753816));
#313=CARTESIAN_POINT('',(0.3168,0.123311742809783,0.00199731927245061));
#314=CARTESIAN_POINT('',(0.3168,0.123344024192371,0.00137446153753816));
#315=CARTESIAN_POINT('',(0.318092959181071,0.123847304038177,0.00199731927245061));
#316=CARTESIAN_POINT('',(0.318092959181071,0.123879585420765,0.00137446153753816));
#317=CARTESIAN_POINT('',(0.318628520409465,0.125140263219247,0.00199731927245061));
#318=CARTESIAN_POINT('',(0.318628520409465,0.125172544601836,0.00137446153753816));
#319=CARTESIAN_POINT('',(0.318092959181071,0.126433222400318,0.00199731927245061));
#320=CARTESIAN_POINT('',(0.318092959181071,0.126465503782906,0.00137446153753816));
#321=CARTESIAN_POINT('',(0.3168,0.126968783628712,0.00199731927245061));
#322=CARTESIAN_POINT('',(0.3168,0.1270010650113,0.00137446153753816));
#323=CARTESIAN_POINT('',(0.315507040818929,0.126433222400318,0.00199731927245061));
#324=CARTESIAN_POINT('',(0.315507040818929,0.126465503782906,0.00137446153753816));
#325=CARTESIAN_POINT('',(0.314971479590535,0.125140263219247,0.00199731927245061));
#326=CARTESIAN_POINT('',(0.314971479590535,0.125172544601836,0.00137446153753816));
#327=CARTESIAN_POINT('',(0.315507040818929,0.123847304038177,0.00199731927245061));
#328=CARTESIAN_POINT('',(0.315507040818929,0.123879585420765,0.00137446153753816));
#329=CARTESIAN_POINT('',(0.315162469681881,0.125390735534471,0.00144335477798618));
#330=CARTESIAN_POINT('',(0.315151117660144,0.125249359820602,0.00144973837211729));
#331=CARTESIAN_POINT('',(0.315149187799033,0.125171471485566,0.00145329150573313));
#332=CARTESIAN_POINT('',(0.315153072651926,0.125037199267448,0.00145936060874071));
#333=CARTESIAN_POINT('',(0.315173185508393,0.124872816335856,0.00146669064500693));
#334=CARTESIAN_POINT('',(0.315239154614097,0.12459011679756,0.00147919509159019));
#335=CARTESIAN_POINT('',(0.315403781316515,0.12425556484704,0.00149408391816997));
#336=CARTESIAN_POINT('',(0.315654557169437,0.123959933372337,0.00150782587512924));
#337=CARTESIAN_POINT('',(0.315852064948842,0.123810835567195,0.00151497201431845));
#338=CARTESIAN_POINT('',(0.315974484661907,0.123735348166114,0.00151839509073512));
#339=CARTESIAN_POINT('',(0.316109788172105,0.123662745780552,0.00152162763842258));
#340=CARTESIAN_POINT('',(0.316335335773319,0.123570803145347,0.00152565398650677));
#341=CARTESIAN_POINT('',(0.316693169302212,0.12350003231898,0.00152868076766923));
#342=CARTESIAN_POINT('',(0.317115944359385,0.123523668897941,0.00152767122874271));
#343=CARTESIAN_POINT('',(0.317552186096027,0.123679087646598,0.00152098423827875));
#344=CARTESIAN_POINT('',(0.317814832748857,0.123851480752147,0.00151302063874238));
#345=CARTESIAN_POINT('',(0.31819050431503,0.124204564357809,0.00149625848197608));
#346=CARTESIAN_POINT('',(0.318486990245222,0.124809206476321,0.00146968128331711));
#347=CARTESIAN_POINT('',(0.318428851328971,0.125578453855563,0.00143505676665421));
#348=CARTESIAN_POINT('',(0.318236908816498,0.126018920221563,0.00141566339247076));
#349=CARTESIAN_POINT('',(0.31798284470934,0.126342816786016,0.00140060202336625));
#350=CARTESIAN_POINT('',(0.317778918158866,0.126503671684684,0.0013928732266074));
#351=CARTESIAN_POINT('',(0.317660559608598,0.126580678663772,0.00138937805844698));
#352=CARTESIAN_POINT('',(0.317524955740471,0.126657782361195,0.00138594723011321));
#353=CARTESIAN_POINT('',(0.317300959281994,0.126755042357124,0.00138168200804619));
#354=CARTESIAN_POINT('',(0.316943191074162,0.126834356769672,0.00137826368107687));
#355=CARTESIAN_POINT('',(0.316519154200467,0.126819423053589,0.00137886910429042));
#356=CARTESIAN_POINT('',(0.316075659048958,0.126672516111824,0.0013851682729406));
#357=CARTESIAN_POINT('',(0.315797009714162,0.126496948021383,0.00139332526294056));
#358=CARTESIAN_POINT('',(0.315492383401073,0.126210470334553,0.00140684154954209));
#359=CARTESIAN_POINT('',(0.315286213483313,0.125866366428162,0.00142224209209738));
#360=CARTESIAN_POINT('',(0.315194531787153,0.12556669634576,0.00143551083718147));
#361=CARTESIAN_POINT('',(0.315162469681881,0.125390735534471,0.00144335477798618));
#362=CARTESIAN_POINT('',(0.315151117660144,0.125249359820602,0.00144973837211729));
#363=CARTESIAN_POINT('',(0.315149187799033,0.125171471485566,0.00145329150573313));
#364=CARTESIAN_POINT('',(0.315151753006971,0.125243778082542,0.00144999895733173));
#365=CARTESIAN_POINT('',(0.3168,0.125140263219247,0.00199731927245061));
#366=CARTESIAN_POINT('',(0.31515,0.125140263219247,0.00199731927245061));
#367=CARTESIAN_POINT('',(0.165107040818929,0.00220352403817695,0.00199731927245061));
#368=CARTESIAN_POINT('',(0.165107040818929,0.00223579147830321,0.00137473055235796));
#369=CARTESIAN_POINT('',(0.164571479590535,0.00349648321924748,0.00199731927245061));
#370=CARTESIAN_POINT('',(0.164571479590535,0.00352875065937374,0.00137473055235796));
#371=CARTESIAN_POINT('',(0.16510704081893,0.004789442400318,0.00199731927245061));
#372=CARTESIAN_POINT('',(0.16510704081893,0.00482170984044426,0.00137473055235796));
#373=CARTESIAN_POINT('',(0.1664,0.00532500362871222,0.00199731927245061));
#374=CARTESIAN_POINT('',(0.1664,0.00535727106883848,0.00137473055235796));
#375=CARTESIAN_POINT('',(0.16769295918107,0.004789442400318,0.00199731927245061));
#376=CARTESIAN_POINT('',(0.16769295918107,0.00482170984044426,0.00137473055235796));
#377=CARTESIAN_POINT('',(0.168228520409465,0.00349648321924748,0.00199731927245061));
#378=CARTESIAN_POINT('',(0.168228520409465,0.00352875065937374,0.00137473055235796));
#379=CARTESIAN_POINT('',(0.167692959181071,0.00220352403817696,0.00199731927245061));
#380=CARTESIAN_POINT('',(0.167692959181071,0.00223579147830322,0.00137473055235796));
#381=CARTESIAN_POINT('',(0.1664,0.00166796280978274,0.00199731927245061));
#382=CARTESIAN_POINT('',(0.1664,0.001700230249909,0.00137473055235796));
#383=CARTESIAN_POINT('',(0.165107040818929,0.00220352403817695,0.00199731927245061));
#384=CARTESIAN_POINT('',(0.165107040818929,0.00223579147830321,0.00137473055235796));
#385=CARTESIAN_POINT('',(0.164571479590535,0.00349648321924748,0.00199731927245061));
#386=CARTESIAN_POINT('',(0.164571479590535,0.00352875065937374,0.00137473055235796));
#387=CARTESIAN_POINT('',(0.16510704081893,0.004789442400318,0.00199731927245061));
#388=CARTESIAN_POINT('',(0.16510704081893,0.00482170984044426,0.00137473055235796));
#389=CARTESIAN_POINT('',(0.164758355892731,0.00371471411416119,0.00144482144310156));
#390=CARTESIAN_POINT('',(0.164750522709657,0.00358471878480246,0.00145068934205285));
#391=CARTESIAN_POINT('',(0.164749559056602,0.00351090263677192,0.00145405185150754));
#392=CARTESIAN_POINT('',(0.164753309832968,0.0033902461191807,0.00145950261466661));
#393=CARTESIAN_POINT('',(0.16477365216815,0.00322664449305808,0.00146679592004607));
#394=CARTESIAN_POINT('',(0.164840281180668,0.00294292756789343,0.00147934282738508));
#395=CARTESIAN_POINT('',(0.165005926713259,0.00260844615247171,0.00149422723367215));
#396=CARTESIAN_POINT('',(0.165258075223695,0.00231271263756094,0.00150797675993119));
#397=CARTESIAN_POINT('',(0.165456532686108,0.00216389826980481,0.00151511327547876));
#398=CARTESIAN_POINT('',(0.165579681822538,0.00208857089881869,0.00151852977546273));
#399=CARTESIAN_POINT('',(0.165715513267159,0.00201630647175586,0.00152174715177526));
#400=CARTESIAN_POINT('',(0.165942274772375,0.00192516451833952,0.00152573710162914));
#401=CARTESIAN_POINT('',(0.16629959830597,0.00185444155787595,0.0015287552003584));
#402=CARTESIAN_POINT('',(0.166731558802371,0.00188594167543583,0.00152741114717147));
#403=CARTESIAN_POINT('',(0.167037496157035,0.00198956398749073,0.00152292928503718));
#404=CARTESIAN_POINT('',(0.167229787990382,0.00209421384508669,0.00151828227879319));
#405=CARTESIAN_POINT('',(0.167308142393918,0.00214251487561416,0.00151606495362047));
#406=CARTESIAN_POINT('',(0.167474389260093,0.00225927625657336,0.00151055696945986));
#407=CARTESIAN_POINT('',(0.167702708264593,0.00248198676530556,0.00150002330023061));
#408=CARTESIAN_POINT('',(0.167940418013201,0.00286885590002161,0.00148262229599541));
#409=CARTESIAN_POINT('',(0.168075369561062,0.00337721326717304,0.00146016227754542));
#410=CARTESIAN_POINT('',(0.168024255277749,0.00395045538663792,0.0014343293711679));
#411=CARTESIAN_POINT('',(0.167828505163156,0.00438973230529889,0.0014149930669217));
#412=CARTESIAN_POINT('',(0.167569701248301,0.004712421627285,0.00139999508284689));
#413=CARTESIAN_POINT('',(0.167361849400121,0.00487247121369514,0.00139230953498332));
#414=CARTESIAN_POINT('',(0.167240278592903,0.00494912401881138,0.00138882982925118));
#415=CARTESIAN_POINT('',(0.167103862351362,0.00502411812705801,0.0013854931270497));
#416=CARTESIAN_POINT('',(0.166878034499387,0.00511842586066545,0.0013813611310864));
#417=CARTESIAN_POINT('',(0.166518341273292,0.0051925617405426,0.00137817765316965));
#418=CARTESIAN_POINT('',(0.166093280367975,0.00517137183365221,0.00137906538121322));
#419=CARTESIAN_POINT('',(0.165648328757174,0.00501524718625476,0.00138577029585363));
#420=CARTESIAN_POINT('',(0.165376826989498,0.00483723519113037,0.00139404614863023));
#421=CARTESIAN_POINT('',(0.165076628491988,0.00454664786633074,0.00140778327016381));
#422=CARTESIAN_POINT('',(0.164874550020839,0.00419759203383618,0.00142340370954203));
#423=CARTESIAN_POINT('',(0.164787254363825,0.00389238748556154,0.00143690652717153));
#424=CARTESIAN_POINT('',(0.164758355892731,0.00371471411416119,0.00144482144310156));
#425=CARTESIAN_POINT('',(0.164750522709657,0.00358471878480246,0.00145068934205285));
#426=CARTESIAN_POINT('',(0.164749559056602,0.00351090263677192,0.00145405185150754));
#427=CARTESIAN_POINT('',(0.164750485909603,0.003564807567526,0.00145159830081886));
#428=CARTESIAN_POINT('',(0.1664,0.00349648321924748,0.00199731927245061));
#429=CARTESIAN_POINT('',(0.16475,0.00349648321924748,0.00199731927245061));
#430=CARTESIAN_POINT('',(0.315507040818929,0.00860352403817695,0.00199731927245061));
#431=CARTESIAN_POINT('',(0.315507040818929,0.00863579147830328,0.00137473055235676));
#432=CARTESIAN_POINT('',(0.314971479590535,0.00989648321924748,0.00199731927245061));
#433=CARTESIAN_POINT('',(0.314971479590535,0.0099287506593738,0.00137473055235676));
#434=CARTESIAN_POINT('',(0.315507040818929,0.011189442400318,0.00199731927245061));
#435=CARTESIAN_POINT('',(0.315507040818929,0.0112217098404443,0.00137473055235676));
#436=CARTESIAN_POINT('',(0.3168,0.0117250036287122,0.00199731927245061));
#437=CARTESIAN_POINT('',(0.3168,0.0117572710688385,0.00137473055235676));
#438=CARTESIAN_POINT('',(0.318092959181071,0.011189442400318,0.00199731927245061));
#439=CARTESIAN_POINT('',(0.318092959181071,0.0112217098404443,0.00137473055235676));
#440=CARTESIAN_POINT('',(0.318628520409465,0.00989648321924748,0.00199731927245061));
#441=CARTESIAN_POINT('',(0.318628520409465,0.0099287506593738,0.00137473055235676));
#442=CARTESIAN_POINT('',(0.318092959181071,0.00860352403817696,0.00199731927245061));
#443=CARTESIAN_POINT('',(0.318092959181071,0.00863579147830328,0.00137473055235676));
#444=CARTESIAN_POINT('',(0.3168,0.00806796280978274,0.00199731927245061));
#445=CARTESIAN_POINT('',(0.3168,0.00810023024990906,0.00137473055235676));
#446=CARTESIAN_POINT('',(0.315507040818929,0.00860352403817695,0.00199731927245061));
#447=CARTESIAN_POINT('',(0.315507040818929,0.00863579147830328,0.00137473055235676));
#448=CARTESIAN_POINT('',(0.314971479590535,0.00989648321924748,0.00199731927245061));
#449=CARTESIAN_POINT('',(0.314971479590535,0.0099287506593738,0.00137473055235676));
#450=CARTESIAN_POINT('',(0.315507040818929,0.011189442400318,0.00199731927245061));
#451=CARTESIAN_POINT('',(0.315507040818929,0.0112217098404443,0.00137473055235676));
#452=CARTESIAN_POINT('',(0.31515835589273,0.0101147141141837,0.00144482144310054));
#453=CARTESIAN_POINT('',(0.315150522709657,0.00998471878469919,0.00145068934205754));
#454=CARTESIAN_POINT('',(0.315149559056603,0.00991090263696436,0.0014540518514988));
#455=CARTESIAN_POINT('',(0.315153309832968,0.00979024611910949,0.00145950261466978));
#456=CARTESIAN_POINT('',(0.315173652168151,0.00962664449309148,0.00146679592004441));
#457=CARTESIAN_POINT('',(0.315240281180671,0.00934292756785579,0.00147934282738656));
#458=CARTESIAN_POINT('',(0.315405926713267,0.00900844615247052,0.00149422723367198));
#459=CARTESIAN_POINT('',(0.315658075223703,0.00871271263755127,0.00150797675993154));
#460=CARTESIAN_POINT('',(0.315856532686112,0.00856389826980222,0.00151511327547887));
#461=CARTESIAN_POINT('',(0.315979681822537,0.00848857089881912,0.00151852977546273));
#462=CARTESIAN_POINT('',(0.316115513267146,0.00841630647176255,0.00152174715177495));
#463=CARTESIAN_POINT('',(0.316342274772346,0.00832516451834885,0.0015257371016285));
#464=CARTESIAN_POINT('',(0.316699598305927,0.00825444155787894,0.0015287552003575));
#465=CARTESIAN_POINT('',(0.317131558802336,0.00828594167542761,0.00152741114717069));
#466=CARTESIAN_POINT('',(0.317437496157018,0.00838956398748181,0.00152292928503682));
#467=CARTESIAN_POINT('',(0.317629787990385,0.00849421384508802,0.00151828227879322));
#468=CARTESIAN_POINT('',(0.317708142393903,0.00854251487560517,0.00151606495362126));
#469=CARTESIAN_POINT('',(0.317874389260069,0.00865927625655392,0.00151055696946148));
#470=CARTESIAN_POINT('',(0.318102708264563,0.0088819867652712,0.00150002330023284));
#471=CARTESIAN_POINT('',(0.318340418013188,0.00926885589998095,0.00148262229599755));
#472=CARTESIAN_POINT('',(0.318475369561064,0.00977721326717503,0.00146016227754537));
#473=CARTESIAN_POINT('',(0.318424255277751,0.0103504553866208,0.00143432937116852));
#474=CARTESIAN_POINT('',(0.31822850516317,0.0107897323052762,0.00141499306692264));
#475=CARTESIAN_POINT('',(0.317969701248317,0.0111124216272697,0.0013999950828477));
#476=CARTESIAN_POINT('',(0.31776184940013,0.0112724712136893,0.00139230953498371));
#477=CARTESIAN_POINT('',(0.317640278592902,0.0113491240188119,0.00138882982925114));
#478=CARTESIAN_POINT('',(0.317503862351353,0.0114241181270631,0.00138549312704927));
#479=CARTESIAN_POINT('',(0.317278034499365,0.0115184258606731,0.00138136113108549));
#480=CARTESIAN_POINT('',(0.31691834127326,0.0115925617405461,0.00137817765316836));
#481=CARTESIAN_POINT('',(0.316493280367943,0.0115713718336433,0.00137906538121217));
#482=CARTESIAN_POINT('',(0.316048328757183,0.0114152471862583,0.00138577029585311));
#483=CARTESIAN_POINT('',(0.315776826989462,0.0112372351911085,0.00139404614863212));
#484=CARTESIAN_POINT('',(0.315476628491951,0.0109466478662776,0.00140778327016673));
#485=CARTESIAN_POINT('',(0.31527455002082,0.0105975920338045,0.00142340370954362));
#486=CARTESIAN_POINT('',(0.315187254363819,0.0102923874855121,0.0014369065271738));
#487=CARTESIAN_POINT('',(0.31515835589273,0.0101147141141837,0.00144482144310054));
#488=CARTESIAN_POINT('',(0.315150522709657,0.00998471878469919,0.00145068934205754));
#489=CARTESIAN_POINT('',(0.315149559056603,0.00991090263696436,0.0014540518514988));
#490=CARTESIAN_POINT('',(0.315150485909602,0.009964807567526,0.00145159830081886));
#491=CARTESIAN_POINT('',(0.3168,0.00989648321924748,0.00199731927245061));
#492=CARTESIAN_POINT('',(0.31515,0.00989648321924748,0.00199731927245061));
#493=CARTESIAN_POINT('',(0.2406,0.135140263219247,0.00199731927245061));
#494=CARTESIAN_POINT('',(0.2406,0.13524378,0.));
#495=CARTESIAN_POINT('',(0.2406,0.135140263219247,0.00199731927245061));
#496=CARTESIAN_POINT('',(0.165107040818929,0.132833222400318,0.00199731927245061));
#497=CARTESIAN_POINT('',(0.165107040818929,0.132865503782906,0.00137446153753899));
#498=CARTESIAN_POINT('',(0.164571479590535,0.131540263219247,0.00199731927245061));
#499=CARTESIAN_POINT('',(0.164571479590535,0.131572544601836,0.001374461537539));
#500=CARTESIAN_POINT('',(0.16510704081893,0.130247304038177,0.00199731927245061));
#501=CARTESIAN_POINT('',(0.16510704081893,0.130279585420765,0.00137446153753899));
#502=CARTESIAN_POINT('',(0.1664,0.129711742809783,0.00199731927245061));
#503=CARTESIAN_POINT('',(0.1664,0.129744024192371,0.00137446153753899));
#504=CARTESIAN_POINT('',(0.16769295918107,0.130247304038177,0.00199731927245061));
#505=CARTESIAN_POINT('',(0.16769295918107,0.130279585420765,0.001374461537539));
#506=CARTESIAN_POINT('',(0.168228520409465,0.131540263219247,0.00199731927245061));
#507=CARTESIAN_POINT('',(0.168228520409465,0.131572544601836,0.001374461537539));
#508=CARTESIAN_POINT('',(0.167692959181071,0.132833222400318,0.00199731927245061));
#509=CARTESIAN_POINT('',(0.167692959181071,0.132865503782906,0.001374461537539));
#510=CARTESIAN_POINT('',(0.1664,0.133368783628712,0.00199731927245061));
#511=CARTESIAN_POINT('',(0.1664,0.1334010650113,0.001374461537539));
#512=CARTESIAN_POINT('',(0.165107040818929,0.132833222400318,0.00199731927245061));
#513=CARTESIAN_POINT('',(0.165107040818929,0.132865503782906,0.00137446153753899));
#514=CARTESIAN_POINT('',(0.164571479590535,0.131540263219247,0.00199731927245061));
#515=CARTESIAN_POINT('',(0.164571479590535,0.131572544601836,0.001374461537539));
#516=CARTESIAN_POINT('',(0.16510704081893,0.130247304038177,0.00199731927245061));
#517=CARTESIAN_POINT('',(0.16510704081893,0.130279585420765,0.00137446153753899));
#518=CARTESIAN_POINT('',(0.164762469681883,0.131790735534549,0.00144335477798266));
#519=CARTESIAN_POINT('',(0.164751117660143,0.131649359820398,0.0014497383721265));
#520=CARTESIAN_POINT('',(0.164749187799034,0.131571471486097,0.00145329150570909));
#521=CARTESIAN_POINT('',(0.164753072651927,0.131437199267275,0.00145936060874814));
#522=CARTESIAN_POINT('',(0.164773185508398,0.131272816335916,0.00146669064500331));
#523=CARTESIAN_POINT('',(0.164839154614114,0.130990116797442,0.00147919509159399));
#524=CARTESIAN_POINT('',(0.165003781316553,0.130655564847003,0.00149408391817005));
#525=CARTESIAN_POINT('',(0.165254557169481,0.130359933372292,0.00150782587513042));
#526=CARTESIAN_POINT('',(0.165452064948866,0.13021083556718,0.00151497201431887));
#527=CARTESIAN_POINT('',(0.165574484661904,0.130135348166116,0.00151839509073507));
#528=CARTESIAN_POINT('',(0.165709788172094,0.130062745780557,0.00152162763842255));
#529=CARTESIAN_POINT('',(0.165935335773291,0.129970803145357,0.00152565398650664));
#530=CARTESIAN_POINT('',(0.166293169302173,0.129900032318983,0.00152868076766905));
#531=CARTESIAN_POINT('',(0.166715944359347,0.129923668897931,0.00152767122874263));
#532=CARTESIAN_POINT('',(0.167152186096032,0.130079087646599,0.00152098423827847));
#533=CARTESIAN_POINT('',(0.167414832748836,0.130251480752134,0.0015130206387434));
#534=CARTESIAN_POINT('',(0.167790504315006,0.130604564357772,0.00149625848197789));
#535=CARTESIAN_POINT('',(0.168086990245224,0.131209206476316,0.00146968128331719));
#536=CARTESIAN_POINT('',(0.168028851328971,0.131978453855559,0.00143505676665445));
#537=CARTESIAN_POINT('',(0.167836908816501,0.132418920221557,0.00141566339247121));
#538=CARTESIAN_POINT('',(0.167582844709344,0.132742816786012,0.00140060202336661));
#539=CARTESIAN_POINT('',(0.167378918158869,0.132903671684682,0.0013928732266076));
#540=CARTESIAN_POINT('',(0.167260559608597,0.132980678663772,0.00138937805844695));
#541=CARTESIAN_POINT('',(0.167124955740489,0.133057782361186,0.00138594723011353));
#542=CARTESIAN_POINT('',(0.166900959282031,0.133155042357111,0.0013816820080468));
#543=CARTESIAN_POINT('',(0.166543191074216,0.133234356769666,0.00137826368107779));
#544=CARTESIAN_POINT('',(0.166119154200519,0.133219423053602,0.00137886910429109));
#545=CARTESIAN_POINT('',(0.165675659048949,0.13307251611182,0.00138516827294117));
#546=CARTESIAN_POINT('',(0.165397009714199,0.132896948021408,0.00139332526293845));
#547=CARTESIAN_POINT('',(0.165092383401112,0.132610470334593,0.00140684154953972));
#548=CARTESIAN_POINT('',(0.164886213483332,0.132266366428235,0.00142224209209389));
#549=CARTESIAN_POINT('',(0.16479453178716,0.131966696345753,0.00143551083718175));
#550=CARTESIAN_POINT('',(0.164762469681883,0.131790735534549,0.00144335477798266));
#551=CARTESIAN_POINT('',(0.164751117660143,0.131649359820398,0.0014497383721265));
#552=CARTESIAN_POINT('',(0.164749187799034,0.131571471486097,0.00145329150570909));
#553=CARTESIAN_POINT('',(0.164751753006971,0.131643778082542,0.00144999895733173));
#554=CARTESIAN_POINT('',(0.1664,0.131540263219247,0.00199731927245061));
#555=CARTESIAN_POINT('',(0.16475,0.131540263219247,0.00199731927245061));
#556=CARTESIAN_POINT('',(0.2406,0.0675183732192475,0.00199731927245061));
#557=CARTESIAN_POINT('',(0.2406,0.06762189,0.));
#558=CARTESIAN_POINT('',(0.313825378334702,0.12404224271723,0.));
#559=CARTESIAN_POINT('',(0.313618211318164,0.125273127161529,0.));
#560=CARTESIAN_POINT('',(0.313909847020645,0.126473867719426,0.));
#561=CARTESIAN_POINT('',(0.314608332965705,0.127478488668894,0.));
#562=CARTESIAN_POINT('',(0.315656222857521,0.128133340994123,0.));
#563=CARTESIAN_POINT('',(0.316880558872807,0.128352390196186,0.));
#564=CARTESIAN_POINT('',(0.318085120340052,0.12807504524392,0.));
#565=CARTESIAN_POINT('',(0.319106423980977,0.127363350433702,0.));
#566=CARTESIAN_POINT('',(0.319761957771108,0.126315751874128,0.));
#567=CARTESIAN_POINT('',(0.319982349730566,0.125087658148619,0.));
#568=CARTESIAN_POINT('',(0.319704176133572,0.123879527676494,0.));
#569=CARTESIAN_POINT('',(0.318992653688639,0.122859641935486,0.));
#570=CARTESIAN_POINT('',(0.317942495647555,0.122203519185554,0.));
#571=CARTESIAN_POINT('',(0.31671632289171,0.121984224891927,0.));
#572=CARTESIAN_POINT('',(0.31551162670696,0.122263474820009,0.));
#573=CARTESIAN_POINT('',(0.314491835011731,0.12297545333513,0.));
#574=CARTESIAN_POINT('',(0.313825378334702,0.12404224271723,0.));
#575=CARTESIAN_POINT('',(0.313618211318164,0.125273127161529,0.));
#576=CARTESIAN_POINT('',(0.313909847020645,0.126473867719426,0.));
#577=CARTESIAN_POINT('',(0.313703088346077,0.125309829283611,1.3945399328865E-20));
#578=CARTESIAN_POINT('',(0.163425378334704,0.130442242717223,0.));
#579=CARTESIAN_POINT('',(0.163218211318163,0.13167312716153,0.));
#580=CARTESIAN_POINT('',(0.163509847020645,0.13287386771943,0.));
#581=CARTESIAN_POINT('',(0.164208332965707,0.133878488668893,0.));
#582=CARTESIAN_POINT('',(0.165256222857522,0.134533340994127,0.));
#583=CARTESIAN_POINT('',(0.166480558872809,0.134752390196182,0.));
#584=CARTESIAN_POINT('',(0.167685120340047,0.134475045243923,0.));
#585=CARTESIAN_POINT('',(0.168706423980974,0.133763350433702,0.));
#586=CARTESIAN_POINT('',(0.169361957771107,0.132715751874133,0.));
#587=CARTESIAN_POINT('',(0.16958234973057,0.131487658148612,0.));
#588=CARTESIAN_POINT('',(0.169304176133568,0.130279527676477,0.));
#589=CARTESIAN_POINT('',(0.168592653688633,0.129259641935486,0.));
#590=CARTESIAN_POINT('',(0.167542495647553,0.128603519185548,0.));
#591=CARTESIAN_POINT('',(0.166316322891698,0.128384224891928,0.));
#592=CARTESIAN_POINT('',(0.16511162670696,0.12866347482001,0.));
#593=CARTESIAN_POINT('',(0.164091835011737,0.129375453335128,0.));
#594=CARTESIAN_POINT('',(0.163425378334704,0.130442242717223,0.));
#595=CARTESIAN_POINT('',(0.163218211318163,0.13167312716153,0.));
#596=CARTESIAN_POINT('',(0.163509847020645,0.13287386771943,0.));
#597=CARTESIAN_POINT('',(0.163303088346077,0.131709829283611,-2.4419822839387E-19));
#598=CARTESIAN_POINT('',(0.163450018424363,0.00233538760511325,0.));
#599=CARTESIAN_POINT('',(0.163216594464417,0.00356147141738756,0.));
#600=CARTESIAN_POINT('',(0.163482701629311,0.00476820881768109,0.));
#601=CARTESIAN_POINT('',(0.164159652738397,0.00578727699592156,0.));
#602=CARTESIAN_POINT('',(0.165193387667021,0.00646462687459341,0.));
#603=CARTESIAN_POINT('',(0.166412749157454,0.00670954964018147,0.));
#604=CARTESIAN_POINT('',(0.167622996221628,0.00645796386368073,0.));
#605=CARTESIAN_POINT('',(0.168659186724778,0.00576835191957286,0.));
#606=CARTESIAN_POINT('',(0.169336915106865,0.00473459650947943,0.));
#607=CARTESIAN_POINT('',(0.169583266348223,0.00351234520676619,0.));
#608=CARTESIAN_POINT('',(0.16933093897904,0.00229762671368719,0.));
#609=CARTESIAN_POINT('',(0.168641412148683,0.00126336261925137,0.));
#610=CARTESIAN_POINT('',(0.167605376843449,0.00058465561696792,0.));
#611=CARTESIAN_POINT('',(0.166384290382203,0.00033954064735635,0.));
#612=CARTESIAN_POINT('',(0.165173656150405,0.000592820009825592,0.));
#613=CARTESIAN_POINT('',(0.164139058914021,0.00128302199650702,0.));
#614=CARTESIAN_POINT('',(0.163450018424363,0.00233538760511325,0.));
#615=CARTESIAN_POINT('',(0.163216594464417,0.00356147141738756,0.));
#616=CARTESIAN_POINT('',(0.163482701629311,0.00476820881768109,0.));
#617=CARTESIAN_POINT('',(0.163300704317643,0.0036,6.01853107621011E-36));
#618=CARTESIAN_POINT('',(0.313850018424361,0.00873538760511813,0.));
#619=CARTESIAN_POINT('',(0.313616594464417,0.00996147141738753,0.));
#620=CARTESIAN_POINT('',(0.313882701629312,0.0111682088176772,0.));
#621=CARTESIAN_POINT('',(0.314559652738394,0.0121872769959204,0.));
#622=CARTESIAN_POINT('',(0.315593387667022,0.0128646268745936,0.));
#623=CARTESIAN_POINT('',(0.316812749157453,0.0131095496401816,0.));
#624=CARTESIAN_POINT('',(0.318022996221629,0.0128579638636809,0.));
#625=CARTESIAN_POINT('',(0.319059186724777,0.0121683519195727,0.));
#626=CARTESIAN_POINT('',(0.319736915106867,0.0111345965094789,0.));
#627=CARTESIAN_POINT('',(0.319983266348221,0.00991234520676606,0.));
#628=CARTESIAN_POINT('',(0.319730938979041,0.00869762671368978,0.));
#629=CARTESIAN_POINT('',(0.319041412148683,0.00766336261925117,0.));
#630=CARTESIAN_POINT('',(0.318005376843448,0.00698465561696638,0.));
#631=CARTESIAN_POINT('',(0.316784290382202,0.00673954064735668,0.));
#632=CARTESIAN_POINT('',(0.315573656150404,0.00699282000982468,0.));
#633=CARTESIAN_POINT('',(0.314539058914015,0.00768302199651018,0.));
#634=CARTESIAN_POINT('',(0.313850018424361,0.00873538760511813,0.));
#635=CARTESIAN_POINT('',(0.313616594464417,0.00996147141738753,0.));
#636=CARTESIAN_POINT('',(0.313882701629312,0.0111682088176772,0.));
#637=CARTESIAN_POINT('',(0.313700704317643,0.01,-1.20370621524202E-35));
#638=CARTESIAN_POINT('',(0.31516129934827,0.125641783188939,0.00143191004865536));
#639=CARTESIAN_POINT('',(0.315139672470935,0.124775391946113,0.00147128655298237));
#640=CARTESIAN_POINT('',(0.315306503884836,0.124342755373155,0.00149094146131646));
#641=CARTESIAN_POINT('',(0.315901979650245,0.123714877997842,0.00151941866416724));
#642=CARTESIAN_POINT('',(0.316325344574757,0.123525707371482,0.00152797845009537));
#643=CARTESIAN_POINT('',(0.317191386077727,0.123504469861751,0.00152893942801776));
#644=CARTESIAN_POINT('',(0.317624457943717,0.123671560624075,0.00152138036270682));
#645=CARTESIAN_POINT('',(0.318251609593423,0.124270247126176,0.00149423290973007));
#646=CARTESIAN_POINT('',(0.318439153651049,0.12469291590564,0.00147503468673635));
#647=CARTESIAN_POINT('',(0.318459870699108,0.125563559885027,0.00143546488989995));
#648=CARTESIAN_POINT('',(0.318292906090271,0.125994835139748,0.00141587192338628));
#649=CARTESIAN_POINT('',(0.317696561062555,0.126623498875316,0.001387359044987));
#650=CARTESIAN_POINT('',(0.317272611037204,0.126811316467168,0.00137886066362032));
#651=CARTESIAN_POINT('',(0.316407661232905,0.12683238971073,0.00137790708480814));
#652=CARTESIAN_POINT('',(0.31597502893032,0.126665421359563,0.00138546059299288));
#653=CARTESIAN_POINT('',(0.315348819181032,0.126066499298396,0.00141261878396991));
#654=CARTESIAN_POINT('',(0.31516129934827,0.125641783188939,0.00143191004865536));
#655=CARTESIAN_POINT('',(0.315139672470935,0.124775391946113,0.00147128655298237));
#656=CARTESIAN_POINT('',(0.313721049491828,0.126056853509355,2.13603315319742E-19));
#657=CARTESIAN_POINT('',(0.313680359143458,0.124430706490645,-2.13603315319742E-19));
#658=CARTESIAN_POINT('',(0.313994289378872,0.123618835595485,-5.02278969869021E-19));
#659=CARTESIAN_POINT('',(0.315113593490616,0.122441500763905,5.02278969869021E-19));
#660=CARTESIAN_POINT('',(0.315908754647349,0.122087172130626,-1.26943247630476E-19));
#661=CARTESIAN_POINT('',(0.317534887357882,0.122047392900625,1.86166672360729E-18));
#662=CARTESIAN_POINT('',(0.318348203907815,0.12236033312594,5.56611793528461E-19));
#663=CARTESIAN_POINT('',(0.319526926460148,0.123482820020492,3.10749944459943E-19));
#664=CARTESIAN_POINT('',(0.319879801843764,0.124275911564589,7.3059241661456E-19));
#665=CARTESIAN_POINT('',(0.319918782314472,0.125910040799589,1.36769321373844E-19));
#666=CARTESIAN_POINT('',(0.319604600603798,0.126719355248947,-2.80697047187319E-19));
#667=CARTESIAN_POINT('',(0.318483664658051,0.127898164782437,-5.86664690801085E-19));
#668=CARTESIAN_POINT('',(0.317687405704261,0.12824995560563,5.44971446643906E-19));
#669=CARTESIAN_POINT('',(0.316063324560961,0.128289427804613,-5.44971446643906E-19));
#670=CARTESIAN_POINT('',(0.31525083294946,0.127976717212294,2.90192185283535E-19));
#671=CARTESIAN_POINT('',(0.314073878150868,0.126853787576312,-1.15755392327194E-18));
#672=CARTESIAN_POINT('',(0.313721049491828,0.126056853509355,2.13603315319742E-19));
#673=CARTESIAN_POINT('',(0.313680359143458,0.124430706490645,-2.13603315319742E-19));
#674=CARTESIAN_POINT('',(0.16476129934827,0.132041783188939,0.00143191004865536));
#675=CARTESIAN_POINT('',(0.164739672470935,0.131175391946113,0.00147128655298237));
#676=CARTESIAN_POINT('',(0.164906503884836,0.130742755373155,0.00149094146131646));
#677=CARTESIAN_POINT('',(0.165501979650245,0.130114877997842,0.00151941866416724));
#678=CARTESIAN_POINT('',(0.165925344574757,0.129925707371482,0.00152797845009537));
#679=CARTESIAN_POINT('',(0.166791386077727,0.129904469861751,0.00152893942801776));
#680=CARTESIAN_POINT('',(0.167224457943717,0.130071560624075,0.00152138036270682));
#681=CARTESIAN_POINT('',(0.167851609593422,0.130670247126176,0.00149423290973007));
#682=CARTESIAN_POINT('',(0.168039153651049,0.13109291590564,0.00147503468673635));
#683=CARTESIAN_POINT('',(0.168059870699108,0.131963559885027,0.00143546488989996));
#684=CARTESIAN_POINT('',(0.167892906090272,0.132394835139748,0.00141587192338628));
#685=CARTESIAN_POINT('',(0.167296561062554,0.133023498875316,0.001387359044987));
#686=CARTESIAN_POINT('',(0.166872611037203,0.133211316467168,0.00137886066362032));
#687=CARTESIAN_POINT('',(0.166007661232906,0.13323238971073,0.00137790708480814));
#688=CARTESIAN_POINT('',(0.165575028930321,0.133065421359563,0.00138546059299288));
#689=CARTESIAN_POINT('',(0.164948819181032,0.132466499298396,0.00141261878396991));
#690=CARTESIAN_POINT('',(0.16476129934827,0.132041783188939,0.00143191004865536));
#691=CARTESIAN_POINT('',(0.164739672470935,0.131175391946113,0.00147128655298237));
#692=CARTESIAN_POINT('',(0.163321049491828,0.132456853509355,-5.74156990492113E-19));
#693=CARTESIAN_POINT('',(0.163280359143458,0.130830706490645,1.4047612149791E-19));
#694=CARTESIAN_POINT('',(0.163594289378872,0.130018835595485,-6.66381225311592E-19));
#695=CARTESIAN_POINT('',(0.164713593490615,0.128841500763905,2.32700356317391E-19));
#696=CARTESIAN_POINT('',(0.165508754647349,0.128487172130626,2.42688383485504E-19));
#697=CARTESIAN_POINT('',(0.167134887357882,0.128447392900625,1.0583542234971E-18));
#698=CARTESIAN_POINT('',(0.167948203907815,0.12876033312594,-1.37653182184712E-19));
#699=CARTESIAN_POINT('',(0.169126926460148,0.129882820020492,5.71334051178914E-19));
#700=CARTESIAN_POINT('',(0.169479801843764,0.130675911564589,4.96451394855409E-20));
#701=CARTESIAN_POINT('',(0.169518782314472,0.132310040799589,-4.96451394855409E-20));
#702=CARTESIAN_POINT('',(0.169204600603798,0.133119355248947,-7.8340990658684E-19));
#703=CARTESIAN_POINT('',(0.16808366465805,0.134298164782437,-5.17632700395765E-19));
#704=CARTESIAN_POINT('',(0.167287405704261,0.13464995560563,-5.07313376336326E-20));
#705=CARTESIAN_POINT('',(0.165663324560962,0.134689427804614,5.07313376336325E-20));
#706=CARTESIAN_POINT('',(0.16485083294946,0.134376717212294,-2.79146362568613E-19));
#707=CARTESIAN_POINT('',(0.163673878150868,0.133253787576313,-1.54534506425589E-19));
#708=CARTESIAN_POINT('',(0.163321049491828,0.132456853509355,-5.74156990492113E-19));
#709=CARTESIAN_POINT('',(0.163280359143458,0.130830706490645,1.4047612149791E-19));
#710=CARTESIAN_POINT('',(0.163280359143458,0.00278692649064511,6.6334943747463E-20));
#711=CARTESIAN_POINT('',(0.163321049491828,0.00441307350935488,-6.6334943747463E-20));
#712=CARTESIAN_POINT('',(0.163673878150869,0.00521000757631239,-4.37819705039564E-19));
#713=CARTESIAN_POINT('',(0.16485083294946,0.00633293721229353,-8.63222901943041E-19));
#714=CARTESIAN_POINT('',(0.165663324560962,0.00664564780461329,6.60485869767942E-19));
#715=CARTESIAN_POINT('',(0.167287405704261,0.00660617560563017,-6.60485869767942E-19));
#716=CARTESIAN_POINT('',(0.16808366465805,0.00625438478243694,2.74480377515356E-19));
#717=CARTESIAN_POINT('',(0.169204600603798,0.0050755752489469,-1.57552298449796E-18));
#718=CARTESIAN_POINT('',(0.169518782314472,0.00426626079958876,2.79786315163723E-20));
#719=CARTESIAN_POINT('',(0.169479801843763,0.00263213156458916,-2.79786315163723E-20));
#720=CARTESIAN_POINT('',(0.169126926460148,0.00183904002049249,5.60207207465115E-19));
#721=CARTESIAN_POINT('',(0.167948203907815,0.000716553125940233,3.07154530523288E-19));
#722=CARTESIAN_POINT('',(0.167134887357882,0.000403612900624715,1.63788334970939E-18));
#723=CARTESIAN_POINT('',(0.165508754647349,0.000443392130626271,9.68401262674235E-20));
#724=CARTESIAN_POINT('',(0.164713593490615,0.000797720763905,6.29642593208511E-19));
#725=CARTESIAN_POINT('',(0.163594289378872,0.0019750555954853,-6.29642593208511E-19));
#726=CARTESIAN_POINT('',(0.163280359143458,0.00278692649064511,6.6334943747463E-20));
#727=CARTESIAN_POINT('',(0.163321049491828,0.00441307350935488,-6.6334943747463E-20));
#728=CARTESIAN_POINT('',(0.164739672470935,0.00313161194611256,0.00147128655298237));
#729=CARTESIAN_POINT('',(0.16476129934827,0.00399800318893944,0.00143191004865536));
#730=CARTESIAN_POINT('',(0.164948819181032,0.00442271929839606,0.00141261878396991));
#731=CARTESIAN_POINT('',(0.165575028930321,0.00502164135956318,0.00138546059299289));
#732=CARTESIAN_POINT('',(0.166007661232906,0.00518860971073014,0.00137790708480815));
#733=CARTESIAN_POINT('',(0.166872611037203,0.00516753646716757,0.00137886066362033));
#734=CARTESIAN_POINT('',(0.167296561062554,0.00497971887531628,0.00138735904498701));
#735=CARTESIAN_POINT('',(0.167892906090272,0.00435105513974776,0.00141587192338629));
#736=CARTESIAN_POINT('',(0.168059870699108,0.00391977988502683,0.00143546488989996));
#737=CARTESIAN_POINT('',(0.168039153651049,0.00304913590563989,0.00147503468673634));
#738=CARTESIAN_POINT('',(0.167851609593422,0.00262646712617587,0.00149423290973006));
#739=CARTESIAN_POINT('',(0.167224457943717,0.00202778062407541,0.00152138036270682));
#740=CARTESIAN_POINT('',(0.166791386077727,0.00186068986175073,0.00152893942801774));
#741=CARTESIAN_POINT('',(0.165925344574757,0.00188192737148192,0.00152797845009536));
#742=CARTESIAN_POINT('',(0.165501979650245,0.0020710979978421,0.00151941866416723));
#743=CARTESIAN_POINT('',(0.164906503884836,0.00269897537315483,0.00149094146131646));
#744=CARTESIAN_POINT('',(0.164739672470935,0.00313161194611256,0.00147128655298237));
#745=CARTESIAN_POINT('',(0.16476129934827,0.00399800318893944,0.00143191004865536));
#746=CARTESIAN_POINT('',(0.313680359143458,0.00918692649064508,-6.33093412517367E-20));
#747=CARTESIAN_POINT('',(0.313721049491828,0.0108130735093549,6.33093412517366E-20));
#748=CARTESIAN_POINT('',(0.314073878150868,0.0116100075763125,-4.59497299113687E-19));
#749=CARTESIAN_POINT('',(0.31525083294946,0.0127329372122936,-4.07864438874717E-19));
#750=CARTESIAN_POINT('',(0.316063324560961,0.0130456478046134,2.42755263902439E-19));
#751=CARTESIAN_POINT('',(0.317687405704261,0.0130061756056303,-2.42755263902439E-19));
#752=CARTESIAN_POINT('',(0.318483664658051,0.012654384782437,-3.69327820873526E-19));
#753=CARTESIAN_POINT('',(0.319604600603798,0.011475575248947,-4.98033917114878E-19));
#754=CARTESIAN_POINT('',(0.319918782314472,0.0106662607995888,-1.73058097285958E-19));
#755=CARTESIAN_POINT('',(0.319879801843764,0.00903213156458908,1.04041983527436E-18));
#756=CARTESIAN_POINT('',(0.319526926460148,0.00823904002049239,5.46965186658931E-19));
#757=CARTESIAN_POINT('',(0.318348203907814,0.00711655312594012,3.20396551329473E-19));
#758=CARTESIAN_POINT('',(0.317534887357882,0.00680361290062457,1.61568919616642E-18));
#759=CARTESIAN_POINT('',(0.315908754647349,0.00684339213062615,1.19034279810384E-19));
#760=CARTESIAN_POINT('',(0.315113593490616,0.00719772076390487,4.65749032107152E-19));
#761=CARTESIAN_POINT('',(0.313994289378872,0.00837505559548524,-4.65749032107152E-19));
#762=CARTESIAN_POINT('',(0.313680359143458,0.00918692649064508,-6.33093412517367E-20));
#763=CARTESIAN_POINT('',(0.313721049491828,0.0108130735093549,6.33093412517366E-20));
#764=CARTESIAN_POINT('',(0.315139672470935,0.00953161194611256,0.00147128655298237));
#765=CARTESIAN_POINT('',(0.31516129934827,0.0103980031889394,0.00143191004865536));
#766=CARTESIAN_POINT('',(0.315348819181032,0.0108227192983961,0.00141261878396991));
#767=CARTESIAN_POINT('',(0.31597502893032,0.0114216413595632,0.00138546059299288));
#768=CARTESIAN_POINT('',(0.316407661232905,0.0115886097107301,0.00137790708480814));
#769=CARTESIAN_POINT('',(0.317272611037204,0.0115675364671676,0.00137886066362032));
#770=CARTESIAN_POINT('',(0.317696561062555,0.0113797188753163,0.00138735904498701));
#771=CARTESIAN_POINT('',(0.318292906090271,0.0107510551397478,0.00141587192338629));
#772=CARTESIAN_POINT('',(0.318459870699108,0.0103197798850268,0.00143546488989996));
#773=CARTESIAN_POINT('',(0.318439153651049,0.00944913590563988,0.00147503468673635));
#774=CARTESIAN_POINT('',(0.318251609593423,0.00902646712617587,0.00149423290973007));
#775=CARTESIAN_POINT('',(0.317624457943717,0.00842778062407543,0.00152138036270682));
#776=CARTESIAN_POINT('',(0.317191386077727,0.00826068986175074,0.00152893942801775));
#777=CARTESIAN_POINT('',(0.316325344574757,0.00828192737148193,0.00152797845009536));
#778=CARTESIAN_POINT('',(0.315901979650245,0.00847109799784211,0.00151941866416724));
#779=CARTESIAN_POINT('',(0.315306503884836,0.00909897537315483,0.00149094146131646));
#780=CARTESIAN_POINT('',(0.315139672470935,0.00953161194611256,0.00147128655298237));
#781=CARTESIAN_POINT('',(0.31516129934827,0.0103980031889394,0.00143191004865536));
#782=MECHANICAL_DESIGN_GEOMETRIC_PRESENTATION_REPRESENTATION('',(#229),
#783);
#783=(
GEOMETRIC_REPRESENTATION_CONTEXT(3)
GLOBAL_UNCERTAINTY_ASSIGNED_CONTEXT((#784))
GLOBAL_UNIT_ASSIGNED_CONTEXT((#787,#786,#785))
REPRESENTATION_CONTEXT('BottomCover-R','TOP_LEVEL_ASSEMBLY_PART')
);
#784=UNCERTAINTY_MEASURE_WITH_UNIT(LENGTH_MEASURE(2.E-5),#787,
'DISTANCE_ACCURACY_VALUE','Maximum Tolerance applied to model');
#785=(
NAMED_UNIT(*)
SI_UNIT($,.STERADIAN.)
SOLID_ANGLE_UNIT()
);
#786=(
NAMED_UNIT(*)
PLANE_ANGLE_UNIT()
SI_UNIT($,.RADIAN.)
);
#787=(
LENGTH_UNIT()
NAMED_UNIT(*)
SI_UNIT($,.METRE.)
);
#788=PRODUCT_DEFINITION_SHAPE('','',#789);
#789=PRODUCT_DEFINITION('','',#791,#790);
#790=PRODUCT_DEFINITION_CONTEXT('',#797,'design');
#791=PRODUCT_DEFINITION_FORMATION_WITH_SPECIFIED_SOURCE('','',#793,
 .NOT_KNOWN.);
#792=PRODUCT_RELATED_PRODUCT_CATEGORY('','',(#793));
#793=PRODUCT('BottomCover-R','BottomCover-R','BottomCover-R',(#795));
#794=PRODUCT_CATEGORY('','');
#795=PRODUCT_CONTEXT('',#797,'mechanical');
#796=APPLICATION_PROTOCOL_DEFINITION('international standard',
'ap242_managed_model_based_3d_engineering',2020,#797);
#797=APPLICATION_CONTEXT('managed model based 3d engineering');
ENDSEC;
END-ISO-10303-21;
